<svg width="32" height="32" viewBox="0 0 32 32" fill="none" xmlns="http://www.w3.org/2000/svg">
<path d="M28 21.3334V10.6667C27.9995 10.1991 27.8761 9.73978 27.6421 9.33492C27.408 8.93005 27.0717 8.59385 26.6667 8.36003L17.3333 3.0267C16.9279 2.79265 16.4681 2.66943 16 2.66943C15.5319 2.66943 15.0721 2.79265 14.6667 3.0267L5.33333 8.36003C4.92835 8.59385 4.59197 8.93005 4.35795 9.33492C4.12392 9.73978 4.00048 10.1991 4 10.6667V21.3334C4.00048 21.801 4.12392 22.2603 4.35795 22.6651C4.59197 23.07 4.92835 23.4062 5.33333 23.64L14.6667 28.9734C15.0721 29.2074 15.5319 29.3306 16 29.3306C16.4681 29.3306 16.9279 29.2074 17.3333 28.9734L26.6667 23.64C27.0717 23.4062 27.408 23.07 27.6421 22.6651C27.8761 22.2603 27.9995 21.801 28 21.3334Z" stroke="#8C8CA2" stroke-width="2.66667" stroke-linecap="round" stroke-linejoin="round"/>
<path d="M4.36011 9.28003L16.0001 16.0134L27.6401 9.28003" stroke="#8C8CA2" stroke-width="2.66667" stroke-linecap="round" stroke-linejoin="round"/>
<path d="M16 29.44V16" stroke="#8C8CA2" stroke-width="2.66667" stroke-linecap="round" stroke-linejoin="round"/>
</svg>
