<svg width="32" height="32" viewBox="0 0 32 32" fill="none" xmlns="http://www.w3.org/2000/svg">
<path d="M22.6666 28V25.3333C22.6666 23.9188 22.1047 22.5623 21.1045 21.5621C20.1043 20.5619 18.7477 20 17.3333 20H6.66659C5.2521 20 3.89554 20.5619 2.89535 21.5621C1.89516 22.5623 1.33325 23.9188 1.33325 25.3333V28" stroke="#8C8CA2" stroke-width="2.66667" stroke-linecap="round" stroke-linejoin="round"/>
<path d="M12.0001 14.6667C14.9456 14.6667 17.3334 12.2789 17.3334 9.33333C17.3334 6.38781 14.9456 4 12.0001 4C9.05456 4 6.66675 6.38781 6.66675 9.33333C6.66675 12.2789 9.05456 14.6667 12.0001 14.6667Z" stroke="#8C8CA2" stroke-width="2.66667" stroke-linecap="round" stroke-linejoin="round"/>
<path d="M30.6667 28V25.3333C30.6659 24.1516 30.2726 23.0037 29.5486 22.0698C28.8246 21.1358 27.8109 20.4688 26.6667 20.1733" stroke="#8C8CA2" stroke-width="2.66667" stroke-linecap="round" stroke-linejoin="round"/>
<path d="M21.3333 4.17334C22.4805 4.46707 23.4973 5.13427 24.2234 6.06975C24.9496 7.00523 25.3437 8.15578 25.3437 9.34001C25.3437 10.5242 24.9496 11.6748 24.2234 12.6103C23.4973 13.5457 22.4805 14.2129 21.3333 14.5067" stroke="#8C8CA2" stroke-width="2.66667" stroke-linecap="round" stroke-linejoin="round"/>
</svg>
