<svg width="79" height="87" viewBox="0 0 79 87" fill="none" xmlns="http://www.w3.org/2000/svg">
<path d="M48.1824 7.85443H26.7685C19.0011 7.85443 14.4787 11.5849 14.4787 17.9771V39.6266C14.4787 46.1235 19.0011 49.7702 26.7685 49.7702H48.1824C56.0749 49.7702 60.4696 46.1235 60.4696 39.6266V17.9771C60.4696 11.5849 56.0749 7.85443 48.1824 7.85443Z" fill="url(#paint0_linear)"/>
<g opacity="0.5" filter="url(#filter0_f)">
<path d="M48.009 11.7012H35.9556C31.5835 11.7012 29.0379 14.2612 29.0379 18.6477V33.5042C29.0379 37.9625 31.5835 40.465 35.9556 40.465H48.009C52.4516 40.465 54.9253 37.9625 54.9253 33.5042V18.6477C54.9253 14.2612 52.4516 11.7012 48.009 11.7012Z" fill="#5E48E8"/>
</g>
<g filter="url(#filter1_b)">
<mask id="path-3-outside-1" maskUnits="userSpaceOnUse" x="2.99988" y="14.3956" width="50" height="43" fill="black">
<rect fill="white" x="2.99988" y="14.3956" width="50" height="43"/>
<path d="M51.3359 21.9609C50.9441 20.8368 50.3458 19.7955 49.5716 18.8903C49.3282 18.6044 49.0619 18.3387 48.7755 18.0958C46.2882 16.1395 43.1543 15.189 39.9968 15.4332H16.3288C10.6915 15.4332 7.24886 17.2584 5.57058 20.8443C5.00403 22.0062 4.60559 23.2425 4.38718 24.5161C4.38718 24.9885 4.23656 25.4609 4.17201 25.9548C4.05692 27.0102 3.99946 28.0711 3.99988 29.1328V41.8446C3.99941 42.9162 4.08576 43.9862 4.25808 45.044C4.52908 46.9133 5.17292 48.7095 6.15152 50.3262C6.59731 51.1065 7.13945 51.8279 7.76525 52.4735C10.6415 55.104 14.455 56.4732 18.3513 56.2742H38.0173C41.9074 56.4746 45.7147 55.1049 48.5818 52.4735C49.2152 51.8292 49.7646 51.1077 50.2171 50.3262C51.2015 48.7083 51.8594 46.9139 52.1536 45.044C52.308 43.9844 52.3871 42.9153 52.3902 41.8446V29.1328C52.4638 26.6989 52.1069 24.2711 51.3359 21.9609Z"/>
</mask>
<path d="M51.3359 21.9609C50.9441 20.8368 50.3458 19.7955 49.5716 18.8903C49.3282 18.6044 49.0619 18.3387 48.7755 18.0958C46.2882 16.1395 43.1543 15.189 39.9968 15.4332H16.3288C10.6915 15.4332 7.24886 17.2584 5.57058 20.8443C5.00403 22.0062 4.60559 23.2425 4.38718 24.5161C4.38718 24.9885 4.23656 25.4609 4.17201 25.9548C4.05692 27.0102 3.99946 28.0711 3.99988 29.1328V41.8446C3.99941 42.9162 4.08576 43.9862 4.25808 45.044C4.52908 46.9133 5.17292 48.7095 6.15152 50.3262C6.59731 51.1065 7.13945 51.8279 7.76525 52.4735C10.6415 55.104 14.455 56.4732 18.3513 56.2742H38.0173C41.9074 56.4746 45.7147 55.1049 48.5818 52.4735C49.2152 51.8292 49.7646 51.1077 50.2171 50.3262C51.2015 48.7083 51.8594 46.9139 52.1536 45.044C52.308 43.9844 52.3871 42.9153 52.3902 41.8446V29.1328C52.4638 26.6989 52.1069 24.2711 51.3359 21.9609Z" fill="#8776EE" fill-opacity="0.42"/>
<path d="M51.3359 21.9609L51.8981 21.7733L51.8955 21.7658L51.3359 21.9609ZM49.5716 18.8903L49.1204 19.2745L49.1212 19.2755L49.5716 18.8903ZM48.7755 18.0958L49.1588 17.6438C49.1532 17.6391 49.1476 17.6345 49.1418 17.63L48.7755 18.0958ZM39.9968 15.4332V16.0258C40.012 16.0258 40.0273 16.0252 40.0425 16.0241L39.9968 15.4332ZM5.57058 20.8443L6.10332 21.1041L6.10733 21.0955L5.57058 20.8443ZM4.38718 24.5161L3.80308 24.416C3.7974 24.4491 3.79455 24.4826 3.79455 24.5161H4.38718ZM4.17201 25.9548L3.58425 25.878L3.58288 25.8906L4.17201 25.9548ZM3.99988 29.1328L4.59251 29.1328L4.59251 29.1325L3.99988 29.1328ZM3.99988 41.8446L4.59251 41.8448V41.8446H3.99988ZM4.25808 45.044L4.84466 44.9589L4.84299 44.9487L4.25808 45.044ZM6.15152 50.3262L6.66609 50.0323C6.66362 50.0279 6.66109 50.0236 6.65851 50.0194L6.15152 50.3262ZM7.76525 52.4735L7.33973 52.886C7.348 52.8945 7.35653 52.9028 7.3653 52.9108L7.76525 52.4735ZM18.3513 56.2742V55.6815C18.3412 55.6815 18.3312 55.6818 18.3211 55.6823L18.3513 56.2742ZM38.0173 56.2742L38.0478 55.6823C38.0376 55.6818 38.0275 55.6815 38.0173 55.6815V56.2742ZM48.5818 52.4735L48.9826 52.9101C48.99 52.9033 48.9973 52.8962 49.0045 52.889L48.5818 52.4735ZM50.2171 50.3262L49.7107 50.0181L49.7042 50.0293L50.2171 50.3262ZM52.1536 45.044L52.739 45.1361L52.74 45.1295L52.1536 45.044ZM52.3902 41.8446L52.9829 41.8463V41.8446H52.3902ZM52.3902 29.1328L51.7979 29.1149C51.7977 29.1208 51.7976 29.1268 51.7976 29.1328L52.3902 29.1328ZM51.8955 21.7658C51.4794 20.5721 50.844 19.4663 50.022 18.5051L49.1212 19.2755C49.8475 20.1247 50.4088 21.1016 50.7763 22.156L51.8955 21.7658ZM50.0228 18.5061C49.7586 18.1958 49.4697 17.9074 49.1588 17.6438L48.3922 18.5478C48.6542 18.77 48.8977 19.013 49.1204 19.2745L50.0228 18.5061ZM49.1418 17.63C46.5376 15.5818 43.2566 14.5867 39.9511 14.8423L40.0425 16.0241C43.0519 15.7913 46.0387 16.6973 48.4091 18.5616L49.1418 17.63ZM39.9968 14.8406H16.3288V16.0258H39.9968V14.8406ZM16.3288 14.8406C13.4511 14.8406 11.0805 15.3057 9.19598 16.266C7.29976 17.2323 5.92717 18.6843 5.03383 20.5931L6.10733 21.0955C6.89226 19.4184 8.08012 18.1649 9.73411 17.3221C11.3998 16.4733 13.5692 16.0258 16.3288 16.0258V14.8406ZM5.0379 20.5846C4.44675 21.797 4.03099 23.0869 3.80308 24.416L4.97128 24.6163C5.18019 23.398 5.56132 22.2155 6.10325 21.104L5.0379 20.5846ZM3.79455 24.5161C3.79455 24.6936 3.76611 24.8842 3.72174 25.116C3.68045 25.3317 3.61969 25.6079 3.58438 25.878L4.75964 26.0316C4.78888 25.8078 4.83571 25.6009 4.88586 25.3388C4.93293 25.0929 4.9798 24.8111 4.9798 24.5161H3.79455ZM3.58288 25.8906C3.46545 26.9674 3.40682 28.0498 3.40725 29.133L4.59251 29.1325C4.59209 28.0924 4.64839 27.053 4.76115 26.019L3.58288 25.8906ZM3.40725 29.1328V41.8446H4.59251V29.1328H3.40725ZM3.40725 41.8443C3.40677 42.948 3.49569 44.0499 3.67316 45.1393L4.84299 44.9487C4.67582 43.9225 4.59205 42.8845 4.59251 41.8448L3.40725 41.8443ZM3.67158 45.129C3.95398 47.0769 4.62487 48.9485 5.64453 50.6331L6.65851 50.0194C5.72097 48.4705 5.10419 46.7497 4.84457 44.959L3.67158 45.129ZM5.63695 50.6202C6.10735 51.4436 6.67942 52.2048 7.33973 52.886L8.19076 52.061C7.59948 51.4511 7.08726 50.7695 6.66609 50.0323L5.63695 50.6202ZM7.3653 52.9108C10.3587 55.6484 14.3271 57.0731 18.3815 56.866L18.3211 55.6823C14.5829 55.8732 10.9244 54.5596 8.1652 52.0362L7.3653 52.9108ZM18.3513 56.8668H38.0173V55.6815H18.3513V56.8668ZM37.9868 56.866C42.0354 57.0746 45.9982 55.6491 48.9826 52.9101L48.1811 52.0369C45.4312 54.5607 41.7793 55.8746 38.0478 55.6823L37.9868 56.866ZM49.0045 52.889C49.6728 52.2091 50.2525 51.4478 50.73 50.6232L49.7042 50.0293C49.2767 50.7677 48.7576 51.4493 48.1592 52.0581L49.0045 52.889ZM50.7234 50.6343C51.748 48.9503 52.4327 47.0825 52.739 45.1361L51.5681 44.9519C51.286 46.7453 50.655 48.4664 49.7108 50.0182L50.7234 50.6343ZM52.74 45.1295C52.8985 44.0422 52.9797 42.945 52.9829 41.8463L51.7976 41.8428C51.7946 42.8855 51.7176 43.9267 51.5671 44.9585L52.74 45.1295ZM52.9829 41.8446V29.1328H51.7976V41.8446H52.9829ZM52.9826 29.1507C53.0582 26.647 52.6911 24.1497 51.8981 21.7733L50.7738 22.1485C51.5227 24.3925 51.8693 26.7507 51.7979 29.1149L52.9826 29.1507Z" fill="url(#paint1_linear)" mask="url(#path-3-outside-1)"/>
</g>
<g filter="url(#filter2_bd)">
<path d="M27.6955 41.5718C27.2183 41.5718 26.8656 41.3954 26.6374 41.0428L22.2185 33.2318C21.9695 32.8791 21.7309 32.4538 21.5027 31.9559L21.3783 31.987C21.399 32.3397 21.4094 32.8687 21.4094 33.5741V46.2397C21.4094 46.8413 20.8596 47.1421 19.76 47.1421H19.0754C17.9759 47.1421 17.4261 46.8413 17.4261 46.2397V26.1366C17.4261 25.535 17.9759 25.2341 19.0754 25.2341H20.538C21.4301 25.2341 22.011 25.4831 22.2807 25.981L27.6955 35.5346C27.9029 35.8873 28.0689 36.2296 28.1934 36.5616C28.2764 36.2919 28.4423 35.9392 28.6913 35.5035L34.1372 25.981C34.4069 25.4831 34.9774 25.2341 35.8487 25.2341H37.2802C38.3798 25.2341 38.9295 25.535 38.9295 26.1366V46.2397C38.9295 46.8413 38.3798 47.1421 37.2802 47.1421H36.5956C35.496 47.1421 34.9463 46.8413 34.9463 46.2397V33.6364C34.9463 32.931 34.9566 32.402 34.9774 32.0493L34.8529 32.0182C34.6247 32.5161 34.3861 32.9414 34.1372 33.294L29.7493 41.0428C29.5211 41.3954 29.1684 41.5718 28.6913 41.5718H27.6955Z" fill="url(#paint2_linear)"/>
<path d="M26.6374 41.0428L25.7183 41.5627L25.7338 41.59L25.7509 41.6164L26.6374 41.0428ZM22.2185 33.2318L23.1375 32.7119L23.1116 32.6659L23.0812 32.6229L22.2185 33.2318ZM21.5027 31.9559L22.4627 31.5159L22.0973 30.7188L21.2466 30.9315L21.5027 31.9559ZM21.3783 31.987L21.1221 30.9626L20.2727 31.175L20.3241 32.049L21.3783 31.987ZM22.2807 25.981L21.3522 26.4839L21.3571 26.4929L21.3621 26.5017L22.2807 25.981ZM27.6955 35.5346L26.7768 36.0553L26.781 36.0627L26.7853 36.07L27.6955 35.5346ZM28.1934 36.5616L27.2047 36.9323L28.292 39.8318L29.2026 36.8721L28.1934 36.5616ZM28.6913 35.5035L27.7746 34.9793L27.7745 34.9796L28.6913 35.5035ZM34.1372 25.981L35.0538 26.5052L35.0599 26.4947L35.0657 26.4839L34.1372 25.981ZM34.9774 32.0493L36.0315 32.1113L36.0829 31.2372L35.2335 31.0249L34.9774 32.0493ZM34.8529 32.0182L35.109 30.9937L34.2583 30.7811L33.893 31.5782L34.8529 32.0182ZM34.1372 33.294L33.2745 32.6851L33.2442 32.728L33.2183 32.7737L34.1372 33.294ZM29.7493 41.0428L30.6359 41.6164L30.6528 41.5902L30.6682 41.5631L29.7493 41.0428ZM27.6955 40.5158C27.5868 40.5158 27.5474 40.4961 27.5453 40.4951C27.5436 40.4942 27.5436 40.4941 27.5429 40.4935C27.542 40.4926 27.5351 40.4863 27.524 40.4691L25.7509 41.6164C26.2028 42.3149 26.9173 42.6277 27.6955 42.6277V40.5158ZM27.5565 40.5228L23.1375 32.7119L21.2994 33.7518L25.7183 41.5627L27.5565 40.5228ZM23.0812 32.6229C22.8782 32.3353 22.6706 31.9696 22.4627 31.5159L20.5428 32.3959C20.7913 32.938 21.0609 33.4229 21.3558 33.8408L23.0812 32.6229ZM21.2466 30.9315L21.1221 30.9626L21.6344 33.0115L21.7588 32.9803L21.2466 30.9315ZM20.3241 32.049C20.343 32.3696 20.3534 32.8734 20.3534 33.5741H22.4653C22.4653 32.8641 22.455 32.3098 22.4324 31.925L20.3241 32.049ZM20.3534 33.5741V46.2397H22.4653V33.5741H20.3534ZM20.3534 46.2397C20.3534 46.2238 20.359 46.1598 20.4045 46.0851C20.4486 46.0127 20.4956 45.9872 20.4902 45.9902C20.4789 45.9963 20.4223 46.0232 20.2922 46.0469C20.1643 46.0702 19.9898 46.0862 19.76 46.0862V48.1981C20.3715 48.1981 20.9967 48.1204 21.5039 47.8429C21.7734 47.6954 22.0265 47.4819 22.2081 47.1839C22.391 46.8836 22.4653 46.5564 22.4653 46.2397H20.3534ZM19.76 46.0862H19.0754V48.1981H19.76V46.0862ZM19.0754 46.0862C18.8457 46.0862 18.6712 46.0702 18.5433 46.0469C18.4132 46.0232 18.3566 45.9963 18.3453 45.9902C18.3399 45.9872 18.3868 46.0127 18.431 46.0851C18.4765 46.1598 18.4821 46.2238 18.4821 46.2397H16.3701C16.3701 46.5564 16.4445 46.8836 16.6274 47.1839C16.809 47.4819 17.0621 47.6954 17.3316 47.8429C17.8388 48.1204 18.4639 48.1981 19.0754 48.1981V46.0862ZM18.4821 46.2397V26.1366H16.3701V46.2397H18.4821ZM18.4821 26.1366C18.4821 26.1525 18.4765 26.2165 18.431 26.2912C18.3868 26.3636 18.3399 26.3891 18.3453 26.3861C18.3566 26.3799 18.4132 26.3531 18.5433 26.3294C18.6712 26.3061 18.8457 26.2901 19.0754 26.2901V24.1782C18.4639 24.1782 17.8388 24.2559 17.3316 24.5334C17.0621 24.6809 16.809 24.8944 16.6274 25.1924C16.4445 25.4927 16.3701 25.8199 16.3701 26.1366H18.4821ZM19.0754 26.2901H20.538V24.1782H19.0754V26.2901ZM20.538 26.2901C20.8957 26.2901 21.1101 26.3414 21.2268 26.3914C21.3255 26.4337 21.3438 26.4685 21.3522 26.4839L23.2092 25.4781C22.6634 24.4705 21.5774 24.1782 20.538 24.1782V26.2901ZM21.3621 26.5017L26.7768 36.0553L28.6141 35.014L23.1994 25.4603L21.3621 26.5017ZM26.7853 36.07C26.9665 36.378 27.1045 36.6654 27.2047 36.9323L29.1821 36.1908C29.0333 35.7939 28.8394 35.3966 28.6056 34.9992L26.7853 36.07ZM29.2026 36.8721C29.2516 36.7128 29.3729 36.4391 29.6081 36.0274L27.7745 34.9796C27.5118 35.4393 27.3011 35.8709 27.1841 36.251L29.2026 36.8721ZM29.6079 36.0277L35.0538 26.5052L33.2205 25.4568L27.7746 34.9793L29.6079 36.0277ZM35.0657 26.4839C35.0771 26.4629 35.0975 26.4289 35.1897 26.3887C35.2997 26.3407 35.5043 26.2901 35.8487 26.2901V24.1782C34.8171 24.1782 33.7505 24.4778 33.2087 25.4781L35.0657 26.4839ZM35.8487 26.2901H37.2802V24.1782H35.8487V26.2901ZM37.2802 26.2901C37.51 26.2901 37.6845 26.3061 37.8123 26.3294C37.9424 26.3531 37.9991 26.3799 38.0103 26.3861C38.0157 26.3891 37.9688 26.3636 37.9247 26.2912C37.8792 26.2165 37.8736 26.1525 37.8736 26.1366H39.9855C39.9855 25.8199 39.9112 25.4927 39.7282 25.1924C39.5467 24.8944 39.2936 24.6809 39.0241 24.5334C38.5169 24.2559 37.8917 24.1782 37.2802 24.1782V26.2901ZM37.8736 26.1366V46.2397H39.9855V26.1366H37.8736ZM37.8736 46.2397C37.8736 46.2238 37.8792 46.1598 37.9247 46.0851C37.9688 46.0127 38.0157 45.9872 38.0103 45.9902C37.9991 45.9963 37.9424 46.0232 37.8123 46.0469C37.6845 46.0702 37.51 46.0862 37.2802 46.0862V48.1981C37.8917 48.1981 38.5169 48.1204 39.0241 47.8429C39.2936 47.6954 39.5467 47.4819 39.7282 47.1839C39.9112 46.8836 39.9855 46.5564 39.9855 46.2397H37.8736ZM37.2802 46.0862H36.5956V48.1981H37.2802V46.0862ZM36.5956 46.0862C36.3658 46.0862 36.1913 46.0702 36.0635 46.0469C35.9334 46.0232 35.8767 45.9963 35.8655 45.9902C35.8601 45.9872 35.907 46.0127 35.9511 46.0851C35.9966 46.1598 36.0022 46.2238 36.0022 46.2397H33.8903C33.8903 46.5564 33.9646 46.8836 34.1476 47.1839C34.3291 47.4819 34.5822 47.6954 34.8517 47.8429C35.3589 48.1204 35.9841 48.1981 36.5956 48.1981V46.0862ZM36.0022 46.2397V33.6364H33.8903V46.2397H36.0022ZM36.0022 33.6364C36.0022 32.9356 36.0127 32.4319 36.0315 32.1113L33.9233 31.9873C33.9006 32.3721 33.8903 32.9264 33.8903 33.6364H36.0022ZM35.2335 31.0249L35.109 30.9937L34.5968 33.0426L34.7213 33.0737L35.2335 31.0249ZM33.893 31.5782C33.6851 32.0318 33.4775 32.3976 33.2745 32.6851L34.9998 33.903C35.2948 33.4852 35.5643 33.0003 35.8128 32.4581L33.893 31.5782ZM33.2183 32.7737L28.8305 40.5224L30.6682 41.5631L35.056 33.8144L33.2183 32.7737ZM28.8628 40.4691C28.8517 40.4863 28.8448 40.4926 28.8438 40.4935C28.8432 40.4941 28.8432 40.4942 28.8414 40.4951C28.8394 40.4961 28.7999 40.5158 28.6913 40.5158V42.6277C29.4694 42.6277 30.1839 42.3149 30.6359 41.6164L28.8628 40.4691ZM28.6913 40.5158H27.6955V42.6277H28.6913V40.5158Z" fill="url(#paint3_linear)"/>
</g>
<defs>
<filter id="filter0_f" x="20.1485" y="2.81184" width="43.6662" height="46.5425" filterUnits="userSpaceOnUse" color-interpolation-filters="sRGB">
<feFlood flood-opacity="0" result="BackgroundImageFix"/>
<feBlend mode="normal" in="SourceGraphic" in2="BackgroundImageFix" result="shape"/>
<feGaussianBlur stdDeviation="4.4447" result="effect1_foregroundBlur"/>
</filter>
<filter id="filter1_b" x="-5.48217" y="5.91352" width="67.3639" height="59.8619" filterUnits="userSpaceOnUse" color-interpolation-filters="sRGB">
<feFlood flood-opacity="0" result="BackgroundImageFix"/>
<feGaussianBlur in="BackgroundImage" stdDeviation="4.4447"/>
<feComposite in2="SourceAlpha" operator="in" result="effect1_backgroundBlur"/>
<feBlend mode="normal" in="SourceGraphic" in2="effect1_backgroundBlur" result="shape"/>
</filter>
<filter id="filter2_bd" x="-22.1721" y="-14.3641" width="100.7" height="101.104" filterUnits="userSpaceOnUse" color-interpolation-filters="sRGB">
<feFlood flood-opacity="0" result="BackgroundImageFix"/>
<feGaussianBlur in="BackgroundImage" stdDeviation="19.7991"/>
<feComposite in2="SourceAlpha" operator="in" result="effect1_backgroundBlur"/>
<feColorMatrix in="SourceAlpha" type="matrix" values="0 0 0 0 0 0 0 0 0 0 0 0 0 0 0 0 0 0 127 0" result="hardAlpha"/>
<feOffset dx="13.1994" dy="13.1994"/>
<feGaussianBlur stdDeviation="13.1994"/>
<feColorMatrix type="matrix" values="0 0 0 0 0.529412 0 0 0 0 0.462745 0 0 0 0 0.933333 0 0 0 0.5 0"/>
<feBlend mode="normal" in2="effect1_backgroundBlur" result="effect2_dropShadow"/>
<feBlend mode="normal" in="SourceGraphic" in2="effect2_dropShadow" result="shape"/>
</filter>
<linearGradient id="paint0_linear" x1="19.4235" y1="19.3073" x2="46.8881" y2="75.8827" gradientUnits="userSpaceOnUse">
<stop stop-color="#8776EE"/>
<stop offset="1" stop-color="#5E48E8"/>
</linearGradient>
<linearGradient id="paint1_linear" x1="11.7043" y1="20.1602" x2="36.5535" y2="56.5819" gradientUnits="userSpaceOnUse">
<stop stop-color="white" stop-opacity="0.25"/>
<stop offset="1" stop-color="white" stop-opacity="0"/>
</linearGradient>
<linearGradient id="paint2_linear" x1="39.9419" y1="25.7568" x2="10.1034" y2="26.5855" gradientUnits="userSpaceOnUse">
<stop stop-color="white"/>
<stop offset="1" stop-color="white" stop-opacity="0.2"/>
</linearGradient>
<linearGradient id="paint3_linear" x1="19.3239" y1="23.7423" x2="39.8084" y2="45.3543" gradientUnits="userSpaceOnUse">
<stop stop-color="white" stop-opacity="0.25"/>
<stop offset="1" stop-color="white" stop-opacity="0"/>
</linearGradient>
</defs>
</svg>
