<svg width="532" height="367" viewBox="0 0 532 367" fill="none" xmlns="http://www.w3.org/2000/svg">
<g clip-path="url(#clip0)">
<path d="M532.003 366.923H0C5.8291 352.023 16.5945 339.384 31.7699 335.634C53.9696 330.157 77.4624 345.22 99.6122 339.555C112.196 336.34 122.103 326.974 132.514 319.193C171.79 289.847 225.608 281.172 272.083 296.707C296.375 304.822 318.51 319.015 343.395 325.046C375.574 332.852 409.225 326.379 442.317 325.312C474.545 324.277 520.723 337.439 532.003 366.923Z" fill="#FAFCFE"/>
<path d="M445.472 255.773C441.671 267.317 428.549 277.575 432.469 286.065C433.96 289.292 435.457 292.668 436.146 296.115C436.593 298.171 436.668 300.291 436.366 302.373C434.952 311.363 426.559 317.335 418.753 321.984C418.272 322.27 417.785 322.562 417.298 322.854C409.902 327.295 402.156 332.409 399.78 340.608C398.462 345.162 399.044 350.032 398.497 354.742C397.98 359.07 396.513 363.23 394.203 366.923H344.358C339.933 362.035 340.301 353.819 343.669 348.056C347.275 341.888 353.364 337.696 358.858 333.136C363.605 329.194 368.232 324.449 370.044 318.662C370.332 317.746 370.544 316.809 370.679 315.858C371.119 312.726 370.881 296.729 376.299 286.881C384.674 271.675 398.26 275.42 402.412 266.841C404.004 263.554 405.376 223.17 431.84 230.63C434.42 231.322 436.833 232.533 438.931 234.19C441.03 235.846 442.769 237.914 444.045 240.266C445.32 242.618 446.105 245.206 446.35 247.872C446.595 250.538 446.297 253.226 445.472 255.773V255.773Z" fill="#D6D8E7"/>
<path d="M493.879 318.918C493.119 319.442 492.302 319.877 491.443 320.216C484.303 322.901 464.445 322.603 461.54 329.67C460.174 332.992 459.847 336.66 458.677 340.059C456.022 347.769 449.012 353.551 441.171 355.724C438.35 356.504 435.427 356.867 432.635 357.736C427.242 359.421 422.775 362.809 418.848 366.923H354.474C354.446 362.644 355.496 358.427 357.527 354.664C359.558 350.9 362.505 347.712 366.093 345.394C373.251 340.869 382.292 340.024 389.32 335.296C393.953 332.177 397.285 327.67 399.929 322.686C401.61 319.426 403.096 316.068 404.378 312.63C406.344 307.516 408.399 302.027 412.866 298.859C415.057 297.433 417.485 296.412 420.036 295.847C426.487 294.156 431.447 295.15 436.146 296.115C441.849 297.282 447.171 298.395 454.317 294.591C466.993 287.839 485.527 254.171 504.048 286.16C511.473 298.99 501.227 313.988 493.879 318.918Z" fill="#64DCBF"/>
<path d="M90.1684 255.773C93.9701 267.317 107.092 277.575 103.171 286.065C101.681 289.292 100.184 292.668 99.4945 296.115C99.0474 298.171 98.973 300.291 99.2747 302.373C100.688 311.363 109.082 317.335 116.887 321.984C117.369 322.27 117.856 322.562 118.343 322.854C125.738 327.295 133.484 332.409 135.86 340.608C137.179 345.162 136.597 350.032 137.143 354.742C137.661 359.07 139.128 363.23 141.438 366.923H191.282C195.708 362.035 195.339 353.819 191.971 348.056C188.366 341.888 182.277 337.696 176.782 333.136C172.036 329.194 167.409 324.449 165.597 318.662C165.309 317.746 165.096 316.809 164.961 315.858C164.522 312.726 164.759 296.729 159.342 286.881C150.966 271.675 137.381 275.42 133.229 266.841C131.637 263.554 130.265 223.17 103.801 230.63C101.221 231.322 98.8079 232.533 96.7095 234.19C94.6111 235.846 92.8712 237.914 91.5958 240.266C90.3203 242.618 89.536 245.206 89.2906 247.872C89.0452 250.538 89.3439 253.226 90.1684 255.773V255.773Z" fill="#D6D8E7"/>
<path d="M41.7595 318.918C42.5193 319.442 43.3364 319.877 44.195 320.216C51.3351 322.901 71.1931 322.603 74.0978 329.67C75.4641 332.992 75.7908 336.66 76.961 340.059C79.6163 347.769 86.6257 353.551 94.4667 355.724C97.2883 356.504 100.211 356.867 103.003 357.736C108.396 359.421 112.863 362.809 116.79 366.923H181.164C181.192 362.644 180.142 358.427 178.111 354.664C176.08 350.9 173.133 347.712 169.545 345.394C162.387 340.869 153.346 340.024 146.319 335.296C141.685 332.177 138.353 327.67 135.709 322.686C134.028 319.426 132.542 316.068 131.26 312.63C129.294 307.516 127.239 302.027 122.772 298.859C120.581 297.433 118.153 296.412 115.602 295.847C109.151 294.156 104.191 295.15 99.4921 296.115C93.7896 297.282 88.4672 298.395 81.3211 294.591C68.6448 287.839 50.1114 254.171 31.5899 286.16C24.167 298.99 34.4138 313.988 41.7595 318.918Z" fill="#64DCBF"/>
<path d="M342.514 5.25305H196.742C185.579 5.25305 176.53 14.323 176.53 25.5113V341.488C176.53 352.677 185.579 361.746 196.742 361.746H342.514C353.676 361.746 362.726 352.677 362.726 341.488V25.5113C362.726 14.323 353.676 5.25305 342.514 5.25305Z" fill="#FAFCFE"/>
<path d="M342.514 367H196.742C189.994 366.992 183.524 364.301 178.753 359.519C173.981 354.736 171.297 348.252 171.289 341.488V25.5118C171.297 18.7483 173.981 12.264 178.753 7.48135C183.524 2.6987 189.994 0.00819363 196.742 0L342.514 0C349.262 0.00819363 355.732 2.6987 360.503 7.48135C365.275 12.264 367.959 18.7483 367.967 25.5118V341.488C367.959 348.252 365.275 354.736 360.503 359.519C355.732 364.301 349.262 366.992 342.514 367V367ZM196.742 10.5066C192.773 10.5107 188.967 12.0928 186.16 14.9059C183.353 17.7191 181.774 21.5333 181.77 25.5118V341.488C181.775 345.466 183.353 349.279 186.159 352.092C188.966 354.904 192.77 356.487 196.739 356.492H342.511C346.48 356.487 350.284 354.904 353.091 352.092C355.897 349.279 357.475 345.466 357.48 341.488V25.5118C357.475 21.5341 355.897 17.7208 353.091 14.9082C350.284 12.0955 346.48 10.5132 342.511 10.5084L196.742 10.5066Z" fill="#D6D8E7"/>
<path d="M237.71 5.25305H301.545V17.6672C301.545 18.8874 301.306 20.0957 300.84 21.223C300.374 22.3503 299.691 23.3746 298.83 24.2374C297.969 25.1002 296.947 25.7846 295.822 26.2515C294.697 26.7184 293.492 26.9587 292.274 26.9586H246.981C244.522 26.9586 242.164 25.9796 240.425 24.237C238.686 22.4945 237.71 20.131 237.71 17.6666V5.25305H237.71Z" fill="#D6D8E7"/>
<path d="M300.199 81.9945C300.199 88.0547 298.405 93.9786 295.045 99.0172C291.686 104.056 286.911 107.983 281.324 110.301C275.738 112.62 269.591 113.226 263.661 112.043C257.731 110.86 252.284 107.941 248.009 103.656C243.734 99.3702 240.823 93.9102 239.644 87.9663C238.465 82.0225 239.071 75.8616 241.385 70.263C243.699 64.6643 247.618 59.8792 252.646 56.5128C257.674 53.1465 263.585 51.35 269.631 51.3506C273.65 51.3353 277.632 52.1175 281.348 53.6522C285.064 55.1869 288.44 57.4436 291.282 60.2923C294.124 63.1409 296.375 66.5252 297.905 70.25C299.435 73.9747 300.215 77.9663 300.199 81.9945V81.9945Z" fill="#D6D8E7"/>
<path d="M269.628 85.1518C276.313 85.1518 281.732 79.7202 281.732 73.0199C281.732 66.3196 276.313 60.8879 269.628 60.8879C262.943 60.8879 257.524 66.3196 257.524 73.0199C257.524 79.7202 262.943 85.1518 269.628 85.1518Z" fill="white"/>
<path d="M291.657 103.238C288.806 106.21 285.385 108.575 281.6 110.19C277.815 111.805 273.743 112.638 269.629 112.639C265.515 112.639 261.444 111.808 257.658 110.193C253.873 108.579 250.451 106.215 247.599 103.244C251.721 94.0097 260.044 87.6987 269.631 87.6987C279.219 87.6987 287.535 94.0031 291.657 103.238Z" fill="white"/>
<path d="M334.036 134.727H205.219V162.893H334.036V134.727Z" fill="#5E48E8"/>
<path d="M334.036 183.407H205.219V211.573H334.036V183.407Z" fill="#D6D8E7"/>
<path d="M424.995 119.939C424.995 119.939 420.219 117.883 420.219 105.304L410.616 104.324C410.616 104.324 412.595 115.439 408.101 119.387L424.995 119.939Z" fill="#EDA59F"/>
<path d="M425.19 100.018C424.845 103.863 423.075 107.622 419.839 109.121C416.321 110.866 412.43 111.723 408.506 111.615C398.082 111.615 398.2 87.8486 402.741 82.8581C407.282 77.8677 421.947 79.5878 424.329 87.1097C425.559 91.0035 425.517 96.3589 425.19 100.018Z" fill="#EDA59F"/>
<path d="M410.068 98.3182C410.543 98.3182 410.928 97.9319 410.928 97.4555C410.928 96.979 410.543 96.5928 410.068 96.5928C409.592 96.5928 409.207 96.979 409.207 97.4555C409.207 97.9319 409.592 98.3182 410.068 98.3182Z" fill="#ED84A0"/>
<path d="M411.759 95.7468C411.738 95.7467 411.717 95.7451 411.696 95.7421L409.412 95.3848C409.358 95.3784 409.306 95.3611 409.259 95.3341C409.211 95.307 409.17 95.2707 409.137 95.2273C409.105 95.1839 409.081 95.1343 409.067 95.0815C409.054 95.0287 409.052 94.9738 409.06 94.92C409.068 94.8662 409.087 94.8146 409.116 94.7683C409.145 94.7221 409.182 94.6821 409.227 94.6507C409.271 94.6194 409.321 94.5973 409.375 94.5859C409.428 94.5744 409.483 94.5738 409.536 94.5841L411.821 94.9413C411.921 94.9568 412.012 95.0098 412.075 95.0896C412.139 95.1694 412.17 95.2702 412.162 95.3718C412.155 95.4735 412.109 95.5686 412.035 95.6382C411.961 95.7078 411.863 95.7468 411.761 95.7474L411.759 95.7468Z" fill="#ED84A0"/>
<path d="M403.318 101.117C403.318 102.087 403.703 103.017 404.387 103.703C405.071 104.389 406 104.774 406.967 104.774C407.935 104.774 408.863 104.389 409.548 103.703C410.232 103.017 410.616 102.087 410.616 101.117C410.633 100.163 410.27 99.2422 409.609 98.5564C408.947 97.8705 408.041 97.476 407.09 97.4597C407.049 97.4597 407.008 97.4597 406.967 97.4597C404.369 97.5877 403.318 99.097 403.318 101.117Z" fill="#EDA59F"/>
<path d="M403.288 92.5146C401.265 92.4987 399.246 92.3281 397.249 92.0044C397.249 92.0044 397.86 76.5705 414.213 77.4504C416.337 77.3532 418.464 77.4791 420.562 77.8261C425.477 78.581 432.445 83.6179 433.57 96.2232C434.086 102.006 436.075 107.457 437.593 110.909C437.772 111.314 437.847 111.758 437.812 112.199C437.777 112.641 437.633 113.067 437.392 113.439C437.151 113.811 436.821 114.116 436.433 114.328C436.044 114.54 435.609 114.651 435.167 114.651L400.131 114.371C399.717 114.372 399.308 114.275 398.938 114.088C398.568 113.902 398.246 113.631 397.999 113.298C397.752 112.965 397.586 112.579 397.515 112.17C397.443 111.761 397.468 111.341 397.588 110.943C399.493 104.617 402.982 100.74 403.288 92.5146Z" fill="#0F1011"/>
<path d="M341.758 157.655C341.758 157.655 333.323 155.311 332.111 153.695C330.899 152.079 333.845 146.641 333.845 146.641C333.845 146.641 325.41 143.18 326.221 141.813C327.18 140.2 337.713 145.973 337.713 145.973C337.713 145.973 335.421 143.259 336.542 142.541C337.003 142.244 337.603 142.568 339.315 144.45C341.265 146.593 344.638 149.635 344.638 149.635L341.758 157.655Z" fill="#EDA59F"/>
<path d="M383.726 360.484C382.411 349.399 382.411 348.259 382.411 347.884H394.886C394.886 347.846 394.886 347.797 394.886 347.738C394.93 348.664 395.559 354.308 396.116 359.008L383.726 360.484Z" fill="#EDA59F"/>
<path d="M433.429 361.978C433.429 361.978 433.388 349.03 433.388 347.884H445.862C445.862 349.027 445.904 361.935 445.904 361.935L433.429 361.978Z" fill="#EDA59F"/>
<path d="M451.497 204.15C451.497 205.924 450.563 211.855 452.066 212.279C452.968 212.534 454.032 208.112 454.032 208.112" fill="#EDA59F"/>
<path d="M458.595 203.218C458.595 203.218 463.504 215.194 457.905 222.073C457.762 222.249 457.57 222.377 457.353 222.441C457.137 222.505 456.906 222.502 456.691 222.432C456.477 222.363 456.288 222.23 456.15 222.051C456.011 221.872 455.93 221.656 455.917 221.43C455.645 216.791 454.712 207.263 451.66 208.376V200.896" fill="#EDA59F"/>
<path d="M444.095 280.7C442.89 262.017 440.809 230.677 439.787 212.288H439.956L438.197 182.698L393.006 185.494L392.542 188.667L392.384 188.62C387.087 216.759 384.828 247.878 380.534 276.22C380.232 302.482 380.149 329.964 379.124 356.162L401.103 356.537C401.034 330.945 401.665 304.19 402.418 278.557C405.864 258.463 410.703 236.166 414.587 216.292C418.1 255.01 423.338 318.441 427.223 357.682L449.124 355.827L444.095 280.7Z" fill="#489BE8"/>
<path d="M418.267 366.813C417.946 366.812 417.629 366.747 417.334 366.623C417.039 366.498 416.77 366.317 416.545 366.089C416.319 365.861 416.141 365.59 416.02 365.293C415.899 364.996 415.837 364.677 415.839 364.356C415.839 364.296 415.841 364.237 415.846 364.177C415.882 363.713 416.05 363.268 416.329 362.896C416.609 362.524 416.989 362.239 417.425 362.076L431.944 357.202C432.225 357.109 432.523 357.078 432.818 357.11C433.112 357.143 433.396 357.239 433.65 357.392C435.646 358.78 438.034 359.49 440.462 359.416C442.354 359.282 444.169 358.617 445.702 357.498C445.836 357.387 446 357.317 446.173 357.296C446.346 357.275 446.521 357.303 446.678 357.378C446.836 357.453 446.969 357.571 447.062 357.719C447.155 357.867 447.204 358.038 447.203 358.212V365.328C447.203 365.751 447.036 366.157 446.737 366.456C446.439 366.755 446.034 366.923 445.612 366.923H445.606L418.267 366.813Z" fill="#0F1011"/>
<path d="M368.529 366.813C368.209 366.812 367.892 366.747 367.596 366.623C367.301 366.498 367.032 366.317 366.807 366.089C366.581 365.861 366.403 365.59 366.282 365.293C366.161 364.996 366.099 364.677 366.101 364.356C366.101 364.297 366.103 364.237 366.108 364.177C366.144 363.713 366.312 363.268 366.592 362.896C366.871 362.524 367.252 362.239 367.687 362.076L382.206 357.202C382.488 357.109 382.786 357.077 383.08 357.11C383.375 357.143 383.659 357.239 383.913 357.392C385.909 358.78 388.296 359.49 390.724 359.416C392.616 359.282 394.432 358.617 395.964 357.498C396.099 357.387 396.262 357.317 396.435 357.296C396.608 357.274 396.784 357.303 396.941 357.378C397.098 357.453 397.231 357.571 397.324 357.719C397.417 357.866 397.466 358.038 397.465 358.212V365.328C397.465 365.751 397.298 366.157 396.999 366.456C396.701 366.755 396.296 366.923 395.875 366.923H395.868L368.529 366.813Z" fill="#0F1011"/>
<path d="M455.862 166.38C455.797 165.941 455.687 165.509 455.534 165.092L441.9 127.933L441.818 127.963C441.225 126.133 440.202 124.473 438.835 123.123C436.121 120.403 431.422 118.643 425.698 118.643C417.177 118.643 405.54 118.661 403.155 118.762C395.869 119.075 392.463 122.348 391.07 127.183L374.032 157.84L344.484 146.822L340.135 158.54L374.699 171.431C376.096 171.953 377.633 171.956 379.032 171.439C380.431 170.923 381.598 169.92 382.323 168.615L391.831 151.505C392.083 153.938 392.271 156.328 392.297 158.606C392.526 177.937 387.318 181.578 389.885 187.487C392.376 193.218 441.28 195.602 441.934 185.513C442.35 179.096 436.707 173.492 436.707 160.984C436.754 158.607 437.067 156.243 437.641 153.936L443.148 168.943L448.553 205.443L461.366 203.538L455.862 166.38Z" fill="#ED84A0"/>
<path d="M269.628 327.414C292.215 327.414 310.525 309.062 310.525 286.424C310.525 263.786 292.215 245.434 269.628 245.434C247.041 245.434 228.731 263.786 228.731 286.424C228.731 309.062 247.041 327.414 269.628 327.414Z" fill="#D6D8E7"/>
<path d="M244.194 268.164C239.503 305.337 270.278 315.469 270.278 315.469C270.278 315.469 298.534 304.692 295.287 268.256C295.287 268.256 278.797 271.736 270.278 259.276C270.278 259.277 264.016 271.354 244.194 268.164Z" fill="white"/>
<path d="M278.305 282.788H277.069V280.02C277.052 278.054 276.26 276.174 274.866 274.79C273.473 273.405 271.59 272.629 269.628 272.629C267.666 272.629 265.784 273.405 264.39 274.79C262.996 276.174 262.205 278.054 262.187 280.02V282.788H260.952C260.388 282.788 259.846 283.012 259.446 283.413C259.047 283.813 258.823 284.356 258.823 284.922V298.836C258.823 299.403 259.047 299.945 259.446 300.346C259.846 300.746 260.388 300.971 260.952 300.971H278.306C278.871 300.971 279.412 300.746 279.812 300.346C280.211 299.945 280.436 299.403 280.436 298.836V284.922C280.436 284.642 280.38 284.364 280.273 284.105C280.166 283.846 280.009 283.611 279.811 283.412C279.614 283.214 279.379 283.057 279.12 282.95C278.862 282.843 278.585 282.787 278.305 282.788V282.788ZM264.606 280.02C264.621 278.695 265.156 277.428 266.096 276.496C267.036 275.564 268.306 275.041 269.628 275.041C270.951 275.041 272.22 275.564 273.16 276.496C274.101 277.428 274.636 278.695 274.65 280.02V282.788H264.606V280.02Z" fill="#5E48E8"/>
<path d="M217.96 153.353C220.463 153.353 222.493 151.319 222.493 148.81C222.493 146.301 220.463 144.268 217.96 144.268C215.457 144.268 213.428 146.301 213.428 148.81C213.428 151.319 215.457 153.353 217.96 153.353Z" fill="white"/>
<path d="M231.568 153.353C234.071 153.353 236.1 151.319 236.1 148.81C236.1 146.301 234.071 144.268 231.568 144.268C229.065 144.268 227.036 146.301 227.036 148.81C227.036 151.319 229.065 153.353 231.568 153.353Z" fill="white"/>
<path d="M245.177 153.353C247.68 153.353 249.709 151.319 249.709 148.81C249.709 146.301 247.68 144.268 245.177 144.268C242.673 144.268 240.644 146.301 240.644 148.81C240.644 151.319 242.673 153.353 245.177 153.353Z" fill="white"/>
<path d="M258.785 153.353C261.288 153.353 263.317 151.319 263.317 148.81C263.317 146.301 261.288 144.268 258.785 144.268C256.282 144.268 254.252 146.301 254.252 148.81C254.252 151.319 256.282 153.353 258.785 153.353Z" fill="white"/>
<path d="M272.393 153.353C274.896 153.353 276.925 151.319 276.925 148.81C276.925 146.301 274.896 144.268 272.393 144.268C269.89 144.268 267.86 146.301 267.86 148.81C267.86 151.319 269.89 153.353 272.393 153.353Z" fill="white"/>
<path d="M286.001 153.353C288.504 153.353 290.533 151.319 290.533 148.81C290.533 146.301 288.504 144.268 286.001 144.268C283.498 144.268 281.469 146.301 281.469 148.81C281.469 151.319 283.498 153.353 286.001 153.353Z" fill="white"/>
<path d="M299.124 153.353C301.627 153.353 303.656 151.319 303.656 148.81C303.656 146.301 301.627 144.268 299.124 144.268C296.62 144.268 294.591 146.301 294.591 148.81C294.591 151.319 296.62 153.353 299.124 153.353Z" fill="white"/>
<path d="M217.96 202.033C220.463 202.033 222.493 199.999 222.493 197.49C222.493 194.982 220.463 192.948 217.96 192.948C215.457 192.948 213.428 194.982 213.428 197.49C213.428 199.999 215.457 202.033 217.96 202.033Z" fill="white"/>
<path d="M231.568 202.033C234.071 202.033 236.1 199.999 236.1 197.49C236.1 194.982 234.071 192.948 231.568 192.948C229.065 192.948 227.036 194.982 227.036 197.49C227.036 199.999 229.065 202.033 231.568 202.033Z" fill="white"/>
<path d="M245.177 202.033C247.68 202.033 249.709 199.999 249.709 197.49C249.709 194.982 247.68 192.948 245.177 192.948C242.673 192.948 240.644 194.982 240.644 197.49C240.644 199.999 242.673 202.033 245.177 202.033Z" fill="white"/>
<path d="M258.785 202.033C261.288 202.033 263.317 199.999 263.317 197.49C263.317 194.982 261.288 192.948 258.785 192.948C256.282 192.948 254.252 194.982 254.252 197.49C254.252 199.999 256.282 202.033 258.785 202.033Z" fill="white"/>
<path d="M272.393 202.033C274.896 202.033 276.925 199.999 276.925 197.49C276.925 194.982 274.896 192.948 272.393 192.948C269.89 192.948 267.86 194.982 267.86 197.49C267.86 199.999 269.89 202.033 272.393 202.033Z" fill="white"/>
<path d="M286.001 202.033C288.504 202.033 290.533 199.999 290.533 197.49C290.533 194.982 288.504 192.948 286.001 192.948C283.498 192.948 281.469 194.982 281.469 197.49C281.469 199.999 283.498 202.033 286.001 202.033Z" fill="white"/>
</g>
<defs>
<clipPath id="clip0">
<rect width="532" height="367" fill="white"/>
</clipPath>
</defs>
</svg>
