<svg width="22" height="22" viewBox="0 0 22 22" fill="none" xmlns="http://www.w3.org/2000/svg">
<path d="M11.2625 1C14.3012 1 16.3975 2.3594 17.4435 3.19716L15.214 5.41499C14.4828 4.85635 13.1331 4.07484 11.3572 4.07484C9.53276 4.07484 7.67833 4.7564 6.4327 6.00972C5.2058 7.2442 4.36547 9.11127 4.36546 10.9925L4.36548 10.9959C4.37172 11.9251 4.56117 12.8439 4.92299 13.6998C5.28481 14.5557 5.81189 15.3319 6.47406 15.9838L6.47689 15.9866C7.73922 17.2098 9.6272 17.9608 11.4247 17.9608C13.8904 17.9608 16.9623 16.3408 17.6299 13.1707L17.7569 12.5677H17.1406H11.8028V9.43234H20.6776L20.6888 9.48015C20.7048 9.57964 20.8008 10.2197 20.8008 11.255C20.8008 13.8923 19.9084 16.3834 18.2116 18.1715C16.4824 19.9912 14.0506 21 11.4748 21C8.62054 21 5.86698 19.9437 3.93191 17.946C2.12189 16.0736 1.19922 13.5112 1.19922 11C1.19922 8.489 2.17634 5.78915 4.04102 3.93468L4.04141 3.93429C5.93995 2.042 8.54188 1 11.2625 1Z" fill="#8C8CA2" stroke="#8C8CA2"/>
</svg>
