<svg width="601" height="561" viewBox="0 0 601 561" fill="none" xmlns="http://www.w3.org/2000/svg">
<path d="M355.705 269.981L331.646 263.186L338.441 239.127C340.243 232.746 339.437 225.911 336.199 220.125C332.961 214.339 327.558 210.075 321.177 208.273C314.796 206.471 307.961 207.278 302.175 210.515C296.389 213.753 292.125 219.156 290.323 225.537L283.528 249.596L259.469 242.801C253.088 240.998 246.253 241.805 240.467 245.042C234.681 248.28 230.418 253.684 228.615 260.064C226.813 266.445 227.62 273.28 230.857 279.067C234.095 284.853 239.498 289.116 245.879 290.918L269.938 297.713L263.143 321.772C261.341 328.153 262.147 334.988 265.384 340.775C268.622 346.561 274.026 350.824 280.406 352.626C286.787 354.428 293.623 353.622 299.409 350.384C305.195 347.147 309.458 341.743 311.26 335.362L318.055 311.304L342.114 318.099C348.495 319.901 355.33 319.095 361.117 315.857C366.903 312.619 371.166 307.216 372.968 300.835C374.77 294.454 373.964 287.619 370.726 281.833C367.489 276.046 362.085 271.783 355.705 269.981ZM544.678 167.486C526.195 134.852 496.656 109.898 461.392 97.127C426.128 84.3565 387.46 84.6106 352.367 97.8434C328.186 66.4293 293.001 45.3438 253.897 38.8331C214.793 32.3224 174.674 40.87 141.619 62.7547C108.565 84.6394 85.03 118.236 75.7543 156.778C66.4786 195.32 72.1509 235.945 91.6291 270.473L194.871 456.799C204.587 474.138 220.787 486.911 239.914 492.313C259.041 497.715 279.53 495.305 296.881 485.61L482.344 380.826C500.484 370.951 516.494 357.588 529.454 341.506C542.413 325.423 552.066 306.939 557.859 287.114C563.651 267.289 565.469 246.514 563.207 225.984C560.945 205.455 554.648 185.575 544.678 167.486ZM460.063 337.384L274.939 440.966C272.066 442.589 268.899 443.628 265.623 444.021C262.346 444.414 259.024 444.155 255.848 443.258C252.672 442.361 249.705 440.844 247.118 438.794C244.531 436.745 242.376 434.204 240.776 431.317L137.194 246.193C123.773 221.577 120.525 192.685 128.146 165.704C135.766 138.723 153.649 115.798 177.965 101.84C202.553 88.2881 231.49 84.9679 258.509 92.599C285.527 100.23 308.452 118.198 322.317 142.611C323.917 145.498 326.072 148.039 328.659 150.089C331.246 152.138 334.213 153.655 337.389 154.552C340.565 155.449 343.887 155.709 347.164 155.315C350.441 154.922 353.607 153.884 356.481 152.26C381.069 138.708 410.006 135.388 437.025 143.019C464.044 150.65 486.968 168.618 500.834 193.031C514.393 217.709 517.703 246.73 510.05 273.828C502.396 300.926 484.393 323.927 459.927 337.865L460.063 337.384Z" fill="#5E48E8"/>
</svg>
