<svg width="453" height="426" viewBox="0 0 453 426" fill="none" xmlns="http://www.w3.org/2000/svg">
<path d="M226.5 425.53C351.592 425.53 453 366.734 453 294.206C453 221.677 351.592 162.881 226.5 162.881C101.407 162.881 0 221.677 0 294.206C0 366.734 101.407 425.53 226.5 425.53Z" fill="#FAFAFA"/>
<path d="M350.574 378.706C375.636 378.706 395.952 366.929 395.952 352.401C395.952 337.873 375.636 326.096 350.574 326.096C325.513 326.096 305.197 337.873 305.197 352.401C305.197 366.929 325.513 378.706 350.574 378.706Z" fill="#E0E0E0"/>
<path d="M55.5804 340.614L18.3732 319.045C16.2742 317.826 16.2742 315.86 18.3732 314.641L234.802 189.157C235.981 188.563 237.281 188.254 238.6 188.254C239.919 188.254 241.219 188.563 242.398 189.157L279.614 210.736C281.713 211.946 281.713 213.921 279.614 215.14L63.1856 340.614C62.0074 341.215 60.7045 341.529 59.383 341.529C58.0615 341.529 56.7586 341.215 55.5804 340.614Z" fill="#E0E0E0"/>
<path d="M189.33 302.173L221.332 283.6C224.636 281.71 226.283 279.177 226.283 276.672C226.283 274.167 226.283 272.211 226.283 272.211L193.095 253.411C192.169 252.804 191.398 251.986 190.845 251.023C190.293 250.061 189.973 248.981 189.914 247.872V208.269L134.042 240.689V280.292C134.103 281.401 134.423 282.48 134.975 283.442C135.528 284.404 136.298 285.222 137.223 285.831L165.46 302.173C172.04 305.992 182.732 305.992 189.33 302.173Z" fill="#263238"/>
<path d="M147.445 287.305V291.757L137.204 285.831C136.28 285.223 135.511 284.404 134.96 283.442C134.409 282.48 134.091 281.401 134.032 280.292V240.698L144.668 234.526C144.894 237.239 145.129 240.046 145.355 242.778L137.891 247.116V278.062C137.947 279.172 138.265 280.253 138.818 281.216C139.371 282.179 140.144 282.996 141.073 283.6L147.445 287.305Z" fill="black"/>
<path d="M137.891 278.071C137.951 279.18 138.27 280.26 138.823 281.222C139.376 282.184 140.146 283.002 141.073 283.61L165.441 297.703C172.03 301.531 182.732 301.531 189.33 297.703L221.332 279.139C227.921 275.358 227.921 269.12 221.332 265.292L196.945 251.18C196.017 250.575 195.245 249.757 194.692 248.794C194.139 247.832 193.821 246.751 193.763 245.641V214.705L137.901 247.125L137.891 278.071Z" fill="#37474F"/>
<path d="M203.43 254.952L196.945 251.171C196.017 250.565 195.245 249.748 194.692 248.785C194.139 247.822 193.821 246.742 193.763 245.632V214.705L137.891 247.125V278.071C137.951 279.18 138.27 280.26 138.823 281.222C139.376 282.184 140.146 283.002 141.073 283.61L147.445 287.296L203.43 254.952Z" fill="#263238"/>
<path d="M226.274 272.258V276.729C226.274 279.233 224.617 281.729 221.323 283.647L189.321 302.211C185.814 304.09 181.897 305.064 177.922 305.047V300.595C181.898 300.617 185.816 299.642 189.321 297.759L221.323 279.177C224.617 277.23 226.274 274.725 226.274 272.258Z" fill="#455A64"/>
<path d="M48.1817 316.531C49.3876 317.116 50.7137 317.408 52.0529 317.383C53.3921 317.359 54.7067 317.018 55.8904 316.389L271.961 191.113C273.122 190.357 274.087 189.336 274.779 188.134C275.471 186.931 275.87 185.581 275.943 184.195V8.09608C275.889 6.74905 275.52 5.43371 274.866 4.2564C274.212 3.07909 273.291 2.07286 272.178 1.31906C270.972 0.733783 269.646 0.441652 268.307 0.466281C266.968 0.490911 265.653 0.831611 264.469 1.46084L48.4264 126.699C47.2677 127.456 46.3033 128.478 45.6115 129.68C44.9197 130.882 44.52 132.231 44.4449 133.617V309.754C44.4959 311.098 44.8605 312.412 45.5096 313.589C46.1586 314.766 47.0739 315.774 48.1817 316.531Z" fill="#455A64"/>
<path d="M55.8905 316.379L271.962 191.113C273.12 190.356 274.085 189.334 274.776 188.132C275.468 186.93 275.868 185.581 275.943 184.195V8.09609C275.943 5.54408 274.164 4.51382 271.962 5.78983L55.8999 131.056C54.7412 131.814 53.7768 132.835 53.085 134.037C52.3932 135.239 51.9935 136.588 51.9185 137.975V314.073C51.9185 316.625 53.6974 317.627 55.8905 316.379Z" fill="#5E48E8"/>
<path d="M55.8905 316.379L271.962 191.113C273.12 190.356 274.085 189.334 274.776 188.132C275.468 186.93 275.868 185.581 275.943 184.195V8.09609C275.943 5.54408 274.164 4.51382 271.962 5.78983L55.8999 131.056C54.7412 131.814 53.7768 132.835 53.085 134.037C52.3932 135.239 51.9935 136.588 51.9185 137.975V314.073C51.9185 316.625 53.6974 317.627 55.8905 316.379Z" fill="#37474F"/>
<path d="M55.3069 320.945C54.1763 321.434 52.9542 321.674 51.7232 321.648C50.4923 321.622 49.2813 321.33 48.1723 320.793C47.058 320.039 46.1365 319.031 45.4824 317.852C44.8283 316.673 44.46 315.356 44.4073 314.007V298.024L51.8714 302.362V318.345C51.909 320.671 53.3774 321.72 55.3069 320.945Z" fill="#263238"/>
<path d="M51.9091 302.362V318.336C51.9091 320.888 53.688 321.918 55.8811 320.642L271.962 195.376C273.122 194.618 274.087 193.595 274.779 192.391C275.47 191.187 275.869 189.836 275.943 188.448V172.446L51.9091 302.362Z" fill="#37474F"/>
<path opacity="0.2" d="M51.9185 302.324V318.336C51.9185 320.888 53.6974 321.918 55.8905 320.642L271.962 195.376C273.121 194.618 274.087 193.595 274.779 192.391C275.47 191.187 275.869 189.836 275.943 188.448V172.446L51.9185 302.324Z" fill="black"/>
<path d="M59.3826 282.305V140.47C59.4279 139.637 59.6679 138.826 60.0832 138.104C60.4986 137.381 61.0776 136.767 61.7733 136.311L266.079 17.86C267.406 17.0944 268.47 17.7182 268.47 19.24V161.085C268.424 161.918 268.184 162.728 267.769 163.451C267.354 164.173 266.775 164.788 266.079 165.244L61.7357 283.695C60.4462 284.46 59.3826 283.837 59.3826 282.305Z" fill="#5E48E8"/>
<path opacity="0.3" d="M59.3826 282.305V140.47C59.4279 139.637 59.6679 138.826 60.0832 138.104C60.4986 137.381 61.0776 136.767 61.7733 136.311L266.079 17.86C267.406 17.0944 268.47 17.7182 268.47 19.24V161.085C268.424 161.918 268.184 162.728 267.769 163.451C267.354 164.173 266.775 164.788 266.079 165.244L61.7357 283.695C60.4462 284.46 59.3826 283.837 59.3826 282.305Z" fill="black"/>
<path d="M163.926 242.484C162.834 243.193 161.924 244.15 161.27 245.279C160.616 246.407 160.236 247.674 160.161 248.978C160.161 251.369 161.837 252.343 163.926 251.142C165.019 250.435 165.93 249.478 166.584 248.349C167.239 247.221 167.618 245.953 167.691 244.649C167.663 242.258 165.987 241.284 163.926 242.484Z" fill="#455A64"/>
<path d="M53.0855 134.024C52.3766 135.224 51.9725 136.581 51.909 137.975V302.362L44.4449 298.024V133.655C44.4994 132.26 44.9042 130.901 45.6215 129.704L53.0855 134.024Z" fill="#263238"/>
<path d="M336.455 203.439L317.499 214.432L336.455 225.424L355.412 214.432L336.455 203.439Z" fill="#455A64"/>
<path d="M355.412 214.413V258.128L336.455 269.12V225.434L355.412 214.413Z" fill="#37474F"/>
<path d="M336.455 225.434V269.12L317.499 258.128V214.413L336.455 225.434Z" fill="#263238"/>
<path d="M311.512 236.861L292.556 247.854L311.512 258.846L330.469 247.854L311.512 236.861Z" fill="#5E48E8"/>
<path opacity="0.3" d="M311.512 236.861L292.556 247.854L311.512 258.846L330.469 247.854L311.512 236.861Z" fill="white"/>
<path d="M330.469 247.825V272.589L311.512 283.582V258.846L330.469 247.825Z" fill="#5E48E8"/>
<path d="M311.512 258.846V283.582L292.556 272.589V247.835L311.512 258.846Z" fill="#5E48E8"/>
<path opacity="0.1" d="M311.512 258.846V283.582L292.556 272.589V247.835L311.512 258.846Z" fill="black"/>
<path d="M286.569 241.039L267.613 252.031L286.569 263.024L305.526 252.031L286.569 241.039Z" fill="#5E48E8"/>
<path opacity="0.88" d="M286.569 241.039L267.613 252.031L286.569 263.024L305.526 252.031L286.569 241.039Z" fill="white"/>
<path d="M305.526 252.012V287.051L286.569 298.043V263.024L305.526 252.012Z" fill="#5E48E8"/>
<path opacity="0.75" d="M305.526 252.012V287.051L286.569 298.043V263.024L305.526 252.012Z" fill="white"/>
<path d="M286.569 263.024V298.043L267.613 287.051V252.012L286.569 263.024Z" fill="#5E48E8"/>
<path opacity="0.6" d="M286.569 263.024V298.043L267.613 287.051V252.012L286.569 263.024Z" fill="white"/>
<path d="M261.626 278.166L242.67 289.158L261.626 300.151L280.583 289.158L261.626 278.166Z" fill="#5E48E8"/>
<path opacity="0.3" d="M261.626 278.166L242.67 289.158L261.626 300.151L280.583 289.158L261.626 278.166Z" fill="black"/>
<path d="M280.583 289.13V301.512L261.626 312.505V300.151L280.583 289.13Z" fill="#5E48E8"/>
<path opacity="0.4" d="M280.583 289.13V301.512L261.626 312.505V300.151L280.583 289.13Z" fill="black"/>
<path d="M261.626 300.151V312.505L242.67 301.512V289.13L261.626 300.151Z" fill="#5E48E8"/>
<path opacity="0.55" d="M261.626 300.151V312.505L242.67 301.512V289.13L261.626 300.151Z" fill="black"/>
<path d="M158.354 355.057V362.269L151.266 342.921V335.728L158.354 355.057Z" fill="#263238"/>
<path d="M158.363 355.066V362.269L187.598 352.08V344.877L158.363 355.066Z" fill="#37474F"/>
<path d="M151.266 335.719L158.363 355.067L187.598 344.877C179.569 337.845 165.611 334.329 151.266 335.719Z" fill="#455A64"/>
<path d="M120.723 356.38C120.718 356.453 120.718 356.525 120.723 356.598V356.38Z" fill="#5E48E8"/>
<path d="M155.445 364.15L151.153 384.66C133.43 382.921 120.62 373.923 120.77 363.63V356.617C120.77 366.825 133.543 375.738 151.163 377.458L154.137 363.365L155.445 364.15Z" fill="#5E48E8"/>
<path opacity="0.4" d="M155.445 364.15L151.153 384.66C133.43 382.921 120.62 373.923 120.77 363.63V356.617C120.77 366.825 133.543 375.738 151.163 377.458L154.137 363.365L155.445 364.15Z" fill="black"/>
<path d="M154.429 377.694V384.897C161.745 385.31 169.072 384.293 176.002 381.9C184.36 378.989 190.262 374.339 192.624 368.885C193.317 367.298 193.688 365.589 193.716 363.857C193.716 363.167 193.716 356.409 193.716 356.409C193.716 356.409 191.692 356.248 189.32 353.715L183.842 355.605L158.777 364.339L154.429 377.694Z" fill="#5E48E8"/>
<path opacity="0.6" d="M154.429 377.694V384.897C161.745 385.31 169.072 384.293 176.002 381.9C184.36 378.989 190.262 374.339 192.624 368.885C193.317 367.298 193.688 365.589 193.716 363.857C193.716 363.167 193.716 356.409 193.716 356.409C193.716 356.409 191.692 356.248 189.32 353.715L183.842 355.605L158.777 364.339L154.429 377.694Z" fill="white"/>
<path d="M132.611 348.167L154.391 360.794V353.592L132.611 340.964V348.167Z" fill="#5E48E8"/>
<path opacity="0.1" d="M132.611 348.167L154.391 360.794V353.592L132.611 340.964V348.167Z" fill="black"/>
<path d="M121.034 354.017C118.652 365.274 132.056 375.586 151.153 377.458L155.493 356.947L130.286 342.335C124.978 345.652 121.975 349.48 121.034 354.017Z" fill="#5E48E8"/>
<path opacity="0.3" d="M121.034 354.017C118.652 365.274 132.056 375.586 151.153 377.458L155.493 356.947L130.286 342.335C124.978 345.652 121.975 349.48 121.034 354.017Z" fill="black"/>
<path d="M154.551 377.099L154.429 377.694C161.743 378.12 169.069 377.115 176.002 374.736C184.36 371.825 190.262 367.174 192.624 361.721C194.846 356.55 193.669 351.201 189.321 346.598L183.842 348.488L158.777 357.221L154.551 377.099Z" fill="#5E48E8"/>
<path opacity="0.75" d="M154.551 377.099L154.429 377.694C161.743 378.12 169.069 377.115 176.002 374.736C184.36 371.825 190.262 367.174 192.624 361.721C194.846 356.55 193.669 351.201 189.321 346.598L183.842 348.488L158.777 357.221L154.551 377.099Z" fill="white"/>
<path d="M132.611 340.964L154.391 353.592L147.991 336.125C142.614 336.787 137.402 338.427 132.611 340.964Z" fill="#5E48E8"/>
<path d="M155.445 364.15V356.948L151.097 377.458V384.66L155.445 364.15Z" fill="#5E48E8"/>
<path opacity="0.55" d="M155.445 364.15V356.948L151.097 377.458V384.66L155.445 364.15Z" fill="black"/>
<path d="M183.231 324.915L178.487 327.665L183.231 330.416L187.975 327.665L183.231 324.915Z" fill="#5E48E8"/>
<path opacity="0.3" d="M183.231 324.915L178.487 327.665L183.231 330.416L187.975 327.665L183.231 324.915Z" fill="black"/>
<path d="M187.975 327.665V330.425L183.231 333.176V330.416L187.975 327.665Z" fill="#5E48E8"/>
<path opacity="0.4" d="M187.975 327.665V330.425L183.231 333.176V330.416L187.975 327.665Z" fill="black"/>
<path d="M183.231 330.416V333.176L178.487 330.425V327.665L183.231 330.416Z" fill="#5E48E8"/>
<path opacity="0.55" d="M183.231 330.416V333.176L178.487 330.425V327.665L183.231 330.416Z" fill="black"/>
<path d="M190.478 322.779L208.061 312.59C208.626 312.289 209.253 312.126 209.893 312.114C210.532 312.103 211.165 312.243 211.741 312.523C212.682 313.091 212.682 314.045 211.618 314.66L194.036 324.849C193.47 325.148 192.843 325.309 192.204 325.321C191.565 325.332 190.932 325.193 190.356 324.915C189.377 324.348 189.424 323.393 190.478 322.779Z" fill="#E0E0E0"/>
<path d="M193.923 331.115L189.179 333.866L193.923 336.616L198.667 333.866L193.923 331.115Z" fill="#5E48E8"/>
<path opacity="0.88" d="M193.923 331.115L189.179 333.866L193.923 336.616L198.667 333.866L193.923 331.115Z" fill="white"/>
<path d="M198.667 333.856V336.616L193.923 339.367V336.616L198.667 333.856Z" fill="#5E48E8"/>
<path opacity="0.75" d="M198.667 333.856V336.616L193.923 339.367V336.616L198.667 333.856Z" fill="white"/>
<path d="M193.923 336.616V339.367L189.179 336.616V333.856L193.923 336.616Z" fill="#5E48E8"/>
<path opacity="0.6" d="M193.923 336.616V339.367L189.179 336.616V333.856L193.923 336.616Z" fill="white"/>
<path d="M201.171 328.97L218.744 318.781C219.308 318.478 219.935 318.314 220.575 318.301C221.214 318.288 221.848 318.426 222.424 318.705C223.412 319.282 223.365 320.236 222.311 320.841L204.729 331.049C204.163 331.348 203.536 331.51 202.896 331.521C202.257 331.532 201.624 331.394 201.048 331.115C200.098 330.539 200.098 329.584 201.171 328.97Z" fill="#E0E0E0"/>
<path d="M204.606 337.316L199.863 340.066L204.616 342.817L209.36 340.066L204.606 337.316Z" fill="#5E48E8"/>
<path opacity="0.3" d="M204.606 337.316L199.863 340.066L204.616 342.817L209.36 340.066L204.606 337.316Z" fill="white"/>
<path d="M209.36 340.057V342.817L204.616 345.567V342.817L209.36 340.057Z" fill="#5E48E8"/>
<path d="M204.616 342.817V345.567L199.863 342.817V340.057L204.616 342.817Z" fill="#5E48E8"/>
<path opacity="0.1" d="M204.616 342.817V345.567L199.863 342.817V340.057L204.616 342.817Z" fill="black"/>
<path d="M211.854 335.18L229.436 324.981C230.002 324.682 230.629 324.521 231.269 324.509C231.908 324.498 232.54 324.637 233.116 324.915C234.105 325.491 234.058 326.446 233.004 327.051L215.421 337.24C214.857 337.543 214.23 337.707 213.59 337.72C212.951 337.733 212.317 337.595 211.741 337.316C210.753 336.739 210.809 335.785 211.854 335.18Z" fill="#E0E0E0"/>
<path d="M215.299 343.507L210.555 346.257L215.299 349.008L220.043 346.257L215.299 343.507Z" fill="#455A64"/>
<path d="M220.043 346.257V349.017L215.299 351.768V349.008L220.043 346.257Z" fill="#37474F"/>
<path d="M215.299 349.008V351.768L210.555 349.017V346.257L215.299 349.008Z" fill="#263238"/>
<path d="M222.546 341.38L240.129 331.182C240.694 330.883 241.322 330.721 241.961 330.71C242.6 330.698 243.233 330.837 243.809 331.116C244.797 331.683 244.75 332.637 243.687 333.252L226.114 343.441C225.549 343.742 224.921 343.905 224.281 343.916C223.642 343.928 223.009 343.787 222.433 343.507C221.445 342.94 221.502 341.985 222.546 341.38Z" fill="#E0E0E0"/>
<path d="M364.09 194.261C370.613 194.261 373.71 196.151 376.063 202.371C378.416 208.59 384.638 223.023 384.76 227.295C384.892 231.728 370.641 245.169 371.187 244.942C371.338 244.866 366.848 236.794 366.848 236.794L374.849 226.955L370.265 213.599L364.09 194.261Z" fill="#FFA8A7"/>
<path d="M372.166 341.115C372.571 341.503 372.646 341.871 372.627 343.27C372.608 344.669 373.201 346.229 372.486 347.533C371.959 348.478 369.229 349.178 367.846 348.478C366.64 347.685 365.561 346.713 364.646 345.595C363.785 344.61 362.84 343.702 361.822 342.883C360.645 342.004 359.281 341.418 358.057 340.614C357.098 339.99 356.292 339.156 355.702 338.173C355.112 337.191 354.752 336.086 354.65 334.943C354.571 334.197 354.722 333.445 355.083 332.788C355.376 332.436 355.761 332.173 356.195 332.029C356.629 331.885 357.095 331.867 357.539 331.975C358.866 332.192 363.366 334.716 364.401 335.434C365.756 336.323 371.752 340.718 372.166 341.115Z" fill="#263238"/>
<path d="M365.559 335.33C365.512 336.332 361.304 333.988 359.582 334.215H359.535C357.925 334.99 359.262 337.249 360.749 338.402C362.236 339.555 367.112 343.128 367.112 343.128L368.109 337.334L365.559 335.33Z" fill="#FFA8A7"/>
<path d="M347.299 351.654C348.08 351.654 348.428 354.225 348.579 356.2C348.682 357.732 349.266 360.236 348.72 361.361C348.174 362.486 346.132 363.185 342.96 363.119C340.898 363.119 337.679 364.433 335.477 365.633C333.259 366.705 330.754 367.02 328.342 366.531C325.518 366.163 322.619 364.48 322.177 363.308C321.735 362.136 322.337 361.569 329.02 358.809C329.086 358.809 336.079 355.718 339.374 352.193L347.299 351.654Z" fill="#263238"/>
<path d="M329.048 358.809C328.107 359.187 327.326 359.527 326.62 359.83C326.441 360.463 326.685 361.474 329.641 361.966C334.14 362.722 347.374 352.712 347.374 352.712C347.374 352.712 345.491 353.242 345.124 352.155H339.373C336.079 355.718 329.048 358.781 329.048 358.809Z" fill="#FFA8A7"/>
<path d="M374.849 308.241C374.918 303.836 374.483 299.437 373.55 295.131C373.55 295.131 374.34 278.25 374.425 267.645C374.604 246.662 374.209 243.581 369.587 234.564C369.587 234.564 342.602 231.397 341.463 244.602C340.051 261.048 338.404 288.562 338.442 296.398C338.442 302.23 339.138 308.553 339.458 321.776C339.665 330.283 340.55 342.211 339.345 352.23C340.87 354.801 344.993 354.754 347.346 352.75C348.023 342.939 352.88 324.149 353.633 317.599C354.041 312.867 353.845 308.102 353.05 303.421C353.05 303.421 356.626 275.405 357.257 271.143C358.172 275.65 358.695 280.23 358.819 284.829C358.819 286.719 359.459 292.929 360.523 303.421C361.172 309.81 365.672 334.782 366.651 342.807C368.91 345 371.827 343.487 371.959 342.542C372.712 332.75 374.849 314.357 374.849 308.241Z" fill="#FFA8A7"/>
<path opacity="0.15" d="M357.285 271.114L359.666 257.513C363.729 256.883 367.467 254.914 370.293 251.917C370.293 251.917 368.862 257.352 361.822 259.205L358.998 271.492L358.528 282.712L357.285 271.114Z" fill="black"/>
<path d="M350.49 189.696L351.61 202.021L362.396 201.369L361.568 187.692L350.49 189.696Z" fill="#FFA8A7"/>
<path d="M372.138 237.843C370.902 234.564 369.324 231.424 367.432 228.477C372.044 213.562 373.522 208.543 372.628 202.163C372.053 198.108 368.863 194.053 364.947 194.27H361.992C361.822 197.106 354 197.229 351.036 195.282L348.297 195.357C346.367 196.047 339.825 205.754 339.072 212.134C338.479 217.342 342.555 221.86 342.555 221.86C342.57 224.072 342.441 226.282 342.169 228.477C342.169 228.477 342.169 241.095 342.169 247.38C342.169 247.38 343.684 252.22 359.516 250.708C373.635 249.365 373.936 244.535 373.936 244.535C373.599 242.242 372.995 239.996 372.138 237.843Z" fill="#5E48E8"/>
<g opacity="0.3">
<path opacity="0.3" d="M372.138 237.843C370.902 234.564 369.324 231.424 367.432 228.477C372.044 213.562 373.522 208.543 372.628 202.163C372.053 198.108 368.863 194.053 364.947 194.27H361.992C361.822 197.106 354 197.229 351.036 195.282L348.297 195.357C346.367 196.047 339.825 205.754 339.072 212.134C338.479 217.342 342.555 221.86 342.555 221.86C342.57 224.072 342.441 226.282 342.169 228.477C342.169 228.477 342.169 241.095 342.169 247.38C342.169 247.38 343.684 252.22 359.516 250.708C373.635 249.365 373.936 244.535 373.936 244.535C373.599 242.242 372.995 239.996 372.138 237.843Z" fill="black"/>
</g>
<path d="M352.118 160.848C350.527 160.638 348.909 160.816 347.4 161.365C345.891 161.915 344.536 162.82 343.449 164.005C337.933 170.243 343.986 174.837 343.986 174.837L352.118 160.848Z" fill="#263238"/>
<path d="M342.526 176.141C342.526 176.141 340.126 179.761 340.437 180.149C340.994 180.52 341.612 180.789 342.263 180.943L342.526 176.141Z" fill="#F28F8F"/>
<path d="M349.85 164.676C347.525 165.877 343.506 168.088 342.451 176.671C341.369 185.489 343.317 188.552 344.513 189.714C345.313 190.499 349.483 190.792 351.657 190.121C354.386 189.28 360.288 186.34 363.055 181.822C366.321 176.482 367.018 169.346 363.272 166.538C358.001 162.616 351.817 163.665 349.85 164.676Z" fill="#FFA8A7"/>
<path d="M348.692 174.818C343.826 172.332 345.068 165.848 345.068 165.848C345.068 165.848 352.014 155.877 364.834 162.323C369.267 164.553 371.931 169.62 371.827 175.555C371.827 179.261 370.362 182.814 367.753 185.434C365.144 188.054 361.606 189.525 357.916 189.525C355.764 189.525 353.7 188.667 352.179 187.139C350.657 185.611 349.802 183.539 349.802 181.378V180.839L350.217 180.971C350.878 181.129 351.569 181.118 352.226 180.942C352.883 180.765 353.486 180.428 353.982 179.96C356.118 178.07 356.372 174.487 353.671 173.58C350.97 172.673 349.567 175.848 349.567 175.848L348.522 178.684C348.27 178.592 348.039 178.451 347.841 178.27C347.643 178.088 347.482 177.869 347.369 177.625C347.255 177.381 347.19 177.117 347.178 176.848C347.166 176.578 347.207 176.31 347.299 176.056C347.413 175.752 347.599 175.479 347.842 175.263C348.085 175.048 348.377 174.895 348.692 174.818Z" fill="#263238"/>
<path d="M319.278 176.803L296.142 188.438L307.023 219.923L328.634 208.24L319.278 176.803Z" fill="#5E48E8"/>
<path d="M318.177 179.847L298.768 189.61L308.407 216.69L326.535 206.888L318.177 179.847Z" fill="#F5F5F5"/>
<path opacity="0.15" d="M314.073 182.682L313.715 181.737C313.518 181.208 311.908 181.501 310.12 182.389L306.703 184.081C304.924 184.97 303.635 186.123 303.832 186.661L304.19 187.607L314.073 182.682Z" fill="black"/>
<path d="M313.762 178.854C313.64 178.514 312.943 178.561 312.2 178.949L310.863 179.639C310.863 179.639 310.082 177.559 307.004 178.939C303.926 180.319 304.585 182.72 304.585 182.72L303.164 183.476C302.383 183.892 301.818 184.506 301.903 184.837L302.063 185.452L313.988 179.469L313.762 178.854Z" fill="#37474F"/>
<path d="M312.463 180.215C311.353 180.744 310.92 181 311.221 181.822C311.522 182.644 311.889 183.429 311.889 183.429L306.618 186.085C306.618 186.085 306.204 184.894 306.016 184.44C305.828 183.986 305.461 183.75 304.623 184.176L304.312 183.835L312.633 179.761L312.463 180.215Z" fill="#263238"/>
<path d="M314.29 182.739L313.941 181.794C313.744 181.265 312.134 181.548 310.346 182.437L306.929 184.138C305.141 185.026 303.861 186.18 304.058 186.709L304.406 187.654L314.29 182.739Z" fill="#37474F"/>
<path d="M348.268 195.357C344.626 195.301 342.423 195.622 337.453 203.032C332.484 210.442 323.259 224.053 322.186 225.859C320.68 228.316 320.304 232.087 321.565 234.365C322.704 236.511 324.718 237.258 330.45 231.142C334.686 226.615 343.628 214.592 343.628 214.592C343.628 214.592 350.546 201.633 348.268 195.357Z" fill="#FFA8A7"/>
<path d="M323.824 235.944C320.822 236.889 309.8 223.713 306.741 219.753C304.279 216.453 301.385 213.503 298.138 210.981C293.893 207.72 294.599 202.834 296.547 198.382C297.225 196.832 299.371 197.881 299.371 197.881L300.114 200.026L301.394 203.741C302.289 204.601 302.806 204.885 302.863 204.63C302.985 204.157 302.242 202.163 302.289 200.093C302.354 197.607 304.067 199.27 304.566 200.149C305.253 201.488 305.841 202.874 306.326 204.299C307.155 206.539 306.759 208.779 307.795 210.32C308.83 211.86 323.796 224.337 323.796 224.337L323.824 235.944Z" fill="#FFA8A7"/>
<path d="M367.469 228.477C367.469 228.477 356.918 234.734 342.141 228.477C340.823 236.261 339.927 244.111 339.458 251.993C338.931 262.031 337.773 283.572 337.773 283.572C337.773 283.572 342.131 288.685 357.699 287.646C372.665 286.7 375.3 282.731 375.3 282.731C375.3 282.731 375.3 263.382 375.413 254.923C375.517 244.11 374.011 238.231 367.469 228.477Z" fill="#5E48E8"/>
<path opacity="0.5" d="M367.469 228.477C367.469 228.477 356.918 234.734 342.141 228.477C340.823 236.261 339.927 244.111 339.458 251.993C338.931 262.031 337.773 283.572 337.773 283.572C337.773 283.572 342.131 288.685 357.699 287.646C372.665 286.7 375.3 282.731 375.3 282.731C375.3 282.731 375.3 263.382 375.413 254.923C375.517 244.11 374.011 238.231 367.469 228.477Z" fill="black"/>
<path d="M372.345 171.397L374.82 169.128C374.488 168.769 374.045 168.533 373.562 168.459C373.079 168.385 372.585 168.477 372.161 168.72C371.737 168.963 371.407 169.343 371.225 169.798C371.043 170.253 371.02 170.756 371.159 171.227C370.858 171.227 370.547 171.179 370.218 171.179V191.104C370.218 193.853 371.302 196.491 373.234 198.439C375.165 200.388 377.787 201.488 380.524 201.501V181.52C380.515 179.149 379.698 176.852 378.211 175.011C376.723 173.17 374.653 171.895 372.345 171.397Z" fill="#263238"/>
<path d="M306.034 7.26394C305.713 7.1016 305.354 7.03074 304.996 7.05907C304.637 7.0874 304.293 7.21383 304.001 7.42463L88.6551 132.313C87.8371 132.84 87.1549 133.554 86.6641 134.397C86.1734 135.24 85.888 136.187 85.8314 137.162V282.957C85.7981 283.43 85.8894 283.904 86.0959 284.33C86.3024 284.756 86.6169 285.121 87.0079 285.386C87.4597 285.632 89.8317 287.031 90.5658 287.418C90.8196 287.549 91.1035 287.609 91.3881 287.592C91.6727 287.576 91.9478 287.483 92.1848 287.324L307.559 162.389C308.378 161.862 309.06 161.148 309.551 160.305C310.042 159.462 310.327 158.515 310.383 157.54V11.0353C310.43 10.6703 310.374 10.2993 310.221 9.96488C310.068 9.63049 309.824 9.34628 309.517 9.14487C308.99 8.96529 306.543 7.60421 306.034 7.26394Z" fill="#5E48E8"/>
<path d="M92.2224 134.345L307.559 9.49452C309.103 8.60604 310.383 9.33383 310.383 11.1202V157.625C310.327 158.6 310.042 159.547 309.551 160.39C309.06 161.233 308.378 161.947 307.559 162.474L92.2224 287.324C90.6788 288.212 89.3987 286.766 89.3987 284.98V139.194C89.4546 138.219 89.7396 137.271 90.2304 136.428C90.7212 135.586 91.4039 134.872 92.2224 134.345V134.345Z" fill="#FAFAFA"/>
<path d="M308.811 10.0144C309.329 10.0144 309.414 10.6761 309.414 11.073V157.578C309.363 158.384 309.126 159.167 308.723 159.866C308.32 160.564 307.76 161.159 307.089 161.604L91.7518 286.502C91.6184 286.594 91.4618 286.646 91.3 286.653C90.8105 286.653 90.3588 285.868 90.3588 284.98V139.194C90.4095 138.386 90.6458 137.602 91.0492 136.901C91.4525 136.201 92.012 135.604 92.6836 135.158L308.03 10.2696C308.265 10.12 308.534 10.0323 308.811 10.0144V10.0144ZM308.811 9.06924C308.369 9.08605 307.938 9.2162 307.559 9.44732L92.2224 134.345C91.4039 134.872 90.7212 135.586 90.2304 136.429C89.7396 137.271 89.4546 138.219 89.3987 139.194V284.98C89.3987 286.398 90.1799 287.598 91.2812 287.598C91.614 287.595 91.9396 287.5 92.2224 287.324L307.559 162.389C308.378 161.862 309.06 161.148 309.551 160.305C310.042 159.462 310.327 158.515 310.383 157.54V11.0352C310.383 9.75923 309.752 9.03143 308.839 9.03143L308.811 9.06924Z" fill="#E0E0E0"/>
<path d="M87.0361 285.386C87.3373 285.547 89.5116 286.794 90.4622 287.333C90.1188 287.05 89.8469 286.689 89.6686 286.28C89.4903 285.871 89.4107 285.425 89.4363 284.98V148.352L85.8596 146.254V282.957C85.8301 283.429 85.923 283.901 86.1292 284.327C86.3354 284.753 86.6478 285.118 87.0361 285.386V285.386Z" fill="#F0F0F0"/>
<path d="M310.355 11.0447C310.355 9.27715 309.094 8.5588 307.531 9.44728L92.2224 134.345C91.4039 134.872 90.7212 135.586 90.2304 136.429C89.7396 137.271 89.4546 138.219 89.3987 139.194V148.352L310.355 20.2414V11.0447Z" fill="#5E48E8"/>
<g opacity="0.4">
<path opacity="0.4" d="M307.559 9.49452L92.2224 134.345C91.4001 134.857 90.7227 135.573 90.2553 136.424L86.7162 134.364C87.1766 133.524 87.8443 132.818 88.6551 132.313L304.001 7.42455C304.292 7.21501 304.633 7.08852 304.99 7.05856C305.346 7.0286 305.704 7.09629 306.025 7.25442C306.524 7.56633 308.849 8.88959 309.432 9.20151C309.12 9.09549 308.786 9.06677 308.46 9.11778C308.134 9.16879 307.825 9.29802 307.559 9.49452V9.49452Z" fill="white"/>
</g>
<path opacity="0.15" d="M85.8596 146.264V137.161C85.8947 136.157 86.1899 135.18 86.7162 134.326L90.2646 136.377C89.7533 137.215 89.4679 138.173 89.4363 139.156V148.315L85.8596 146.264Z" fill="black"/>
<path d="M89.4363 148.352L89.4269 164.855L310.345 36.7632V20.2413L89.4363 148.352Z" fill="#EBEBEB"/>
<path d="M98.6322 147.133L112.92 138.891V147.105L98.6228 155.394L98.6322 147.133Z" fill="#E0E0E0"/>
<path d="M116.45 136.802V140.054L123.575 135.914V132.672L116.45 136.802Z" fill="#E0E0E0"/>
<path d="M116.45 141.821V145.073L123.575 140.933V137.691L116.45 141.821Z" fill="#E0E0E0"/>
<path d="M127.143 130.602V133.853L134.268 129.723V126.471L127.143 130.602Z" fill="#E0E0E0"/>
<path d="M127.143 135.621V138.872L134.268 134.742V131.49L127.143 135.621Z" fill="#E0E0E0"/>
<path d="M137.825 124.401V127.653L144.951 123.522V120.271L137.825 124.401Z" fill="#E0E0E0"/>
<path d="M137.825 129.42V132.672L144.951 128.541V125.29L137.825 129.42Z" fill="#E0E0E0"/>
<path d="M169.894 105.809V109.061L177.019 104.93V101.679L169.894 105.809Z" fill="#E0E0E0"/>
<path d="M169.894 110.838V114.08L177.019 109.949V106.698L169.894 110.838Z" fill="#E0E0E0"/>
<path d="M180.586 99.6185V102.86L187.711 98.73V95.4785L180.586 99.6185Z" fill="#E0E0E0"/>
<path d="M180.586 104.637V107.879L187.711 103.749V100.497L180.586 104.637Z" fill="#E0E0E0"/>
<path d="M191.269 93.418L191.278 96.6695L198.404 92.539V89.2875L191.269 93.418Z" fill="#E0E0E0"/>
<path d="M191.269 98.437L191.278 101.688L198.404 97.5485V94.3065L191.269 98.437Z" fill="#E0E0E0"/>
<path d="M148.518 118.21L166.336 107.879V116.14L148.518 126.471V118.21Z" fill="#E0E0E0"/>
<path d="M201.971 87.2176L216.259 78.9755V87.1987L201.961 95.488L201.971 87.2176Z" fill="#E0E0E0"/>
<path d="M219.779 76.8866L219.789 80.138L226.914 76.0076V72.7561L219.779 76.8866Z" fill="#E0E0E0"/>
<path d="M219.779 81.9056L219.789 85.157L226.914 81.0265V77.7751L219.779 81.9056Z" fill="#E0E0E0"/>
<path d="M230.472 70.6956V73.9471L237.597 69.8071V66.5557L230.472 70.6956Z" fill="#E0E0E0"/>
<path d="M230.472 75.7145V78.966L237.597 74.826V71.5746L230.472 75.7145Z" fill="#E0E0E0"/>
<path d="M241.164 64.4951V67.7466L248.289 63.6066V60.3552L241.164 64.4951Z" fill="#E0E0E0"/>
<path d="M241.164 69.5141V72.7655L248.289 68.6256V65.3836L241.164 69.5141Z" fill="#E0E0E0"/>
<path d="M273.232 45.9032V49.1546L280.357 45.0147V41.7632L273.232 45.9032Z" fill="#E0E0E0"/>
<path d="M273.232 50.9222V54.1736L280.357 50.0337V46.7917L273.232 50.9222Z" fill="#E0E0E0"/>
<path d="M283.925 39.7029V42.9544L291.05 38.8239V35.5724L283.925 39.7029Z" fill="#E0E0E0"/>
<path d="M283.925 44.7217V47.9732L291.05 43.8427V40.5912L283.925 44.7217Z" fill="#E0E0E0"/>
<path d="M294.608 33.5023V36.7538L301.742 32.6233V29.3718L294.608 33.5023Z" fill="#E0E0E0"/>
<path d="M294.608 38.5213V41.7728L301.742 37.6423V34.3908L294.608 38.5213Z" fill="#E0E0E0"/>
<path d="M251.857 58.2947L269.674 47.9637V56.2342L251.857 66.5557V58.2947Z" fill="#E0E0E0"/>
<path d="M89.4363 148.352L85.8596 146.254V162.785L89.4269 164.855L89.4363 148.352Z" fill="#E0E0E0"/>
<path d="M253.344 46.7918V47.4062C253.344 48.3514 254.022 48.7672 254.859 48.2852L298.156 23.1904C298.598 22.8993 298.965 22.5082 299.228 22.0485C299.491 21.5888 299.643 21.0734 299.672 20.5438V19.9389C299.672 18.9937 298.994 18.5684 298.156 19.0599L254.859 44.1547C254.418 44.4431 254.05 44.8324 253.787 45.2907C253.523 45.749 253.372 46.2634 253.344 46.7918Z" fill="#F5F5F5"/>
<path d="M299.662 20.5438V19.9389C299.662 18.9937 298.985 18.5684 298.147 19.0599L292.5 22.3114V26.4418L298.147 23.1904C298.588 22.8993 298.956 22.5082 299.219 22.0485C299.482 21.5888 299.634 21.0734 299.662 20.5438V20.5438Z" fill="#455A64"/>
<path d="M92.9943 166.907L306.797 42.9733V51.2154L110.803 164.856V272.277L92.9943 282.598V166.907Z" fill="#F0F0F0"/>
<path d="M110.802 164.856L128.611 154.534V162.776L110.802 173.117V164.856Z" fill="#5E48E8"/>
<path d="M110.802 230.953L128.611 220.631V228.873L110.802 239.214V230.953Z" fill="#5E48E8"/>
<path d="M110.802 239.214L128.611 228.892V237.134L110.802 247.475V239.214Z" fill="#5E48E8"/>
<path opacity="0.8" d="M110.802 239.214L128.611 228.892V237.134L110.802 247.475V239.214Z" fill="white"/>
<path d="M217.69 168.977L235.498 158.655V166.897L217.69 177.238V168.977Z" fill="#5E48E8"/>
<path opacity="0.3" d="M217.69 168.977L235.498 158.655V166.897L217.69 177.238V168.977Z" fill="black"/>
<path d="M217.69 177.237L235.498 166.916V175.158L217.69 185.498V177.237Z" fill="#5E48E8"/>
<path opacity="0.4" d="M217.69 177.237L235.498 166.916V175.158L217.69 185.498V177.237Z" fill="black"/>
<path d="M217.69 185.508L235.498 175.186V183.428L217.69 193.769V185.508Z" fill="#5E48E8"/>
<path opacity="0.5" d="M217.69 185.508L235.498 175.186V183.428L217.69 193.769V185.508Z" fill="black"/>
<path d="M217.69 193.769L235.498 183.448V191.69L217.69 202.03V193.769Z" fill="#5E48E8"/>
<path opacity="0.3" d="M217.69 193.769L235.498 183.448V191.69L217.69 202.03V193.769Z" fill="black"/>
<path d="M199.891 113.201L217.69 102.879V144.194L199.891 154.534V113.201Z" fill="#5E48E8"/>
<path d="M199.891 162.786L217.69 152.464V210.3L199.891 220.641V162.786Z" fill="#5E48E8"/>
<path d="M128.611 204.1L146.409 193.778V202.02L128.611 212.361V204.1Z" fill="#5E48E8"/>
<path opacity="0.3" d="M128.611 204.1L146.409 193.778V202.02L128.611 212.361V204.1Z" fill="black"/>
<path d="M164.256 142.124L182.064 131.802V140.044L164.256 150.385V142.124Z" fill="#5E48E8"/>
<path opacity="0.6" d="M164.256 142.124L182.064 131.802V140.044L164.256 150.385V142.124Z" fill="white"/>
<path d="M253.344 140.054L271.143 129.732V137.974L253.344 148.315V140.054Z" fill="#5E48E8"/>
<path opacity="0.8" d="M253.344 140.054L271.143 129.732V137.974L253.344 148.315V140.054Z" fill="white"/>
<path d="M253.344 156.585L271.143 146.264V154.506L253.344 164.846V156.585Z" fill="#5E48E8"/>
<path d="M92.7966 166.538L92.5801 166.661V283.373L307.004 159.033L307.23 158.91V42.1982L92.7966 166.538ZM306.373 150.158L289.431 159.978V152.729L306.373 142.918V150.158ZM93.4366 175.432L110.379 165.612V172.861L93.4366 182.682V175.432ZM199.458 163.561V170.81L182.516 180.631V173.381L199.458 163.561ZM182.516 172.36V165.111L199.458 155.29V162.54L182.516 172.36ZM200.333 163.05L217.276 153.23V160.479L200.333 170.3V163.05ZM200.333 162.029V154.789L217.276 144.959V152.218L200.333 162.029ZM200.333 153.769V146.547L217.276 136.727V143.976L200.333 153.769ZM200.333 145.498V138.258L217.276 128.428V135.678L200.333 145.498ZM199.458 146.008L182.516 155.829V148.579L199.458 138.759V146.008ZM199.458 147.029V154.279L182.516 164.099V156.85L199.458 147.029ZM181.64 164.61L164.698 174.43V167.181L181.64 157.36V164.61ZM181.64 165.621V172.871L164.698 182.691V175.442L181.64 165.621ZM181.64 173.892V181.141L164.698 190.962V183.712L181.64 173.892ZM181.64 182.153V189.402L164.698 199.223V191.973L181.64 182.153ZM182.516 181.642L199.458 171.822V179.071L182.516 188.892V181.642ZM199.458 180.092V187.342L182.516 197.162V189.913L199.458 180.092ZM200.333 179.582L217.276 169.761V177.011L200.333 186.831V179.582ZM200.333 178.561V171.311L217.276 161.491V168.74L200.333 178.561ZM218.151 160.99L235.093 151.169V158.419L218.151 168.239V160.99ZM218.151 159.969V152.719L235.093 142.899V150.148L218.151 159.969ZM218.151 151.708V144.458L235.093 134.638V141.887L218.151 151.708ZM218.151 143.438V136.15L235.093 126.33V133.579L218.151 143.438ZM218.151 135.177V127.927L235.093 118.106V125.347L218.151 135.177ZM218.151 126.906V119.657L235.093 109.836V117.086L218.151 126.906ZM217.276 127.417L200.333 137.237V129.987L217.276 120.167V127.417ZM199.458 137.748L182.516 147.568V140.318L199.458 130.498V137.748ZM181.64 148.078L164.698 157.899V150.649L181.64 140.829V148.078ZM181.64 149.09V156.339L164.698 166.16V158.91L181.64 149.09ZM163.823 166.67L146.88 176.491V169.232L163.823 159.411V166.67ZM163.823 167.691V174.903L146.88 184.733V177.483L163.823 167.691ZM163.823 175.952V183.202L146.88 193.022V185.773L163.823 175.952ZM163.823 184.223V191.463L146.88 201.293V194.043L163.823 184.223ZM163.823 192.484V199.733L146.88 209.554V202.313L163.823 192.484ZM163.823 200.754V207.985L146.88 217.815V210.565L163.823 200.754ZM164.698 200.244L181.64 190.423V197.673L164.698 207.493V200.244ZM181.64 198.684V205.934L164.698 215.754V208.505L181.64 198.684ZM182.516 198.174L199.458 188.353V195.603L182.516 205.423V198.174ZM200.333 187.843L217.276 178.022V185.3L200.333 195.121V187.843ZM218.151 177.521L235.093 167.701V174.95L218.151 184.771V177.521ZM218.151 176.5V169.232L235.093 159.411V166.661L218.151 176.5ZM235.969 158.92L252.911 149.099V156.349L235.969 166.169V158.92ZM235.969 157.908V150.659L252.911 140.838V148.088L235.969 157.908ZM235.969 149.638V142.388L252.911 132.568V139.817L235.969 149.638ZM235.969 141.377V134.127L252.911 124.307V131.557L235.969 141.377ZM235.969 133.107V125.857L252.911 116.036V123.286L235.969 133.107ZM235.969 124.846V117.596L252.911 107.776V115.025L235.969 124.846ZM235.969 116.575V109.326L252.911 99.5051V106.755L235.969 116.575ZM235.969 108.314V101.065L252.911 91.2441V98.4937L235.969 108.314ZM235.093 108.815L218.151 118.645V111.396L235.093 101.575V108.815ZM217.276 119.137L200.333 128.957V121.717L217.276 111.887V119.137ZM199.458 129.468L182.516 139.288V132.039L199.458 122.218V129.468ZM181.64 139.799L164.698 149.619V142.37L181.64 132.549V139.799ZM163.823 150.139L146.88 159.96V152.71L163.823 142.889V150.139ZM163.823 151.16V158.4L146.88 168.23V160.98L163.823 151.16ZM146.005 168.731L129.063 178.551V171.311L146.005 161.481V168.731ZM146.005 169.752V177.001L129.063 186.822V179.572L146.005 169.752ZM146.005 178.013V185.3L129.063 195.121V187.871L146.005 178.013ZM146.005 186.283V193.533L129.063 203.353V196.104L146.005 186.283ZM146.005 194.544V201.794L129.063 211.614V204.374L146.005 194.544ZM146.005 202.814V210.064L129.063 219.885V212.635L146.005 202.814ZM146.005 211.075V218.325L129.063 228.146V220.905L146.005 211.075ZM146.005 219.346V226.595L129.063 236.416V229.166L146.005 219.346ZM146.88 218.835L163.823 209.015V216.265L146.88 226.085V218.835ZM163.823 217.285V224.535L146.88 234.355V227.106L163.823 217.285ZM164.698 216.775L181.64 206.954V214.204L164.698 224.025V216.775ZM182.516 206.444L199.458 196.623V203.873L182.516 213.694V206.444ZM200.333 196.113L217.276 186.293V193.542L200.333 203.363V196.113ZM218.151 185.782L235.093 175.962V183.211L218.151 193.032V185.782ZM235.969 175.451L252.911 165.631V172.88L235.969 182.701V175.451ZM235.969 174.44V167.19L252.911 157.37V164.619L235.969 174.44ZM253.749 156.859L270.691 147.039V154.288L253.749 164.109V156.859ZM253.749 155.838V148.589L270.691 138.768V146.018L253.749 155.838ZM253.749 147.578V140.328L270.691 130.479V137.729L253.749 147.578ZM253.749 139.307V132.057L270.691 122.237V129.534L253.749 139.307ZM253.749 131.046V123.796L270.691 113.976V121.226L253.749 131.046ZM253.749 122.776V115.526L270.691 105.706V112.955L253.749 122.776ZM253.749 114.515V107.265L270.691 97.4446V104.694L253.749 114.515ZM253.749 106.244V98.9947L270.691 89.1742V96.4521L253.749 106.244ZM253.749 97.9833V90.781L270.691 80.9605V88.2101L253.749 97.9833ZM253.749 89.7129V82.4633L270.691 72.6428V79.8924L253.749 89.7129ZM252.873 90.2233L235.931 100.044V92.7943L252.873 82.9737V90.2233ZM235.056 100.554L218.113 110.375V103.125L235.056 93.3046V100.554ZM217.238 110.885L200.296 120.706V113.466L217.238 103.645V110.885ZM199.458 121.216L182.516 131.037V123.787L199.458 113.967V121.216ZM181.64 131.547L164.698 141.368V134.118L181.64 124.297V131.547ZM163.823 141.869L146.88 151.699V144.449L163.823 134.628V141.869ZM146.005 152.218L129.063 162.039V154.799L146.005 144.969V152.218ZM146.005 153.239V160.489L129.063 170.309V163.06L146.005 153.239ZM128.187 170.82L111.245 180.64V173.391L128.187 163.57V170.82ZM128.187 171.831V179.081L111.245 188.901V181.652L128.187 171.831ZM128.187 180.102V187.351L111.245 197.172V189.922L128.187 180.102ZM128.187 188.362V195.612L111.245 205.433V198.183L128.187 188.362ZM128.187 196.633V203.883L111.245 213.656V206.406L128.187 196.633ZM128.187 204.894V212.143L111.245 221.964V214.695L128.187 204.894ZM128.187 213.164V220.414L111.245 230.234V222.985L128.187 213.164ZM128.187 221.425V228.675L111.245 238.495V231.246L128.187 221.425ZM128.187 229.696V236.945L111.245 246.737V239.488L128.187 229.696ZM128.187 237.957V245.206L111.245 255.027V247.777L128.187 237.957ZM129.063 237.456L146.005 227.626V234.875L129.063 244.696V237.456ZM146.005 235.896V243.146L129.063 252.966V245.698L146.005 235.896ZM146.88 235.386L163.823 225.565V232.815L146.88 242.635V235.386ZM164.698 224.998L181.64 215.178V222.427L164.698 232.248V224.998ZM182.516 214.667L199.458 204.847V212.096L182.516 221.917V214.667ZM200.333 204.346L217.276 194.516V201.765L200.333 211.586V204.346ZM218.151 194.015L235.093 184.194V191.444L218.151 201.264V194.015ZM235.969 183.684L252.911 173.863V181.113L235.969 190.933V183.684ZM253.749 173.391L270.691 163.561V170.81L253.749 180.631V173.391ZM253.749 172.37V165.12L270.691 155.3V162.549L253.749 172.37ZM271.632 154.799L288.574 144.969V152.218L271.632 162.039V154.799ZM271.632 153.778V146.547L288.574 136.727V143.976L271.632 153.778ZM271.632 145.508V138.267L288.574 128.437V135.687L271.632 145.508ZM271.632 137.247V129.997L288.574 120.176V127.426L271.632 137.247ZM271.632 128.976V121.736L288.574 111.906V119.137L271.632 128.976ZM271.632 120.715V113.466L288.574 103.645V110.895L271.632 120.715ZM271.632 112.445V105.205L288.574 95.3746V102.624L271.632 112.445ZM271.632 104.184V96.9342L288.574 87.1137V94.3633L271.632 104.184ZM271.632 95.9134V88.6732L288.574 78.8432V86.055L271.632 95.9134ZM271.632 87.6524V80.3839L288.574 70.5634V77.813L271.632 87.6524ZM271.632 79.382V72.1418L288.574 62.3118V69.5615L271.632 79.382ZM271.632 71.121V63.8714L288.574 54.0509V61.3005L271.632 71.121ZM270.747 71.6314L253.805 81.452V74.2023L270.747 64.3818V71.6314ZM252.939 81.9624L235.997 91.7829V84.5333L252.939 74.7127V81.9624ZM235.121 92.2838L218.179 102.114V94.8642L235.121 85.0437V92.2838ZM217.304 102.615L200.361 112.435V105.195L217.304 95.3746V102.615ZM199.486 112.946L182.544 122.766V115.526L199.486 105.706V112.946ZM181.668 123.277L164.726 133.097V125.857L181.668 116.036V123.277ZM163.851 133.608L146.908 143.428V136.15L163.851 126.33V133.608ZM146.033 143.939L129.091 153.759V146.547L146.033 136.717V143.939ZM128.187 154.269L111.245 164.09V156.84L128.187 147.02V154.269ZM128.187 155.281V162.53L111.245 172.351V165.101L128.187 155.281ZM93.4366 183.703L110.379 173.882V181.132L93.4366 190.952V183.703ZM93.4366 191.964L110.379 182.143V189.393L93.4366 199.213V191.964ZM93.4366 200.234L110.379 190.414V197.663L93.4366 207.484V200.234ZM93.4366 208.495L110.379 198.675V205.924L93.4366 215.745V208.495ZM93.4366 216.765L110.379 206.945V214.195L93.4366 224.015V216.765ZM93.4366 225.026L110.379 215.206V222.456L93.4366 232.276V225.026ZM93.4366 233.297L110.379 223.476V230.726L93.4366 240.546V233.297ZM93.4366 241.558L110.379 231.737V238.987L93.4366 248.807V241.558ZM93.4366 249.828L110.379 240.008V247.257L93.4366 257.078V249.828ZM93.4366 258.089L110.379 248.269V255.518L93.4366 265.339V258.089ZM93.4366 266.36L110.379 256.539V263.751L93.4366 273.571V266.36ZM111.245 256.029L128.187 246.208V253.458L111.245 263.278V256.029ZM128.187 254.469V261.69L111.245 271.52V264.29L128.187 254.469ZM129.063 253.959L146.005 244.138V251.369L129.063 261.189V253.959ZM146.88 243.637L163.823 233.817V241.066L146.88 250.887V243.637ZM164.698 233.306L181.64 223.486V230.669L164.698 240.49V233.306ZM182.516 222.975L199.458 213.155V220.376L182.516 230.197V222.975ZM200.333 212.644L217.276 202.824V210.045L200.333 219.866V212.644ZM218.151 202.313L235.093 192.493V199.714L218.151 209.535V202.313ZM235.969 191.983L252.911 182.162V189.383L235.969 199.204V191.983ZM253.749 181.652L270.691 171.831V179.052L253.749 188.873V181.652ZM271.632 171.33L288.574 161.5V168.721L271.632 178.542V171.33ZM271.632 170.309V163.06L288.574 153.239V160.489L271.632 170.309ZM306.383 141.897L289.44 151.717V144.468L306.383 134.647V141.897ZM306.383 133.626L289.44 143.447V136.197L306.383 126.386V133.626ZM306.383 125.366L289.422 135.205V127.955L306.364 118.135L306.383 125.366ZM306.383 117.095L289.44 126.916V119.666L306.383 109.845V117.095ZM306.383 108.834L289.44 118.655V111.405L306.383 101.585V108.834ZM306.383 100.564L289.44 110.384V103.135L306.383 93.3141V100.564ZM306.383 92.3027L289.422 102.123V94.8737L306.364 85.0531L306.383 92.3027ZM306.383 84.0323L289.44 93.8529V86.6032L306.383 76.7827V84.0323ZM306.383 75.7714L289.44 85.5919V78.3423L306.383 68.5217V75.7714ZM306.383 67.5009L289.44 77.3215V70.0719L306.383 60.2513V67.5009ZM306.383 59.24L289.422 69.0416V61.8109L306.364 51.9904L306.383 59.24ZM306.383 50.9696L289.44 60.7901V53.5499L306.383 43.7294V50.9696ZM110.37 157.351V164.6L93.4272 174.411V167.171L110.37 157.351ZM93.4272 274.621L110.37 264.8V272.021L93.4272 281.842V274.621ZM289.422 168.22V160.999L306.364 151.179V158.4L289.422 168.22Z" fill="#E0E0E0"/>
<path d="M235.498 92.5296L306.797 51.2248V92.558L235.498 133.844V92.5296Z" fill="#FAFAFA"/>
<path d="M235.018 134.666V92.2556L235.253 92.1233L307.258 50.412V92.8321L235.018 134.666ZM235.959 92.8038V133.031L306.317 92.2839V52.0283L235.959 92.8038Z" fill="#E0E0E0"/>
<path d="M239.093 123.863H238.98C238.892 123.829 238.82 123.761 238.779 123.675C238.739 123.589 238.733 123.49 238.764 123.4L248.402 96.9342C248.421 96.8866 248.45 96.8436 248.487 96.8081C248.524 96.7726 248.568 96.7455 248.616 96.7284C248.664 96.7114 248.715 96.705 248.766 96.7095C248.817 96.714 248.866 96.7294 248.911 96.7546L259.33 103.068L269.844 92.3122C269.908 92.26 269.987 92.2315 270.07 92.2315C270.152 92.2315 270.232 92.26 270.296 92.3122L280.649 99.1459L291.163 73.1343C291.182 73.0892 291.21 73.0486 291.246 73.0149C291.281 72.9811 291.323 72.9551 291.369 72.9383C291.415 72.9214 291.464 72.9142 291.512 72.917C291.561 72.9199 291.609 72.9327 291.652 72.9547L302.335 78.4557C302.376 78.4768 302.412 78.5058 302.442 78.5409C302.472 78.5761 302.494 78.6168 302.508 78.6607C302.522 78.7046 302.527 78.7508 302.524 78.7967C302.52 78.8426 302.507 78.8873 302.486 78.9283C302.465 78.9693 302.436 79.0057 302.401 79.0354C302.366 79.0652 302.326 79.0878 302.282 79.1018C302.238 79.1158 302.192 79.1211 302.146 79.1173C302.101 79.1135 302.056 79.1006 302.015 79.0795L291.662 73.7581L281.12 99.817C281.1 99.8653 281.069 99.9083 281.03 99.9427C280.991 99.9772 280.944 100.002 280.894 100.016C280.849 100.039 280.799 100.051 280.748 100.051C280.697 100.051 280.647 100.039 280.602 100.016L270.154 93.1062L259.65 103.853C259.594 103.909 259.522 103.945 259.443 103.955C259.365 103.966 259.285 103.95 259.217 103.91L248.929 97.7281L239.442 123.749C239.399 123.797 239.344 123.833 239.283 123.853C239.222 123.873 239.156 123.876 239.093 123.863Z" fill="#455A64"/>
<path d="M248.732 95.8662C248.416 96.0731 248.155 96.3524 247.968 96.6812C247.781 97.0099 247.675 97.3786 247.659 97.7566C247.659 98.4466 248.139 98.7018 248.732 98.3804C249.047 98.173 249.308 97.8935 249.495 97.5649C249.681 97.2362 249.788 96.8679 249.805 96.49C249.805 95.8 249.325 95.507 248.732 95.8662Z" fill="#5E48E8"/>
<path d="M259.396 102.256C259.082 102.464 258.821 102.744 258.635 103.072C258.449 103.401 258.342 103.768 258.323 104.146C258.323 104.836 258.803 105.091 259.396 104.77C259.71 104.561 259.971 104.282 260.157 103.953C260.343 103.625 260.45 103.257 260.469 102.879C260.488 102.199 260.008 101.915 259.396 102.256Z" fill="#5E48E8"/>
<path d="M270.098 91.3009C269.784 91.5095 269.523 91.7892 269.337 92.1176C269.15 92.446 269.044 92.8138 269.025 93.1913C269.025 93.8813 269.505 94.1365 270.098 93.8151C270.413 93.6077 270.674 93.3282 270.861 92.9996C271.047 92.671 271.154 92.3026 271.171 91.9247C271.171 91.2442 270.691 90.9607 270.098 91.3009Z" fill="#5E48E8"/>
<path d="M280.781 98.3425C280.466 98.5493 280.204 98.8287 280.017 99.1574C279.83 99.4861 279.724 99.8548 279.708 100.233C279.708 100.923 280.188 101.178 280.781 100.857C281.097 100.65 281.358 100.37 281.545 100.042C281.732 99.713 281.838 99.3443 281.854 98.9663C281.854 98.3425 281.374 98.0305 280.781 98.3425Z" fill="#5E48E8"/>
<path d="M291.464 71.9621C291.149 72.169 290.887 72.4484 290.7 72.7771C290.514 73.1058 290.408 73.4745 290.391 73.8525C290.391 74.5425 290.871 74.7977 291.464 74.4764C291.779 74.2689 292.041 73.9894 292.227 73.6608C292.414 73.3322 292.52 72.9638 292.537 72.586C292.537 71.8771 292.057 71.6124 291.464 71.9621Z" fill="#5E48E8"/>
<path d="M302.147 77.4633C301.831 77.6702 301.57 77.9495 301.383 78.2783C301.196 78.607 301.09 78.9757 301.074 79.3537C301.074 80.0437 301.554 80.2989 302.147 79.9775C302.463 79.7706 302.724 79.4913 302.911 79.1626C303.098 78.8338 303.204 78.4652 303.22 78.0871C303.22 77.3971 302.74 77.1136 302.147 77.4633Z" fill="#5E48E8"/>
</svg>
