<svg width="269" height="48" viewBox="0 0 269 48" fill="none" xmlns="http://www.w3.org/2000/svg">
<path d="M42.7617 43.5031C35.4071 49.499 12.4428 49.499 5.2383 43.5031C-2.11629 37.5073 -1.36584 11.8753 5.2383 5.13006C11.8424 -1.61521 36.1576 -1.61521 42.7617 5.13006C49.3658 11.8753 50.1163 37.5074 42.7617 43.5031Z" fill="#5E48E8" fill-opacity="0.7"/>
<path d="M24.1507 33.0106C17.5465 38.2569 10.1919 40.955 3.28766 41.1049C-1.81556 32.411 -0.764863 11.2758 5.23888 5.13016C10.6422 -0.415923 27.6028 -1.46523 37.3589 1.98234C39.7604 11.8754 34.8073 24.4665 24.1507 33.0106Z" fill="#8776EE"/>
<path d="M31.6548 21.019L25.501 33.6102H22.4992L16.3453 21.019V35.4088H11.092V12.4749H17.9963L23.85 25.0661L29.8537 12.4749H36.758V35.4088H31.6548V21.019Z" fill="white"/>
<path d="M74.448 36.5V11.3H79.92L87.948 27.284L95.868 11.3H101.34V36.5H96.732V19.112L89.712 32.9H86.076L79.056 19.112V36.5H74.448ZM114.297 36.932C112.497 36.932 110.901 36.548 109.509 35.78C108.117 35.012 107.025 33.932 106.233 32.54C105.441 31.148 105.045 29.54 105.045 27.716C105.045 25.868 105.429 24.224 106.197 22.784C106.989 21.344 108.069 20.228 109.437 19.436C110.829 18.62 112.461 18.212 114.333 18.212C116.085 18.212 117.633 18.596 118.977 19.364C120.321 20.132 121.365 21.188 122.109 22.532C122.877 23.852 123.261 25.328 123.261 26.96C123.261 27.224 123.249 27.5 123.225 27.788C123.225 28.076 123.213 28.376 123.189 28.688H109.617C109.713 30.08 110.193 31.172 111.057 31.964C111.945 32.756 113.013 33.152 114.261 33.152C115.197 33.152 115.977 32.948 116.601 32.54C117.249 32.108 117.729 31.556 118.041 30.884H122.721C122.385 32.012 121.821 33.044 121.029 33.98C120.261 34.892 119.301 35.612 118.149 36.14C117.021 36.668 115.737 36.932 114.297 36.932ZM114.333 21.956C113.205 21.956 112.209 22.28 111.345 22.928C110.481 23.552 109.929 24.512 109.689 25.808H118.581C118.509 24.632 118.077 23.696 117.285 23C116.493 22.304 115.509 21.956 114.333 21.956ZM134.845 36.932C133.165 36.932 131.665 36.524 130.345 35.708C129.025 34.892 127.981 33.776 127.213 32.36C126.445 30.944 126.061 29.336 126.061 27.536C126.061 25.736 126.445 24.14 127.213 22.748C127.981 21.332 129.025 20.228 130.345 19.436C131.665 18.62 133.165 18.212 134.845 18.212C136.189 18.212 137.365 18.464 138.373 18.968C139.381 19.472 140.197 20.18 140.821 21.092V10.58H145.429V36.5H141.325L140.821 33.944C140.245 34.736 139.477 35.432 138.517 36.032C137.581 36.632 136.357 36.932 134.845 36.932ZM135.817 32.9C137.305 32.9 138.517 32.408 139.453 31.424C140.413 30.416 140.893 29.132 140.893 27.572C140.893 26.012 140.413 24.74 139.453 23.756C138.517 22.748 137.305 22.244 135.817 22.244C134.353 22.244 133.141 22.736 132.181 23.72C131.221 24.704 130.741 25.976 130.741 27.536C130.741 29.096 131.221 30.38 132.181 31.388C133.141 32.396 134.353 32.9 135.817 32.9ZM152.105 15.872C151.265 15.872 150.569 15.62 150.017 15.116C149.489 14.612 149.225 13.976 149.225 13.208C149.225 12.44 149.489 11.816 150.017 11.336C150.569 10.832 151.265 10.58 152.105 10.58C152.945 10.58 153.629 10.832 154.157 11.336C154.709 11.816 154.985 12.44 154.985 13.208C154.985 13.976 154.709 14.612 154.157 15.116C153.629 15.62 152.945 15.872 152.105 15.872ZM149.801 36.5V18.644H154.409V36.5H149.801ZM167.467 36.932C165.643 36.932 164.035 36.536 162.643 35.744C161.251 34.952 160.147 33.848 159.331 32.432C158.539 31.016 158.143 29.396 158.143 27.572C158.143 25.748 158.539 24.128 159.331 22.712C160.147 21.296 161.251 20.192 162.643 19.4C164.035 18.608 165.643 18.212 167.467 18.212C169.747 18.212 171.667 18.812 173.227 20.012C174.787 21.188 175.783 22.82 176.215 24.908H171.355C171.115 24.044 170.635 23.372 169.915 22.892C169.219 22.388 168.391 22.136 167.431 22.136C166.159 22.136 165.079 22.616 164.191 23.576C163.303 24.536 162.859 25.868 162.859 27.572C162.859 29.276 163.303 30.608 164.191 31.568C165.079 32.528 166.159 33.008 167.431 33.008C168.391 33.008 169.219 32.768 169.915 32.288C170.635 31.808 171.115 31.124 171.355 30.236H176.215C175.783 32.252 174.787 33.872 173.227 35.096C171.667 36.32 169.747 36.932 167.467 36.932ZM188.373 36.932C186.645 36.932 185.085 36.536 183.693 35.744C182.325 34.952 181.233 33.86 180.417 32.468C179.625 31.052 179.229 29.42 179.229 27.572C179.229 25.724 179.637 24.104 180.453 22.712C181.269 21.296 182.361 20.192 183.729 19.4C185.121 18.608 186.681 18.212 188.409 18.212C190.113 18.212 191.649 18.608 193.017 19.4C194.409 20.192 195.501 21.296 196.293 22.712C197.109 24.104 197.517 25.724 197.517 27.572C197.517 29.42 197.109 31.052 196.293 32.468C195.501 33.86 194.409 34.952 193.017 35.744C191.625 36.536 190.077 36.932 188.373 36.932ZM188.373 32.936C189.573 32.936 190.617 32.492 191.505 31.604C192.393 30.692 192.837 29.348 192.837 27.572C192.837 25.796 192.393 24.464 191.505 23.576C190.617 22.664 189.585 22.208 188.409 22.208C187.185 22.208 186.129 22.664 185.241 23.576C184.377 24.464 183.945 25.796 183.945 27.572C183.945 29.348 184.377 30.692 185.241 31.604C186.129 32.492 187.173 32.936 188.373 32.936ZM208.39 36.5C206.518 36.5 205.018 36.044 203.89 35.132C202.762 34.22 202.198 32.6 202.198 30.272V22.496H199.138V18.644H202.198L202.738 13.856H206.806V18.644H211.63V22.496H206.806V30.308C206.806 31.172 206.986 31.772 207.346 32.108C207.73 32.42 208.378 32.576 209.29 32.576H211.522V36.5H208.39ZM221.242 36.932C219.706 36.932 218.446 36.692 217.462 36.212C216.478 35.708 215.746 35.048 215.266 34.232C214.786 33.416 214.546 32.516 214.546 31.532C214.546 29.876 215.194 28.532 216.49 27.5C217.786 26.468 219.73 25.952 222.322 25.952H226.858V25.52C226.858 24.296 226.51 23.396 225.814 22.82C225.118 22.244 224.254 21.956 223.222 21.956C222.286 21.956 221.47 22.184 220.774 22.64C220.078 23.072 219.646 23.72 219.478 24.584H214.978C215.098 23.288 215.53 22.16 216.274 21.2C217.042 20.24 218.026 19.508 219.226 19.004C220.426 18.476 221.77 18.212 223.258 18.212C225.802 18.212 227.806 18.848 229.27 20.12C230.734 21.392 231.466 23.192 231.466 25.52V36.5H227.542L227.11 33.62C226.582 34.58 225.838 35.372 224.878 35.996C223.942 36.62 222.73 36.932 221.242 36.932ZM222.286 33.332C223.606 33.332 224.626 32.9 225.346 32.036C226.09 31.172 226.558 30.104 226.75 28.832H222.826C221.602 28.832 220.726 29.06 220.198 29.516C219.67 29.948 219.406 30.488 219.406 31.136C219.406 31.832 219.67 32.372 220.198 32.756C220.726 33.14 221.422 33.332 222.286 33.332ZM235.363 36.5V18.644H239.467L239.899 21.992C240.547 20.84 241.423 19.928 242.527 19.256C243.655 18.56 244.975 18.212 246.487 18.212V23.072H245.191C244.183 23.072 243.283 23.228 242.491 23.54C241.699 23.852 241.075 24.392 240.619 25.16C240.187 25.928 239.971 26.996 239.971 28.364V36.5H235.363ZM251.369 44.42L255.509 35.312H254.429L247.481 18.644H252.485L257.489 31.208L262.709 18.644H267.605L256.265 44.42H251.369Z" fill="#111111"/>
</svg>
