<svg width="285" height="87" viewBox="0 0 285 87" fill="none" xmlns="http://www.w3.org/2000/svg">
<path d="M48.1824 7.85437H26.7685C19.0011 7.85437 14.4787 11.5849 14.4787 17.977V39.6265C14.4787 46.1235 19.0011 49.7702 26.7685 49.7702H48.1824C56.0749 49.7702 60.4696 46.1235 60.4696 39.6265V17.977C60.4696 11.5849 56.0749 7.85437 48.1824 7.85437Z" fill="url(#paint0_linear)"/>
<g opacity="0.5" filter="url(#filter0_f)">
<path d="M48.009 11.7012H35.9556C31.5835 11.7012 29.0379 14.2611 29.0379 18.6476V33.5041C29.0379 37.9625 31.5835 40.4649 35.9556 40.4649H48.009C52.4516 40.4649 54.9252 37.9625 54.9252 33.5041V18.6476C54.9252 14.2611 52.4516 11.7012 48.009 11.7012Z" fill="#5E48E8"/>
</g>
<g filter="url(#filter1_b)">
<mask id="path-3-outside-1" maskUnits="userSpaceOnUse" x="2.99988" y="14.3955" width="50" height="43" fill="black">
<rect fill="white" x="2.99988" y="14.3955" width="50" height="43"/>
<path d="M51.3359 21.9608C50.9441 20.8368 50.3458 19.7955 49.5716 18.8902C49.3282 18.6044 49.0619 18.3387 48.7755 18.0958C46.2882 16.1395 43.1543 15.189 39.9968 15.4331H16.3288C10.6915 15.4331 7.24886 17.2583 5.57058 20.8443C5.00403 22.0062 4.60559 23.2424 4.38718 24.5161C4.38718 24.9885 4.23656 25.4609 4.17201 25.9547C4.05692 27.0102 3.99946 28.071 3.99988 29.1327V41.8445C3.99941 42.9162 4.08576 43.9861 4.25808 45.0439C4.52908 46.9133 5.17292 48.7094 6.15152 50.3262C6.59731 51.1065 7.13945 51.8279 7.76525 52.4734C10.6415 55.104 14.455 56.4731 18.3513 56.2741H38.0173C41.9074 56.4746 45.7147 55.1049 48.5818 52.4734C49.2152 51.8291 49.7646 51.1077 50.2171 50.3262C51.2015 48.7083 51.8593 46.9138 52.1536 45.0439C52.308 43.9844 52.3871 42.9152 52.3902 41.8445V29.1327C52.4638 26.6988 52.1069 24.2711 51.3359 21.9608Z"/>
</mask>
<path d="M51.3359 21.9608C50.9441 20.8368 50.3458 19.7955 49.5716 18.8902C49.3282 18.6044 49.0619 18.3387 48.7755 18.0958C46.2882 16.1395 43.1543 15.189 39.9968 15.4331H16.3288C10.6915 15.4331 7.24886 17.2583 5.57058 20.8443C5.00403 22.0062 4.60559 23.2424 4.38718 24.5161C4.38718 24.9885 4.23656 25.4609 4.17201 25.9547C4.05692 27.0102 3.99946 28.071 3.99988 29.1327V41.8445C3.99941 42.9162 4.08576 43.9861 4.25808 45.0439C4.52908 46.9133 5.17292 48.7094 6.15152 50.3262C6.59731 51.1065 7.13945 51.8279 7.76525 52.4734C10.6415 55.104 14.455 56.4731 18.3513 56.2741H38.0173C41.9074 56.4746 45.7147 55.1049 48.5818 52.4734C49.2152 51.8291 49.7646 51.1077 50.2171 50.3262C51.2015 48.7083 51.8593 46.9138 52.1536 45.0439C52.308 43.9844 52.3871 42.9152 52.3902 41.8445V29.1327C52.4638 26.6988 52.1069 24.2711 51.3359 21.9608Z" fill="#8776EE" fill-opacity="0.42"/>
<path d="M51.3359 21.9608L51.8981 21.7732L51.8955 21.7658L51.3359 21.9608ZM49.5716 18.8902L49.1204 19.2744L49.1212 19.2754L49.5716 18.8902ZM48.7755 18.0958L49.1588 17.6438C49.1532 17.639 49.1476 17.6344 49.1419 17.6299L48.7755 18.0958ZM39.9968 15.4331V16.0258C40.012 16.0258 40.0273 16.0252 40.0425 16.024L39.9968 15.4331ZM5.57058 20.8443L6.10332 21.104L6.10733 21.0955L5.57058 20.8443ZM4.38718 24.5161L3.80308 24.4159C3.7974 24.449 3.79455 24.4825 3.79455 24.5161H4.38718ZM4.17201 25.9547L3.58425 25.8779L3.58288 25.8905L4.17201 25.9547ZM3.99988 29.1327H4.59251L4.59251 29.1325L3.99988 29.1327ZM3.99988 41.8445L4.59251 41.8448V41.8445H3.99988ZM4.25808 45.0439L4.84466 44.9589L4.84299 44.9486L4.25808 45.0439ZM6.15152 50.3262L6.66609 50.0322C6.66362 50.0279 6.66109 50.0236 6.65851 50.0193L6.15152 50.3262ZM7.76525 52.4734L7.33973 52.8859C7.348 52.8945 7.35653 52.9027 7.3653 52.9108L7.76525 52.4734ZM18.3513 56.2741V55.6815C18.3412 55.6815 18.3312 55.6817 18.3211 55.6823L18.3513 56.2741ZM38.0173 56.2741L38.0478 55.6823C38.0376 55.6817 38.0275 55.6815 38.0173 55.6815V56.2741ZM48.5818 52.4734L48.9826 52.9101C48.99 52.9032 48.9973 52.8961 49.0045 52.8889L48.5818 52.4734ZM50.2171 50.3262L49.7107 50.0181L49.7042 50.0292L50.2171 50.3262ZM52.1536 45.0439L52.739 45.136L52.74 45.1294L52.1536 45.0439ZM52.3902 41.8445L52.9829 41.8462V41.8445H52.3902ZM52.3902 29.1327L51.7979 29.1148C51.7977 29.1208 51.7976 29.1267 51.7976 29.1327H52.3902ZM51.8955 21.7658C51.4794 20.5721 50.844 19.4663 50.022 18.5051L49.1212 19.2754C49.8475 20.1247 50.4088 21.1015 50.7763 22.1559L51.8955 21.7658ZM50.0228 18.5061C49.7586 18.1958 49.4697 17.9074 49.1588 17.6438L48.3922 18.5478C48.6542 18.7699 48.8977 19.013 49.1204 19.2744L50.0228 18.5061ZM49.1419 17.6299C46.5376 15.5817 43.2566 14.5866 39.9511 14.8423L40.0425 16.024C43.0519 15.7913 46.0387 16.6972 48.4091 18.5616L49.1419 17.6299ZM39.9968 14.8405H16.3288V16.0258H39.9968V14.8405ZM16.3288 14.8405C13.4511 14.8405 11.0805 15.3057 9.19598 16.266C7.29976 17.2322 5.92717 18.6843 5.03383 20.593L6.10733 21.0955C6.89226 19.4183 8.08012 18.1648 9.73411 17.322C11.3998 16.4732 13.5692 16.0258 16.3288 16.0258V14.8405ZM5.0379 20.5845C4.44675 21.7969 4.03099 23.0869 3.80308 24.4159L4.97128 24.6162C5.18019 23.398 5.56132 22.2154 6.10325 21.104L5.0379 20.5845ZM3.79455 24.5161C3.79455 24.6935 3.76611 24.8841 3.72174 25.1159C3.68045 25.3317 3.61969 25.6078 3.58438 25.8779L4.75964 26.0315C4.78889 25.8078 4.83571 25.6008 4.88586 25.3388C4.93293 25.0928 4.9798 24.811 4.9798 24.5161H3.79455ZM3.58288 25.8905C3.46545 26.9673 3.40682 28.0497 3.40725 29.1329L4.59251 29.1325C4.59209 28.0923 4.64839 27.053 4.76115 26.019L3.58288 25.8905ZM3.40725 29.1327V41.8445H4.59251V29.1327H3.40725ZM3.40725 41.8442C3.40677 42.9479 3.49569 44.0498 3.67316 45.1392L4.84299 44.9486C4.67582 43.9224 4.59205 42.8844 4.59251 41.8448L3.40725 41.8442ZM3.67158 45.1289C3.95398 47.0769 4.62487 48.9485 5.64453 50.6331L6.65851 50.0193C5.72097 48.4704 5.10419 46.7497 4.84457 44.9589L3.67158 45.1289ZM5.63695 50.6202C6.10735 51.4436 6.67942 52.2048 7.33973 52.8859L8.19076 52.061C7.59948 51.451 7.08726 50.7694 6.66609 50.0322L5.63695 50.6202ZM7.3653 52.9108C10.3587 55.6484 14.3271 57.073 18.3815 56.866L18.3211 55.6823C14.5829 55.8732 10.9244 54.5596 8.1652 52.0361L7.3653 52.9108ZM18.3513 56.8667H38.0173V55.6815H18.3513V56.8667ZM37.9868 56.8659C42.0354 57.0746 45.9982 55.6491 48.9826 52.9101L48.1811 52.0368C45.4312 54.5607 41.7793 55.8746 38.0478 55.6823L37.9868 56.8659ZM49.0045 52.8889C49.6728 52.209 50.2525 51.4478 50.73 50.6231L49.7042 50.0292C49.2767 50.7676 48.7576 51.4492 48.1592 52.058L49.0045 52.8889ZM50.7234 50.6342C51.748 48.9502 52.4327 47.0824 52.739 45.136L51.5681 44.9518C51.286 46.7452 50.655 48.4663 49.7108 50.0181L50.7234 50.6342ZM52.74 45.1294C52.8985 44.0421 52.9797 42.945 52.9829 41.8462L51.7976 41.8428C51.7946 42.8854 51.7176 43.9266 51.5671 44.9584L52.74 45.1294ZM52.9829 41.8445V29.1327H51.7976V41.8445H52.9829ZM52.9826 29.1506C53.0582 26.647 52.6911 24.1496 51.8981 21.7732L50.7738 22.1484C51.5227 24.3925 51.8693 26.7507 51.7979 29.1148L52.9826 29.1506Z" fill="url(#paint1_linear)" mask="url(#path-3-outside-1)"/>
</g>
<g filter="url(#filter2_bd)">
<path d="M27.6955 41.5717C27.2183 41.5717 26.8657 41.3954 26.6374 41.0427L22.2185 33.2317C21.9695 32.8791 21.731 32.4538 21.5028 31.9559L21.3783 31.987C21.399 32.3397 21.4094 32.8687 21.4094 33.5741V46.2396C21.4094 46.8413 20.8596 47.1421 19.7601 47.1421H19.0755C17.9759 47.1421 17.4261 46.8413 17.4261 46.2396V26.1365C17.4261 25.5349 17.9759 25.2341 19.0755 25.2341H20.5381C21.4301 25.2341 22.011 25.483 22.2807 25.981L27.6955 35.5346C27.903 35.8873 28.0689 36.2296 28.1934 36.5615C28.2764 36.2918 28.4424 35.9391 28.6913 35.5035L34.1372 25.981C34.4069 25.483 34.9774 25.2341 35.8488 25.2341H37.2802C38.3798 25.2341 38.9296 25.5349 38.9296 26.1365V46.2396C38.9296 46.8413 38.3798 47.1421 37.2802 47.1421H36.5956C35.4961 47.1421 34.9463 46.8413 34.9463 46.2396V33.6363C34.9463 32.9309 34.9567 32.4019 34.9774 32.0492L34.8529 32.0181C34.6247 32.516 34.3861 32.9413 34.1372 33.294L29.7494 41.0427C29.5212 41.3954 29.1685 41.5717 28.6913 41.5717H27.6955Z" fill="url(#paint2_linear)"/>
<path d="M26.6374 41.0427L25.7184 41.5626L25.7338 41.59L25.7509 41.6163L26.6374 41.0427ZM22.2185 33.2317L23.1376 32.7118L23.1116 32.6659L23.0812 32.6228L22.2185 33.2317ZM21.5028 31.9559L22.4627 31.5159L22.0973 30.7188L21.2467 30.9314L21.5028 31.9559ZM21.3783 31.987L21.1222 30.9626L20.2727 31.1749L20.3242 32.049L21.3783 31.987ZM22.2807 25.981L21.3523 26.4839L21.3571 26.4928L21.3621 26.5016L22.2807 25.981ZM27.6955 35.5346L26.7768 36.0552L26.781 36.0626L26.7853 36.07L27.6955 35.5346ZM28.1934 36.5615L27.2047 36.9323L28.292 39.8317L29.2027 36.8721L28.1934 36.5615ZM28.6913 35.5035L27.7747 34.9792L27.7745 34.9796L28.6913 35.5035ZM34.1372 25.981L35.0538 26.5052L35.0599 26.4946L35.0657 26.4839L34.1372 25.981ZM34.9774 32.0492L36.0315 32.1112L36.083 31.2372L35.2335 31.0248L34.9774 32.0492ZM34.8529 32.0181L35.109 30.9937L34.2584 30.781L33.893 31.5781L34.8529 32.0181ZM34.1372 33.294L33.2745 32.685L33.2442 32.728L33.2183 32.7737L34.1372 33.294ZM29.7494 41.0427L30.6359 41.6163L30.6529 41.5902L30.6682 41.563L29.7494 41.0427ZM27.6955 40.5158C27.5869 40.5158 27.5474 40.496 27.5454 40.495C27.5436 40.4941 27.5436 40.494 27.5429 40.4934C27.542 40.4926 27.5351 40.4862 27.524 40.469L25.7509 41.6163C26.2029 42.3148 26.9174 42.6277 27.6955 42.6277V40.5158ZM27.5565 40.5227L23.1376 32.7118L21.2994 33.7517L25.7184 41.5626L27.5565 40.5227ZM23.0812 32.6228C22.8782 32.3353 22.6706 31.9695 22.4627 31.5159L20.5428 32.3958C20.7913 32.938 21.0609 33.4229 21.3558 33.8407L23.0812 32.6228ZM21.2467 30.9314L21.1222 30.9626L21.6344 33.0114L21.7589 32.9803L21.2467 30.9314ZM20.3242 32.049C20.343 32.3696 20.3534 32.8733 20.3534 33.5741H22.4654C22.4654 32.8641 22.455 32.3098 22.4324 31.925L20.3242 32.049ZM20.3534 33.5741V46.2396H22.4654V33.5741H20.3534ZM20.3534 46.2396C20.3534 46.2237 20.359 46.1598 20.4045 46.0851C20.4487 46.0126 20.4956 45.9872 20.4902 45.9901C20.4789 45.9963 20.4223 46.0231 20.2922 46.0469C20.1644 46.0702 19.9898 46.0861 19.7601 46.0861V48.198C20.3716 48.198 20.9968 48.1203 21.5039 47.8428C21.7734 47.6953 22.0265 47.4819 22.2081 47.1838C22.3911 46.8835 22.4654 46.5564 22.4654 46.2396H20.3534ZM19.7601 46.0861H19.0755V48.198H19.7601V46.0861ZM19.0755 46.0861C18.8457 46.0861 18.6712 46.0702 18.5433 46.0469C18.4132 46.0231 18.3566 45.9963 18.3453 45.9901C18.3399 45.9872 18.3869 46.0126 18.431 46.0851C18.4765 46.1598 18.4821 46.2237 18.4821 46.2396H16.3702C16.3702 46.5564 16.4445 46.8835 16.6274 47.1838C16.809 47.4819 17.0621 47.6953 17.3316 47.8428C17.8388 48.1203 18.464 48.198 19.0755 48.198V46.0861ZM18.4821 46.2396V26.1365H16.3702V46.2396H18.4821ZM18.4821 26.1365C18.4821 26.1525 18.4765 26.2164 18.431 26.2911C18.3869 26.3635 18.3399 26.389 18.3453 26.3861C18.3566 26.3799 18.4132 26.353 18.5433 26.3293C18.6712 26.306 18.8457 26.29 19.0755 26.29V24.1781C18.464 24.1781 17.8388 24.2558 17.3316 24.5334C17.0621 24.6808 16.809 24.8943 16.6274 25.1924C16.4445 25.4927 16.3702 25.8198 16.3702 26.1365H18.4821ZM19.0755 26.29H20.5381V24.1781H19.0755V26.29ZM20.5381 26.29C20.8957 26.29 21.1101 26.3414 21.2268 26.3914C21.3255 26.4337 21.3439 26.4684 21.3523 26.4839L23.2092 25.478C22.6635 24.4704 21.5775 24.1781 20.5381 24.1781V26.29ZM21.3621 26.5016L26.7768 36.0552L28.6142 35.0139L23.1994 25.4603L21.3621 26.5016ZM26.7853 36.07C26.9665 36.378 27.1046 36.6653 27.2047 36.9323L29.1821 36.1907C29.0333 35.7938 28.8394 35.3965 28.6057 34.9992L26.7853 36.07ZM29.2027 36.8721C29.2517 36.7128 29.3729 36.439 29.6081 36.0274L27.7745 34.9796C27.5118 35.4392 27.3011 35.8709 27.1842 36.251L29.2027 36.8721ZM29.608 36.0277L35.0538 26.5052L33.2206 25.4567L27.7747 34.9792L29.608 36.0277ZM35.0657 26.4839C35.0771 26.4628 35.0975 26.4288 35.1897 26.3886C35.2997 26.3406 35.5043 26.29 35.8488 26.29V24.1781C34.8171 24.1781 33.7505 24.4778 33.2087 25.478L35.0657 26.4839ZM35.8488 26.29H37.2802V24.1781H35.8488V26.29ZM37.2802 26.29C37.51 26.29 37.6845 26.306 37.8124 26.3293C37.9425 26.353 37.9991 26.3799 38.0104 26.3861C38.0158 26.389 37.9688 26.3635 37.9247 26.2911C37.8792 26.2164 37.8736 26.1525 37.8736 26.1365H39.9855C39.9855 25.8198 39.9112 25.4927 39.7283 25.1924C39.5467 24.8943 39.2936 24.6808 39.0241 24.5334C38.5169 24.2558 37.8917 24.1781 37.2802 24.1781V26.29ZM37.8736 26.1365V46.2396H39.9855V26.1365H37.8736ZM37.8736 46.2396C37.8736 46.2237 37.8792 46.1598 37.9247 46.0851C37.9688 46.0126 38.0158 45.9872 38.0104 45.9901C37.9991 45.9963 37.9425 46.0231 37.8124 46.0469C37.6845 46.0702 37.51 46.0861 37.2802 46.0861V48.198C37.8917 48.198 38.5169 48.1203 39.0241 47.8428C39.2936 47.6953 39.5467 47.4819 39.7283 47.1838C39.9112 46.8835 39.9855 46.5564 39.9855 46.2396H37.8736ZM37.2802 46.0861H36.5956V48.198H37.2802V46.0861ZM36.5956 46.0861C36.3659 46.0861 36.1913 46.0702 36.0635 46.0469C35.9334 46.0231 35.8768 45.9963 35.8655 45.9901C35.8601 45.9872 35.907 46.0126 35.9512 46.0851C35.9967 46.1598 36.0022 46.2237 36.0022 46.2396H33.8903C33.8903 46.5564 33.9646 46.8835 34.1476 47.1838C34.3292 47.4819 34.5823 47.6953 34.8518 47.8428C35.3589 48.1203 35.9841 48.198 36.5956 48.198V46.0861ZM36.0022 46.2396V33.6363H33.8903V46.2396H36.0022ZM36.0022 33.6363C36.0022 32.9356 36.0127 32.4318 36.0315 32.1112L33.9233 31.9872C33.9007 32.372 33.8903 32.9263 33.8903 33.6363H36.0022ZM35.2335 31.0248L35.109 30.9937L34.5968 33.0425L34.7213 33.0736L35.2335 31.0248ZM33.893 31.5781C33.6851 32.0318 33.4775 32.3975 33.2745 32.685L34.9999 33.9029C35.2948 33.4851 35.5644 33.0002 35.8129 32.4581L33.893 31.5781ZM33.2183 32.7737L28.8305 40.5224L30.6682 41.563L35.0561 33.8143L33.2183 32.7737ZM28.8628 40.469C28.8517 40.4862 28.8448 40.4926 28.8439 40.4934C28.8432 40.494 28.8432 40.4941 28.8415 40.495C28.8394 40.496 28.8 40.5158 28.6913 40.5158V42.6277C29.4695 42.6277 30.184 42.3148 30.6359 41.6163L28.8628 40.469ZM28.6913 40.5158H27.6955V42.6277H28.6913V40.5158Z" fill="url(#paint3_linear)"/>
</g>
<path d="M90.448 44.5V19.3H95.92L103.948 35.284L111.868 19.3H117.34V44.5H112.732V27.112L105.712 40.9H102.076L95.056 27.112V44.5H90.448ZM130.297 44.932C128.497 44.932 126.901 44.548 125.509 43.78C124.117 43.012 123.025 41.932 122.233 40.54C121.441 39.148 121.045 37.54 121.045 35.716C121.045 33.868 121.429 32.224 122.197 30.784C122.989 29.344 124.069 28.228 125.437 27.436C126.829 26.62 128.461 26.212 130.333 26.212C132.085 26.212 133.633 26.596 134.977 27.364C136.321 28.132 137.365 29.188 138.109 30.532C138.877 31.852 139.261 33.328 139.261 34.96C139.261 35.224 139.249 35.5 139.225 35.788C139.225 36.076 139.213 36.376 139.189 36.688H125.617C125.713 38.08 126.193 39.172 127.057 39.964C127.945 40.756 129.013 41.152 130.261 41.152C131.197 41.152 131.977 40.948 132.601 40.54C133.249 40.108 133.729 39.556 134.041 38.884H138.721C138.385 40.012 137.821 41.044 137.029 41.98C136.261 42.892 135.301 43.612 134.149 44.14C133.021 44.668 131.737 44.932 130.297 44.932ZM130.333 29.956C129.205 29.956 128.209 30.28 127.345 30.928C126.481 31.552 125.929 32.512 125.689 33.808H134.581C134.509 32.632 134.077 31.696 133.285 31C132.493 30.304 131.509 29.956 130.333 29.956ZM150.845 44.932C149.165 44.932 147.665 44.524 146.345 43.708C145.025 42.892 143.981 41.776 143.213 40.36C142.445 38.944 142.061 37.336 142.061 35.536C142.061 33.736 142.445 32.14 143.213 30.748C143.981 29.332 145.025 28.228 146.345 27.436C147.665 26.62 149.165 26.212 150.845 26.212C152.189 26.212 153.365 26.464 154.373 26.968C155.381 27.472 156.197 28.18 156.821 29.092V18.58H161.429V44.5H157.325L156.821 41.944C156.245 42.736 155.477 43.432 154.517 44.032C153.581 44.632 152.357 44.932 150.845 44.932ZM151.817 40.9C153.305 40.9 154.517 40.408 155.453 39.424C156.413 38.416 156.893 37.132 156.893 35.572C156.893 34.012 156.413 32.74 155.453 31.756C154.517 30.748 153.305 30.244 151.817 30.244C150.353 30.244 149.141 30.736 148.181 31.72C147.221 32.704 146.741 33.976 146.741 35.536C146.741 37.096 147.221 38.38 148.181 39.388C149.141 40.396 150.353 40.9 151.817 40.9ZM168.105 23.872C167.265 23.872 166.569 23.62 166.017 23.116C165.489 22.612 165.225 21.976 165.225 21.208C165.225 20.44 165.489 19.816 166.017 19.336C166.569 18.832 167.265 18.58 168.105 18.58C168.945 18.58 169.629 18.832 170.157 19.336C170.709 19.816 170.985 20.44 170.985 21.208C170.985 21.976 170.709 22.612 170.157 23.116C169.629 23.62 168.945 23.872 168.105 23.872ZM165.801 44.5V26.644H170.409V44.5H165.801ZM183.467 44.932C181.643 44.932 180.035 44.536 178.643 43.744C177.251 42.952 176.147 41.848 175.331 40.432C174.539 39.016 174.143 37.396 174.143 35.572C174.143 33.748 174.539 32.128 175.331 30.712C176.147 29.296 177.251 28.192 178.643 27.4C180.035 26.608 181.643 26.212 183.467 26.212C185.747 26.212 187.667 26.812 189.227 28.012C190.787 29.188 191.783 30.82 192.215 32.908H187.355C187.115 32.044 186.635 31.372 185.915 30.892C185.219 30.388 184.391 30.136 183.431 30.136C182.159 30.136 181.079 30.616 180.191 31.576C179.303 32.536 178.859 33.868 178.859 35.572C178.859 37.276 179.303 38.608 180.191 39.568C181.079 40.528 182.159 41.008 183.431 41.008C184.391 41.008 185.219 40.768 185.915 40.288C186.635 39.808 187.115 39.124 187.355 38.236H192.215C191.783 40.252 190.787 41.872 189.227 43.096C187.667 44.32 185.747 44.932 183.467 44.932ZM204.373 44.932C202.645 44.932 201.085 44.536 199.693 43.744C198.325 42.952 197.233 41.86 196.417 40.468C195.625 39.052 195.229 37.42 195.229 35.572C195.229 33.724 195.637 32.104 196.453 30.712C197.269 29.296 198.361 28.192 199.729 27.4C201.121 26.608 202.681 26.212 204.409 26.212C206.113 26.212 207.649 26.608 209.017 27.4C210.409 28.192 211.501 29.296 212.293 30.712C213.109 32.104 213.517 33.724 213.517 35.572C213.517 37.42 213.109 39.052 212.293 40.468C211.501 41.86 210.409 42.952 209.017 43.744C207.625 44.536 206.077 44.932 204.373 44.932ZM204.373 40.936C205.573 40.936 206.617 40.492 207.505 39.604C208.393 38.692 208.837 37.348 208.837 35.572C208.837 33.796 208.393 32.464 207.505 31.576C206.617 30.664 205.585 30.208 204.409 30.208C203.185 30.208 202.129 30.664 201.241 31.576C200.377 32.464 199.945 33.796 199.945 35.572C199.945 37.348 200.377 38.692 201.241 39.604C202.129 40.492 203.173 40.936 204.373 40.936ZM224.39 44.5C222.518 44.5 221.018 44.044 219.89 43.132C218.762 42.22 218.198 40.6 218.198 38.272V30.496H215.138V26.644H218.198L218.738 21.856H222.806V26.644H227.63V30.496H222.806V38.308C222.806 39.172 222.986 39.772 223.346 40.108C223.73 40.42 224.378 40.576 225.29 40.576H227.522V44.5H224.39ZM237.242 44.932C235.706 44.932 234.446 44.692 233.462 44.212C232.478 43.708 231.746 43.048 231.266 42.232C230.786 41.416 230.546 40.516 230.546 39.532C230.546 37.876 231.194 36.532 232.49 35.5C233.786 34.468 235.73 33.952 238.322 33.952H242.858V33.52C242.858 32.296 242.51 31.396 241.814 30.82C241.118 30.244 240.254 29.956 239.222 29.956C238.286 29.956 237.47 30.184 236.774 30.64C236.078 31.072 235.646 31.72 235.478 32.584H230.978C231.098 31.288 231.53 30.16 232.274 29.2C233.042 28.24 234.026 27.508 235.226 27.004C236.426 26.476 237.77 26.212 239.258 26.212C241.802 26.212 243.806 26.848 245.27 28.12C246.734 29.392 247.466 31.192 247.466 33.52V44.5H243.542L243.11 41.62C242.582 42.58 241.838 43.372 240.878 43.996C239.942 44.62 238.73 44.932 237.242 44.932ZM238.286 41.332C239.606 41.332 240.626 40.9 241.346 40.036C242.09 39.172 242.558 38.104 242.75 36.832H238.826C237.602 36.832 236.726 37.06 236.198 37.516C235.67 37.948 235.406 38.488 235.406 39.136C235.406 39.832 235.67 40.372 236.198 40.756C236.726 41.14 237.422 41.332 238.286 41.332ZM251.363 44.5V26.644H255.467L255.899 29.992C256.547 28.84 257.423 27.928 258.527 27.256C259.655 26.56 260.975 26.212 262.487 26.212V31.072H261.191C260.183 31.072 259.283 31.228 258.491 31.54C257.699 31.852 257.075 32.392 256.619 33.16C256.187 33.928 255.971 34.996 255.971 36.364V44.5H251.363ZM267.369 52.42L271.509 43.312H270.429L263.481 26.644H268.485L273.489 39.208L278.709 26.644H283.605L272.265 52.42H267.369Z" fill="#111111"/>
<defs>
<filter id="filter0_f" x="20.1485" y="2.81178" width="43.6662" height="46.5426" filterUnits="userSpaceOnUse" color-interpolation-filters="sRGB">
<feFlood flood-opacity="0" result="BackgroundImageFix"/>
<feBlend mode="normal" in="SourceGraphic" in2="BackgroundImageFix" result="shape"/>
<feGaussianBlur stdDeviation="4.4447" result="effect1_foregroundBlur"/>
</filter>
<filter id="filter1_b" x="-5.48214" y="5.91346" width="67.3638" height="59.8619" filterUnits="userSpaceOnUse" color-interpolation-filters="sRGB">
<feFlood flood-opacity="0" result="BackgroundImageFix"/>
<feGaussianBlur in="BackgroundImage" stdDeviation="4.4447"/>
<feComposite in2="SourceAlpha" operator="in" result="effect1_backgroundBlur"/>
<feBlend mode="normal" in="SourceGraphic" in2="effect1_backgroundBlur" result="shape"/>
</filter>
<filter id="filter2_bd" x="-22.1721" y="-14.3641" width="100.7" height="101.104" filterUnits="userSpaceOnUse" color-interpolation-filters="sRGB">
<feFlood flood-opacity="0" result="BackgroundImageFix"/>
<feGaussianBlur in="BackgroundImage" stdDeviation="19.7991"/>
<feComposite in2="SourceAlpha" operator="in" result="effect1_backgroundBlur"/>
<feColorMatrix in="SourceAlpha" type="matrix" values="0 0 0 0 0 0 0 0 0 0 0 0 0 0 0 0 0 0 127 0" result="hardAlpha"/>
<feOffset dx="13.1994" dy="13.1994"/>
<feGaussianBlur stdDeviation="13.1994"/>
<feColorMatrix type="matrix" values="0 0 0 0 0.529412 0 0 0 0 0.462745 0 0 0 0 0.933333 0 0 0 0.5 0"/>
<feBlend mode="normal" in2="effect1_backgroundBlur" result="effect2_dropShadow"/>
<feBlend mode="normal" in="SourceGraphic" in2="effect2_dropShadow" result="shape"/>
</filter>
<linearGradient id="paint0_linear" x1="19.4235" y1="19.3073" x2="46.8881" y2="75.8827" gradientUnits="userSpaceOnUse">
<stop stop-color="#8776EE"/>
<stop offset="1" stop-color="#5E48E8"/>
</linearGradient>
<linearGradient id="paint1_linear" x1="11.7043" y1="20.1602" x2="36.5535" y2="56.5818" gradientUnits="userSpaceOnUse">
<stop stop-color="white" stop-opacity="0.25"/>
<stop offset="1" stop-color="white" stop-opacity="0"/>
</linearGradient>
<linearGradient id="paint2_linear" x1="39.9419" y1="25.7567" x2="10.1034" y2="26.5854" gradientUnits="userSpaceOnUse">
<stop stop-color="white"/>
<stop offset="1" stop-color="white" stop-opacity="0.2"/>
</linearGradient>
<linearGradient id="paint3_linear" x1="19.3239" y1="23.7423" x2="39.8085" y2="45.3543" gradientUnits="userSpaceOnUse">
<stop stop-color="white" stop-opacity="0.25"/>
<stop offset="1" stop-color="white" stop-opacity="0"/>
</linearGradient>
</defs>
</svg>
