<svg width="359" height="249" viewBox="0 0 359 249" fill="none" xmlns="http://www.w3.org/2000/svg">
<path d="M79.5761 135.38C79.5761 135.38 75.4365 131.122 75.3171 128.989C75.3171 128.989 61.5927 122.009 64.9044 106.513C64.9044 106.513 54.2528 99.6524 58.6313 85.9314C63.0097 72.2104 70.3416 82.6205 73.1836 73.1575C76.0256 63.6944 85.7298 51.979 104.891 51.3901C124.061 50.8011 132.699 60.0254 129.976 69.1303C129.976 69.1303 142.044 75.2825 135.182 88.4146C135.182 88.4146 145.714 97.225 141.097 107.134C136.48 117.042 117.669 129.816 115.185 135.38C112.709 140.935 79.5761 135.38 79.5761 135.38Z" fill="#111111"/>
<path d="M116.307 121.929L116.482 130.628V130.636L116.737 142.869L91.5571 143.967L91.6845 102.637C91.0715 102.637 82.8002 103.123 81.821 96.4531C80.8419 89.7756 89.0415 88.8604 89.0415 88.8604C119.444 91.7892 126.266 68.3186 126.266 68.3186C129.22 68.6688 129.259 77.718 129.259 77.718C129.259 77.718 128.631 76.0944 132.062 97.4718C135.493 118.857 116.307 121.929 116.307 121.929Z" fill="#C8785B"/>
<path d="M116.482 130.628V130.636C116.482 130.636 93.3801 126.856 93.3562 103.465C93.3562 103.465 95.7126 122.868 116.307 121.929L116.482 130.628Z" fill="#A75236"/>
<path d="M161.899 228.363C161.899 228.363 149.4 228.649 132.348 228.936C99.4542 229.485 49.6117 230.002 39.8995 228.363C25.1641 225.864 29.9246 210.909 30.9436 200.817C31.9626 190.726 40.9185 161.596 48.2902 145.933C55.6619 130.27 90.8088 132.809 90.8088 132.809L100.561 141.986L115.185 132.65C115.185 132.65 124.372 133.032 129.928 133.263C135.485 133.486 139.338 138.356 139.338 138.356L157.703 160.808L153.054 219.409L154.487 220.858L161.899 228.363Z" fill="white"/>
<path d="M95.649 183.196C95.5216 183.196 95.3863 183.133 95.3146 183.013L76.4236 153.526L83.4769 149.133L74.5051 143.53L83.9545 134.671C84.1138 134.52 84.3685 134.528 84.5198 134.687C84.671 134.846 84.6631 135.101 84.5038 135.252L75.8107 143.402L84.9815 149.133L77.5222 153.773L95.9753 182.584C96.0948 182.767 96.039 183.013 95.8559 183.133C95.8002 183.172 95.7206 183.196 95.649 183.196Z" fill="#A3CDF3"/>
<path d="M102.447 183.761C102.36 183.761 102.272 183.738 102.201 183.674C102.026 183.539 101.994 183.292 102.129 183.117L124.682 154.163L117.469 149.809L127.317 143.912L118.998 136.621C118.831 136.478 118.815 136.223 118.958 136.056C119.101 135.889 119.356 135.873 119.523 136.016L128.662 144.023L119.014 149.801L125.86 153.932L102.758 183.594C102.686 183.706 102.567 183.761 102.447 183.761Z" fill="#A3CDF3"/>
<path d="M60.8921 207.622C60.8921 207.622 66.9742 200.698 64.5859 194.769C62.1977 188.847 55.5027 177.649 69.6649 166.913C69.6649 166.913 61.736 175.954 64.2755 181.724C66.815 187.494 69.5057 195.962 65.2785 202.656L134.928 213.894L60.8921 207.622Z" fill="#E7EFF5"/>
<path d="M133.487 164.294C133.487 164.294 140.54 172.356 138.828 182.034C137.117 191.712 131.313 200.682 138.398 210.256C138.398 210.256 135.437 199.974 139.099 193.121C142.761 186.269 145.078 171.656 133.487 164.294Z" fill="#E7EFF5"/>
<path d="M159.686 159.845L157.703 160.808L138.398 216.536L160.585 221.049L159.686 159.845Z" fill="#E7EFF5"/>
<path d="M88.7071 126.084C88.7071 126.084 100.553 126.553 102.646 137.815C102.646 137.815 104.438 126.394 116.482 126.394L116.833 136.542L99.096 181.223H97.2331L88.325 137.855L88.7071 126.084Z" fill="#D6D8E7"/>
<path d="M102.178 137.8L101.924 154.042L102.72 154.054L102.974 137.812L102.178 137.8Z" fill="white"/>
<path d="M108.888 88.7966C108.888 88.7966 111.706 83.9656 119.062 86.9024" stroke="#111111" stroke-miterlimit="10" stroke-linecap="round"/>
<path d="M113.37 101.133C109.469 101.133 106.3 97.9653 106.3 94.0655C106.3 90.1657 109.469 86.998 113.37 86.998C117.27 86.998 120.439 90.1657 120.439 94.0655C120.439 97.9653 117.27 101.133 113.37 101.133ZM113.37 87.7939C109.915 87.7939 107.097 90.6034 107.097 94.0655C107.097 97.5276 109.907 100.337 113.37 100.337C116.833 100.337 119.643 97.5276 119.643 94.0655C119.643 90.6034 116.833 87.7939 113.37 87.7939Z" fill="white"/>
<path d="M129.713 99.3341C125.812 99.3341 122.644 96.1665 122.644 92.2667C122.644 88.3668 125.812 85.1992 129.713 85.1992C133.614 85.1992 136.782 88.3668 136.782 92.2667C136.782 96.1665 133.614 99.3341 129.713 99.3341ZM129.713 85.9951C126.258 85.9951 123.44 88.8046 123.44 92.2667C123.44 95.7288 126.25 98.5382 129.713 98.5382C133.176 98.5382 135.986 95.7288 135.986 92.2667C135.986 88.8046 133.168 85.9951 129.713 85.9951Z" fill="white"/>
<path d="M106.706 92.1713C106.683 92.1713 106.651 92.1713 106.627 92.1633L88.8584 88.558C88.6435 88.5182 88.5002 88.3033 88.5479 88.0884C88.5957 87.8735 88.7947 87.7302 89.0176 87.778L106.786 91.3833C107.001 91.4231 107.144 91.638 107.097 91.8529C107.057 92.0439 106.89 92.1713 106.706 92.1713Z" fill="white"/>
<path d="M122.859 86.8149C122.859 86.8149 124.356 82.2704 130.048 84.0532" stroke="#111111" stroke-miterlimit="10" stroke-linecap="round"/>
<path d="M120.733 88.168C120.733 88.168 119.929 93.381 122.055 93.8426C124.18 94.3042 125.677 93.6675 125.733 95.6254C125.789 97.5833 125.375 99.4775 120.582 99.8197" fill="#C8785B"/>
<path d="M120.582 100.218C120.375 100.218 120.2 100.058 120.184 99.8515C120.168 99.6286 120.335 99.4456 120.55 99.4217C125.064 99.0954 125.383 97.4479 125.335 95.6333C125.303 94.6225 124.961 94.5509 123.631 94.4474C123.138 94.4076 122.588 94.3599 121.967 94.2325C119.547 93.7072 120.248 88.6773 120.335 88.1122C120.367 87.8973 120.574 87.7461 120.789 87.7779C121.004 87.8098 121.155 88.0167 121.123 88.2316C120.932 89.4891 120.702 93.1422 122.135 93.4526C122.7 93.5719 123.225 93.6197 123.695 93.6515C124.921 93.747 126.075 93.8425 126.131 95.6094C126.195 97.7901 125.574 99.8594 120.614 100.218C120.606 100.218 120.59 100.218 120.582 100.218Z" fill="#8A402C"/>
<path d="M116.021 94.2484C116.847 94.2484 117.517 93.5785 117.517 92.7521C117.517 91.9258 116.847 91.2559 116.021 91.2559C115.194 91.2559 114.524 91.9258 114.524 92.7521C114.524 93.5785 115.194 94.2484 116.021 94.2484Z" fill="#111111"/>
<path d="M128.217 93.2696C129.043 93.2696 129.713 92.5997 129.713 91.7734C129.713 90.947 129.043 90.2771 128.217 90.2771C127.39 90.2771 126.72 90.947 126.72 91.7734C126.72 92.5997 127.39 93.2696 128.217 93.2696Z" fill="#111111"/>
<path d="M86.2393 98.4906C86.1199 98.4906 86.0005 98.4349 85.9209 98.3314C85.7855 98.1563 85.8253 97.9096 86.0005 97.7743L88.6036 95.8244L85.4591 93.0468C85.292 92.9035 85.276 92.6488 85.4273 92.4817C85.5706 92.3145 85.8253 92.2986 85.9925 92.4498L89.8615 95.8801L86.4781 98.411C86.4065 98.4667 86.3189 98.4906 86.2393 98.4906Z" fill="#8A402C"/>
<path d="M117.509 116.255C117.414 116.255 117.318 116.223 117.247 116.151C115.392 114.496 113.187 116.103 113.091 116.175C112.916 116.31 112.661 116.271 112.534 116.095C112.406 115.92 112.438 115.674 112.613 115.538C113.577 114.814 115.901 113.891 117.772 115.562C117.939 115.706 117.947 115.96 117.804 116.127C117.732 116.207 117.621 116.255 117.509 116.255Z" fill="#8A402C"/>
<path d="M112.335 103.465C111.809 101.809 110.496 111.83 115.615 112.06C120.733 112.291 121.768 108.097 121.768 108.097C121.768 108.097 122.286 106.258 120.964 105.741C119.643 105.224 112.797 104.929 112.335 103.465Z" fill="white"/>
<path d="M123.042 92.6648H119.794C119.571 92.6648 119.396 92.4897 119.396 92.2668C119.396 92.044 119.571 91.8689 119.794 91.8689H123.042C123.265 91.8689 123.44 92.044 123.44 92.2668C123.44 92.4897 123.265 92.6648 123.042 92.6648Z" fill="white"/>
<path d="M146.837 228.363C146.837 228.363 138.916 223.134 144.775 203.818C150.634 184.502 166.158 132.554 166.158 132.554C166.158 132.554 169.987 111.408 193.28 114.647C198.264 116.764 220.832 133.963 220.832 133.963L244.747 115.506L272.514 110.031L291.445 172.595L287.592 228.371H146.837V228.363Z" fill="white"/>
<path d="M161.899 228.363C161.899 228.363 149.4 228.649 132.348 228.936L131.982 228.363C131.982 228.363 126.449 218.565 134.928 213.894C138.398 214.116 140.89 213.83 144.807 216.233C147.052 217.61 151.287 219.497 154.487 220.858L161.899 228.363Z" fill="#C8785B"/>
<path d="M213.063 187.86C212.919 187.86 212.776 187.781 212.704 187.645L186.107 135.706L192.468 132.18L183.52 127.079L192.317 118.961C192.476 118.81 192.731 118.818 192.882 118.985C193.033 119.144 193.017 119.399 192.858 119.55L184.858 126.936L194.092 132.196L187.166 136.04L213.413 187.295C213.516 187.494 213.437 187.733 213.238 187.829C213.19 187.844 213.126 187.86 213.063 187.86Z" fill="#A3CDF3"/>
<path d="M229.86 191.004C229.812 191.004 229.756 190.996 229.709 190.972C229.51 190.884 229.406 190.654 229.494 190.455L252.246 136.056L245.344 132.626L253.297 125.352L247.063 117.377C246.928 117.202 246.96 116.955 247.135 116.82C247.31 116.684 247.557 116.716 247.692 116.891L254.371 125.447L246.729 132.435L253.257 135.674L230.218 190.757C230.163 190.916 230.011 191.004 229.86 191.004Z" fill="#A3CDF3"/>
<path d="M192.245 163.156L183.496 198.302L219.017 202.504L188.742 194.108L192.245 163.156Z" fill="#E7EFF5"/>
<path d="M253.83 119.247L263.805 189.213L258.821 191.481L253.83 119.247Z" fill="#E7EFF5"/>
<path d="M196.656 74.4548C196.656 74.4548 192.651 67.276 198.423 64.57C198.423 64.57 192.89 40.5741 212.896 40.6855C232.901 40.8049 232.901 40.8049 232.901 40.8049C232.901 40.8049 234.549 37.5099 237.964 37.1597C241.379 36.8096 244.197 41.0437 244.197 41.0437C244.197 41.0437 253.615 39.7464 256.433 46.3363C259.259 52.9262 253.607 60.2165 253.607 60.2165C253.607 60.2165 253.368 71.5101 246.665 72.3378L196.656 74.4548Z" fill="#111111"/>
<path d="M232.782 111.631L233.188 121.157L233.371 125.399L200.429 124.93L203.128 114.217L204.306 84.101C204.306 84.101 194.307 85.5176 194.307 76.5719C194.307 67.6341 206.782 69.401 206.782 69.401C206.782 69.401 214.193 72.9268 214.663 57.7493C214.663 57.7493 218.779 64.4586 246.904 61.8719C246.904 61.8719 251.378 107.747 232.782 111.631Z" fill="#FABCA6"/>
<path d="M233.188 121.157C232.622 121.078 209.003 117.655 206.24 93.6118C206.742 96.9147 210.253 112.259 232.782 111.631L233.188 121.157Z" fill="#F8A891"/>
<path d="M193.288 114.639L203.128 114.217L217.091 122.876H227.32L232.909 114.631L244.755 115.507L224.319 204.59H222.178L193.288 114.639Z" fill="#76B4EE"/>
<path d="M217.178 121.722L213.54 135.977L216.462 139.972L211.749 172.118L222.178 204.59H224.319L231.699 172.436L226.66 139.184L229.581 135.053L226.731 121.722H217.178Z" fill="#5E48E8"/>
<path d="M208.35 136.398L197.316 118.34L197.993 117.926L208.636 135.332L214.209 132.244L214.599 132.936L208.35 136.398Z" fill="white"/>
<path d="M234.549 135.539L228.308 130.557L228.801 129.936L234.167 134.218L239.891 118.006L240.647 118.268L234.549 135.539Z" fill="white"/>
<path d="M208.39 223.174C208.39 223.174 204.815 215.334 209.09 209.843C213.357 204.351 229.048 201.828 229.048 201.828C229.048 201.828 232.973 201.94 235.234 204.59C237.502 207.232 242.207 211.848 242.207 211.848C242.207 211.848 245.519 216.202 240.201 218.558L241.849 222.481L227.559 222.219L225.099 218.995C225.099 218.995 223.73 222.219 221.724 222.394C219.718 222.569 208.39 223.174 208.39 223.174Z" fill="#FABCA6"/>
<path d="M236.527 210.884L235.825 211.259L239.835 218.754L240.537 218.379L236.527 210.884Z" fill="#F8A58F"/>
<path d="M231.047 214.605L230.375 215.031L235.165 222.578L235.837 222.152L231.047 214.605Z" fill="#F8A58F"/>
<path d="M339.393 172.356L321.815 228.363H204.059L201.695 224.598C201.082 223.619 201.782 222.354 202.929 222.354H245.145L259.02 170.096C259.816 167.127 262.507 165.058 265.58 165.058H334.035C337.832 165.058 340.531 168.735 339.393 172.356Z" fill="#272848"/>
<path d="M269.616 165.058C269.616 165.058 265.795 166.141 264.617 171.234C263.518 175.954 250.876 221.645 249.014 228.363H204.059L201.695 224.598C201.082 223.619 201.782 222.354 202.929 222.354H245.145L259.02 170.096C259.816 167.127 262.507 165.058 265.58 165.058H269.616Z" fill="#111111"/>
<path d="M234.557 88.7728C233.649 88.7728 232.583 88.5897 231.365 88.2157C231.158 88.152 231.038 87.9292 231.102 87.7222C231.166 87.5153 231.388 87.3959 231.595 87.4596C234.238 88.2634 236.03 88.1441 236.913 87.1014C239.23 84.3636 235.178 76.2217 235.138 76.1421C235.042 75.9432 235.122 75.7044 235.313 75.6089C235.504 75.5054 235.751 75.585 235.847 75.784C236.022 76.1342 240.169 84.475 237.518 87.6108C236.865 88.3828 235.878 88.7728 234.557 88.7728Z" fill="#F8A58F"/>
<path d="M228.125 87.372C224.2 87.372 221.008 84.1805 221.008 80.2568C221.008 76.3331 224.2 73.1416 228.125 73.1416C232.049 73.1416 235.242 76.3331 235.242 80.2568C235.242 84.1805 232.041 87.372 228.125 87.372ZM228.125 73.9375C224.638 73.9375 221.804 76.7708 221.804 80.2568C221.804 83.7428 224.638 86.5761 228.125 86.5761C231.611 86.5761 234.445 83.7428 234.445 80.2568C234.445 76.7708 231.603 73.9375 228.125 73.9375Z" fill="white"/>
<path d="M246.036 89.2822C242.112 89.2822 238.919 86.0907 238.919 82.167C238.919 78.2432 242.112 75.0518 246.036 75.0518C249.961 75.0518 253.153 78.2432 253.153 82.167C253.153 86.0907 249.961 89.2822 246.036 89.2822ZM246.036 75.8476C242.549 75.8476 239.715 78.681 239.715 82.167C239.715 85.6529 242.549 88.4863 246.036 88.4863C249.523 88.4863 252.357 85.6529 252.357 82.167C252.357 78.681 249.515 75.8476 246.036 75.8476Z" fill="white"/>
<path d="M228.761 94.4315C228.093 94.4315 227.456 94.328 226.843 94.1211C223.73 93.0705 222.472 89.7517 222.425 89.6084C222.345 89.4015 222.456 89.1707 222.663 89.0991C222.87 89.0195 223.101 89.1309 223.173 89.3378C223.181 89.3697 224.351 92.4418 227.106 93.373C228.945 93.9937 231.086 93.5321 233.482 92.012C233.665 91.8926 233.912 91.9483 234.031 92.1314C234.151 92.3144 234.095 92.5612 233.912 92.6805C232.065 93.8425 230.346 94.4315 228.761 94.4315Z" fill="#F8A58F"/>
<path d="M207.344 67.9997L206.967 68.7004L222.311 76.9584L222.688 76.2576L207.344 67.9997Z" fill="white"/>
<path d="M239.309 79.8589H234.835V80.6548H239.309V79.8589Z" fill="white"/>
<path d="M221.732 74.8528C221.676 74.8528 221.629 74.8449 221.573 74.821C221.374 74.7335 221.278 74.5027 221.366 74.2957C221.414 74.1923 222.488 71.7171 225.219 70.6904C227.281 69.9184 229.693 70.189 232.392 71.4942C232.591 71.5897 232.67 71.8285 232.575 72.0275C232.479 72.2264 232.24 72.306 232.041 72.2105C229.542 71.0008 227.344 70.7381 225.49 71.4385C223.077 72.3458 222.098 74.5822 222.09 74.6061C222.035 74.7653 221.883 74.8528 221.732 74.8528Z" fill="#111111"/>
<path d="M240.408 74.8527C240.233 74.8527 240.074 74.7333 240.026 74.5582C239.97 74.3433 240.098 74.1284 240.305 74.0727C240.91 73.9056 246.275 72.5287 247.684 74.2001C247.827 74.3672 247.804 74.6219 247.636 74.7652C247.469 74.9084 247.222 74.8845 247.071 74.7174C246.259 73.7464 242.613 74.2797 240.512 74.8447C240.48 74.8527 240.44 74.8527 240.408 74.8527Z" fill="#111111"/>
<path d="M228.419 84.0771C229.215 84.0771 229.86 83.2219 229.86 82.167C229.86 81.112 229.215 80.2568 228.419 80.2568C227.623 80.2568 226.978 81.112 226.978 82.167C226.978 83.2219 227.623 84.0771 228.419 84.0771Z" fill="#111111"/>
<path d="M243.314 85.1037C244.11 85.1037 244.755 84.2485 244.755 83.1936C244.755 82.1386 244.11 81.2834 243.314 81.2834C242.518 81.2834 241.873 82.1386 241.873 83.1936C241.873 84.2485 242.518 85.1037 243.314 85.1037Z" fill="#111111"/>
<path d="M200.278 79.1984C200.142 79.1984 200.015 79.1268 199.935 79.0074C199.824 78.8164 199.88 78.5776 200.071 78.4582L202.156 77.1928L199.935 73.3009C199.824 73.1099 199.896 72.8712 200.087 72.7597C200.278 72.6563 200.516 72.7199 200.628 72.911L203.239 77.4793L200.493 79.1507C200.421 79.1825 200.349 79.1984 200.278 79.1984Z" fill="#F8A58F"/>
<path d="M272.522 110.023C272.522 110.023 270.444 116.629 263.669 115.706C256.895 114.782 252.755 113.851 252.755 113.851C252.755 113.851 252.19 115.459 255.183 115.793C258.177 116.135 256.401 118.205 256.401 118.205C256.401 118.205 244.962 122.2 242.494 114.567C242.35 113.071 243.314 111.853 243.314 111.853C243.314 111.853 240.925 110.485 241.499 107.134C241.499 107.134 238.219 105.2 239.787 101.077C239.787 101.077 238.036 100.592 237.463 98.5622C237.463 98.5622 235.783 95.2195 238.012 93.6118C239.899 92.2588 247.517 89.5289 255.454 91.5266C256.943 91.9007 258.431 92.4339 259.904 93.182C269.242 97.9016 272.522 110.023 272.522 110.023Z" fill="#FABCA6"/>
<path d="M255.454 91.5266C255.454 91.5266 245.718 91.1048 240.265 94.0257C240.265 94.0257 236.125 95.7846 239.787 101.077C239.787 101.077 238.036 100.592 237.463 98.5622C237.463 98.5622 235.783 95.2195 238.012 93.6118C239.899 92.2588 247.517 89.5289 255.454 91.5266Z" fill="#F8A58F"/>
<path d="M239.787 101.483C239.731 101.483 239.684 101.475 239.628 101.451C239.429 101.364 239.333 101.133 239.421 100.926C241.785 95.4501 248.082 95.6969 248.146 95.7128C248.369 95.7207 248.536 95.9118 248.52 96.1266C248.512 96.3495 248.321 96.5246 248.106 96.5007C247.875 96.4928 242.295 96.2779 240.153 101.236C240.082 101.387 239.938 101.483 239.787 101.483Z" fill="#F8A58F"/>
<path d="M241.499 107.532C241.443 107.532 241.387 107.516 241.331 107.492C241.132 107.396 241.045 107.158 241.14 106.959C243.194 102.613 249.069 101.053 249.316 100.99C249.531 100.934 249.746 101.061 249.802 101.276C249.857 101.491 249.73 101.706 249.515 101.762C249.459 101.778 243.752 103.29 241.865 107.301C241.785 107.444 241.642 107.532 241.499 107.532Z" fill="#F8A58F"/>
<path d="M243.314 112.259C243.226 112.259 243.147 112.235 243.075 112.18C242.9 112.044 242.868 111.798 243.003 111.623C247.732 105.463 252.867 107.556 252.914 107.58C253.113 107.667 253.209 107.898 253.121 108.097C253.034 108.296 252.795 108.391 252.604 108.312C252.421 108.232 247.971 106.457 243.632 112.108C243.545 112.204 243.433 112.259 243.314 112.259Z" fill="#F8A58F"/>
<path d="M169.095 228.689H161.7C156.501 228.689 152.282 224.471 152.282 219.274V207.24H178.513V219.274C178.513 224.471 174.294 228.689 169.095 228.689Z" fill="#76B4EE"/>
<path d="M153.078 223.468C148.222 223.468 144.273 220.149 144.273 216.066C144.273 211.983 148.222 208.665 153.078 208.665V210.654C149.321 210.654 146.264 213.082 146.264 216.066C146.264 219.051 149.321 221.478 153.078 221.478V223.468Z" fill="#76B4EE"/>
</svg>
