<svg width="24" height="24" viewBox="0 0 24 24" fill="none" xmlns="http://www.w3.org/2000/svg">
<path d="M18.364 9.87868L12 16.2426L7.75735 12L14.1213 5.63604C16.5311 3.22628 18.9408 3.24978 19.9685 3.40312C20.1268 3.42671 20.2732 3.5005 20.3864 3.61362C20.4995 3.72675 20.5733 3.87322 20.5969 4.03146C20.7502 5.05916 20.7737 7.46892 18.364 9.87868Z" stroke="white" stroke-width="3" stroke-linecap="round" stroke-linejoin="round"/>
<path d="M17.3033 10.9393V16.9926C17.3033 17.0911 17.2839 17.1887 17.2462 17.2797C17.2085 17.3706 17.1533 17.4533 17.0836 17.523L14.0516 20.555C13.9556 20.651 13.8354 20.7191 13.7037 20.7522C13.572 20.7852 13.4338 20.7818 13.3039 20.7425C13.174 20.7032 13.0572 20.6293 12.9659 20.5288C12.8747 20.4283 12.8124 20.3049 12.7858 20.1718L12 16.2426" stroke="white" stroke-width="3" stroke-linecap="round" stroke-linejoin="round"/>
<path d="M13.0607 6.6967H7.00735C6.90886 6.6967 6.81133 6.7161 6.72034 6.75379C6.62934 6.79148 6.54667 6.84673 6.47702 6.91637L3.44498 9.94841C3.34899 10.0444 3.28085 10.1646 3.24784 10.2963C3.21482 10.428 3.21815 10.5662 3.25749 10.6961C3.29683 10.826 3.37069 10.9428 3.47121 11.0341C3.57172 11.1253 3.69511 11.1876 3.82822 11.2142L7.75735 12" stroke="white" stroke-width="3" stroke-linecap="round" stroke-linejoin="round"/>
<path d="M8.49004 18.0358C7.07833 20.4853 3.51471 20.4853 3.51471 20.4853C3.51471 20.4853 3.51471 16.9217 5.96423 15.5099" stroke="white" stroke-width="3" stroke-linecap="round" stroke-linejoin="round"/>
</svg>
