<svg width="455" height="375" viewBox="0 0 455 375" fill="none" xmlns="http://www.w3.org/2000/svg">
<g opacity="0.3">
<path d="M339.171 79.1H289.021V151.79H339.171V79.1Z" fill="#E0E0E0"/>
<path d="M336.661 79.1H286.511V151.79H336.661V79.1Z" fill="#F5F5F5"/>
<path d="M330.431 86.97H292.741V143.92H330.431V86.97Z" fill="white"/>
<path d="M330.421 143.91C330.421 143.91 330.421 143.82 330.421 143.64V142.83C330.421 142.11 330.421 141.07 330.421 139.71C330.421 136.98 330.421 133 330.421 127.97C330.421 117.97 330.421 103.71 330.361 86.97L330.481 87.09H292.801L292.941 86.95C292.941 108.43 292.941 128.24 292.941 143.89L292.831 143.79H320.271H327.841H330.421H329.761H327.761H320.201H292.701H292.591V143.68C292.591 128.03 292.591 108.22 292.591 86.74V86.6H330.541V86.73C330.541 103.51 330.491 117.73 330.481 127.82C330.481 132.82 330.481 136.82 330.481 139.52C330.481 140.87 330.481 141.91 330.481 142.62V143.41C330.478 143.578 330.458 143.746 330.421 143.91V143.91Z" fill="#E0E0E0"/>
<path d="M336.801 79.1C336.544 79.559 336.246 79.9941 335.911 80.4C335.331 81.17 334.501 82.23 333.561 83.4C332.621 84.57 331.731 85.56 331.081 86.28C330.743 86.6867 330.372 87.0646 329.971 87.41C330.273 86.9691 330.607 86.5513 330.971 86.16L333.391 83.23L335.801 80.3C336.098 79.8713 336.433 79.4698 336.801 79.1Z" fill="#E0E0E0"/>
<path d="M330.621 143.73C332.499 146.708 334.707 149.465 337.201 151.95Z" fill="white"/>
<path d="M337.201 151.95C336.782 151.66 336.397 151.324 336.051 150.95C335.177 150.059 334.35 149.125 333.571 148.15C332.791 147.189 332.064 146.188 331.391 145.15C331.087 144.729 330.829 144.276 330.621 143.8C330.967 144.185 331.278 144.6 331.551 145.04C332.101 145.82 332.881 146.88 333.781 148.04C334.681 149.2 335.561 150.17 336.191 150.88C336.553 151.211 336.891 151.569 337.201 151.95Z" fill="#E0E0E0"/>
<path d="M286.511 151.73L293.071 143.63Z" fill="white"/>
<path d="M293.071 143.63C292.087 145.061 291.028 146.439 289.901 147.76C288.081 150 286.561 151.76 286.511 151.76C287.493 150.325 288.551 148.943 289.681 147.62C290.743 146.234 291.874 144.902 293.071 143.63V143.63Z" fill="#E0E0E0"/>
<path d="M286.511 79.1C287.645 80.309 288.71 81.581 289.701 82.91C290.769 84.1905 291.771 85.5256 292.701 86.91C291.567 85.7009 290.502 84.4289 289.511 83.1C288.437 81.8235 287.436 80.488 286.511 79.1V79.1Z" fill="#E0E0E0"/>
<path d="M318.691 98.53H306.071V134.36H318.691V98.53Z" fill="#E0E0E0"/>
<path d="M149.261 19.1801V101.72H30.7209L26.4409 19.7601L149.261 19.1801Z" fill="#E0E0E0"/>
<path d="M26.4409 19.7701L26.4409 101.55L144.981 101.55V19.7701L26.4409 19.7701Z" fill="white"/>
<path d="M145.551 102.11H25.8809V19.2H145.551V102.11ZM27.0109 100.98H144.421V20.3199H27.0109V100.98Z" fill="#E0E0E0"/>
<path d="M132.141 29.92H39.2808V91.38H132.141V29.92Z" fill="white"/>
<path d="M132.151 29.92H131.691H130.421H125.321L106.181 29.99L39.3309 30.12L39.6009 29.85C39.6009 48.63 39.6009 69.44 39.6009 91.31L39.3009 91.02L132.171 91.08L131.931 91.31C131.991 72.61 132.031 57.31 132.061 46.6C132.061 41.26 132.061 37.09 132.121 34.23C132.121 32.82 132.121 31.73 132.121 30.98C132.121 30.23 132.121 29.85 132.121 29.85C132.121 29.85 132.121 30.21 132.121 30.93C132.121 31.65 132.121 32.74 132.121 34.14C132.121 36.98 132.121 41.14 132.181 46.45C132.181 57.16 132.251 72.55 132.301 91.31V91.55H132.071L39.2009 91.61H38.9109V91.31C38.9109 69.44 38.9109 48.63 38.9109 29.85V29.58H39.1709L106.171 29.72L125.251 29.79H130.251H131.541L132.151 29.92Z" fill="#E0E0E0"/>
<path d="M26.4208 19.53C27.1362 19.8913 27.8074 20.3343 28.4208 20.85C29.6408 21.73 31.2908 22.97 33.0708 24.4C34.8508 25.83 36.4208 27.17 37.5308 28.18C38.1663 28.6853 38.7343 29.2701 39.2208 29.92C39.1108 30.05 36.2208 27.7 32.7008 24.85C29.1808 22 26.3408 19.67 26.4208 19.53Z" fill="#E0E0E0"/>
<path d="M144.991 19.76C143.041 21.6771 140.955 23.4516 138.751 25.07C136.67 26.8431 134.465 28.464 132.151 29.92C134.114 28.0055 136.209 26.2312 138.421 24.61C140.493 22.8393 142.688 21.2185 144.991 19.76V19.76Z" fill="#E0E0E0"/>
<path d="M144.891 101.56L131.681 90.84Z" fill="white"/>
<path d="M131.681 90.84C134.054 92.3993 136.322 94.113 138.471 95.97C140.738 97.6819 142.883 99.5497 144.891 101.56C142.515 100.005 140.246 98.2907 138.101 96.43C134.421 93.48 131.571 90.97 131.681 90.84Z" fill="#E0E0E0"/>
<path d="M26.4209 101.55C28.3526 99.6513 30.4179 97.8934 32.6009 96.29C34.6617 94.538 36.8438 92.934 39.1309 91.49C37.2042 93.3903 35.1421 95.1482 32.9609 96.75C30.8969 98.5023 28.7114 100.106 26.4209 101.55V101.55Z" fill="#E0E0E0"/>
<path d="M58.1409 49.08V69.66H116.571V49.08H58.1409Z" fill="#E0E0E0"/>
<path d="M422.981 0H359.601V91.87H422.981V0Z" fill="#E0E0E0"/>
<path d="M419.811 0H356.431V91.87H419.811V0Z" fill="#F5F5F5"/>
<path d="M411.931 9.94995H364.301V81.92H411.931V9.94995Z" fill="white"/>
<path d="M411.941 81.92C411.941 81.92 411.941 81.8 411.941 81.57V80.57C411.941 79.66 411.941 78.34 411.941 76.62C411.941 73.17 411.941 68.15 411.941 61.8C411.941 49.11 411.891 31.13 411.861 9.97002L412.021 10.13H364.301L364.481 9.96003C364.481 37.11 364.481 62.14 364.481 81.96L364.341 81.82L399.011 81.9H408.591H411.111H411.981H411.141H408.651H399.101L364.341 81.97H364.211V81.83C364.211 62.04 364.211 37.01 364.211 9.83002V9.78003H412.211V9.94003C412.211 31.15 412.161 49.15 412.141 61.87C412.141 68.2 412.141 73.22 412.091 76.66C412.091 78.36 412.091 79.66 412.091 80.57V81.57C411.941 81.81 411.941 81.92 411.941 81.92Z" fill="#E0E0E0"/>
<path d="M419.991 0C419.669 0.582525 419.291 1.13186 418.861 1.64C418.121 2.64 417.081 3.97 415.861 5.42C414.641 6.87 413.551 8.15 412.721 9.06C412.31 9.57243 411.855 10.0476 411.361 10.48C411.717 9.91889 412.122 9.39019 412.571 8.9L415.621 5.2C416.771 3.79 417.821 2.52 418.671 1.49C419.068 0.956769 419.509 0.4583 419.991 0Z" fill="#E0E0E0"/>
<path d="M412.181 81.6899C414.553 85.4535 417.341 88.9387 420.491 92.0799Z" fill="white"/>
<path d="M420.491 92.0799C419.963 91.6909 419.478 91.2486 419.041 90.7599C418.191 89.8999 417.041 88.6699 415.901 87.2299C414.921 85.9967 414.003 84.7151 413.151 83.3899C412.761 82.8588 412.426 82.2891 412.151 81.6899C412.581 82.1819 412.972 82.7068 413.321 83.2599C414.021 84.2599 415.001 85.5799 416.141 87.0099C417.281 88.4399 418.381 89.6999 419.191 90.5899C419.659 91.0547 420.094 91.5527 420.491 92.0799V92.0799Z" fill="#E0E0E0"/>
<path d="M356.421 91.8001L364.721 81.5601Z" fill="white"/>
<path d="M364.721 81.5601C363.482 83.3736 362.147 85.1195 360.721 86.7901C358.421 89.6101 356.501 91.8601 356.431 91.7901C357.672 89.9782 359.007 88.2325 360.431 86.5601C361.773 84.8202 363.205 83.1512 364.721 81.5601V81.5601Z" fill="#E0E0E0"/>
<path d="M356.421 0C357.84 1.53373 359.175 3.14272 360.421 4.82C361.762 6.41878 363.017 8.08781 364.181 9.82C362.759 8.28921 361.423 6.68003 360.181 5C358.84 3.40121 357.585 1.73219 356.421 0V0Z" fill="#E0E0E0"/>
<path d="M397.101 24.5601H381.151V69.8401H397.101V24.5601Z" fill="#E0E0E0"/>
</g>
<path d="M314.121 201.48C314.864 204.5 314.777 207.664 313.871 210.639C312.964 213.613 311.272 216.288 308.971 218.38C305.921 221.08 301.971 222.64 299.171 225.61C297.438 227.586 296.246 229.976 295.712 232.549C295.177 235.121 295.318 237.789 296.121 240.29C296.971 242.774 298.316 245.06 300.074 247.009C301.832 248.958 303.968 250.53 306.351 251.63C309.597 253.147 313.155 253.874 316.735 253.752C320.315 253.631 323.816 252.664 326.951 250.93C334.681 246.56 339.181 237.79 340.321 228.98C341.461 220.17 339.671 211.25 337.321 202.68" fill="#263238"/>
<path d="M411.611 356.831C419.611 355.521 427.111 357.961 435.031 359.711C437.137 360.335 439.36 360.455 441.521 360.061C444.951 359.181 447.391 355.841 447.921 352.341C448.35 349.274 447.638 346.157 445.921 343.581C445.232 342.47 444.294 341.535 443.181 340.851C441.988 340.253 440.684 339.912 439.351 339.851C434.498 339.46 429.628 340.378 425.251 342.511C420.886 344.633 416.926 347.503 413.551 350.991C411.871 352.671 412.371 354.601 411.631 356.861" fill="#263238"/>
<path d="M249.421 227.71C248.138 220.082 248.294 212.281 249.881 204.71C250.552 201.008 251.909 197.464 253.881 194.26C254.554 193.066 255.576 192.106 256.811 191.51C257.708 191.213 258.671 191.17 259.591 191.387C260.511 191.604 261.352 192.073 262.021 192.74C262.876 193.63 263.531 194.691 263.945 195.853C264.359 197.015 264.521 198.251 264.421 199.48C264.243 201.939 263.641 204.348 262.641 206.6C259.551 214.5 254.641 221.06 249.391 227.7" fill="#263238"/>
<path d="M404.421 256.621C406.231 257.911 446.421 344.481 446.421 344.481C443.189 343.1 439.609 342.751 436.171 343.481L433.991 344.061C430.09 345.109 426.389 346.799 423.041 349.061L411.571 356.821C411.117 356.56 410.733 356.194 410.449 355.754C410.165 355.313 409.991 354.812 409.941 354.291V353.961L378.781 300.481L404.421 256.621Z" fill="#5E48E8"/>
<path d="M253.511 118.801L264.231 179.731C267.681 187.931 307.911 237.611 307.911 237.611L294.611 280.351L241.771 208.101C236.865 202.854 234.196 195.902 234.331 188.721L236.391 123.621L253.511 118.801Z" fill="#FFBE9D"/>
<path d="M310.561 228.061L338.151 230.151L362.211 233.881C362.211 233.881 404.421 244.971 404.421 249.591C404.421 251.131 392.901 287.821 386.421 309.801C384.833 315.139 383.538 320.561 382.541 326.041L404.421 374.481H300.591V330.071C300.591 330.071 293.591 271.741 294.821 263.771C296.051 255.801 310.561 228.061 310.561 228.061Z" fill="#5E48E8"/>
<path d="M240.421 94.1804C240.583 87.9745 241.219 81.7899 242.321 75.6804C242.471 74.8104 242.831 73.7604 243.701 73.6804C244.781 73.5404 245.331 74.9304 245.471 76.0104C246.43 83.3785 246.122 90.8562 244.561 98.1204" fill="#EB996E"/>
<path d="M252.721 223.201C264.561 212.621 264.961 194.291 263.951 179.701C263.753 178.635 263.915 177.534 264.411 176.571C265.541 174.961 268.291 175.571 269.411 177.191C270.531 178.811 270.411 180.941 270.351 182.901C270.961 181.241 273.561 181.251 274.781 182.531C276.001 183.811 276.211 185.741 276.351 187.531L276.741 192.411L311.331 225.411C311.331 225.411 312.281 222.411 314.821 224.141C317.361 225.871 319.001 229.521 319.001 229.521L294.631 282.711L249.401 227.711C250.271 226.046 251.39 224.525 252.721 223.201V223.201Z" fill="#5E48E8"/>
<path d="M299.661 260.01C296.052 264.614 293.357 269.865 291.721 275.48C290.091 281.133 290.269 287.154 292.231 292.701C293.749 296.538 296.235 299.916 299.448 302.507C302.66 305.097 306.489 306.811 310.561 307.48" fill="#5E48E8"/>
<path d="M411.611 356.83L410.301 374.48H435.931L441.931 343.23C434.124 342.794 426.424 345.207 420.261 350.02L411.611 356.83Z" fill="#FFBE9D"/>
<path d="M264.771 219.29C264.916 218.805 265.103 218.333 265.331 217.88C265.731 217 266.271 215.7 266.881 214.08C267.491 212.46 268.141 210.5 268.751 208.3C269.385 205.899 269.889 203.466 270.261 201.01C270.607 198.554 270.817 196.08 270.891 193.6C270.891 191.31 270.891 189.25 270.751 187.52C270.611 185.79 270.481 184.4 270.351 183.44C270.265 182.942 270.218 182.437 270.211 181.93C270.374 182.411 270.488 182.907 270.551 183.41C270.811 184.76 271.001 186.122 271.121 187.49C271.317 189.524 271.4 191.567 271.371 193.61C271.295 198.62 270.569 203.598 269.211 208.42C268.653 210.386 267.985 212.319 267.211 214.21C266.551 215.83 265.961 217.11 265.501 217.97C265.291 218.428 265.047 218.869 264.771 219.29Z" fill="#263238"/>
<path d="M272.301 210C272.627 209.14 273.001 208.299 273.421 207.48C275.172 203.422 276.188 199.084 276.421 194.67C276.42 193.752 276.47 192.834 276.571 191.92C276.768 192.826 276.842 193.755 276.791 194.68C276.757 199.165 275.732 203.587 273.791 207.63C273.409 208.487 272.908 209.285 272.301 210Z" fill="#263238"/>
<path d="M312.921 237.661C312.841 237.611 313.261 236.961 313.501 235.781C313.781 234.238 313.692 232.652 313.241 231.151C312.766 229.64 312.188 228.163 311.511 226.731C311.195 226.138 310.96 225.506 310.811 224.851C311.207 225.385 311.542 225.962 311.811 226.571C312.602 227.979 313.243 229.467 313.721 231.011C314.199 232.59 314.237 234.271 313.831 235.871C313.705 236.542 313.389 237.163 312.921 237.661Z" fill="#263238"/>
<path d="M306.911 308.1C306.755 308.036 306.607 307.952 306.471 307.85L305.291 307.07C304.291 306.38 302.801 305.37 301.061 304C299.004 302.416 297.123 300.616 295.451 298.63C293.393 296.172 291.91 293.285 291.111 290.181C290.347 287.075 290.151 283.856 290.531 280.681C290.838 278.105 291.411 275.568 292.241 273.111C292.791 271.455 293.429 269.829 294.151 268.241C294.411 267.681 294.611 267.241 294.761 266.961C294.827 266.805 294.911 266.657 295.011 266.521C294.822 267.133 294.598 267.734 294.341 268.32C293.891 269.46 293.241 271.12 292.591 273.22C291.823 275.667 291.294 278.182 291.011 280.73C290.663 283.848 290.866 287.003 291.611 290.051C292.389 293.086 293.827 295.913 295.821 298.331C297.458 300.304 299.291 302.106 301.291 303.711C302.991 305.111 304.421 306.16 305.411 306.91L306.531 307.771C306.791 307.971 306.921 308.08 306.911 308.1Z" fill="#263238"/>
<path d="M363.561 317.991C363.422 318.064 363.274 318.118 363.121 318.151C362.821 318.231 362.391 318.381 361.821 318.491C360.21 318.84 358.569 319.037 356.921 319.081C351.426 319.249 346.006 317.769 341.359 314.83C336.713 311.891 333.053 307.628 330.851 302.591C330.18 301.084 329.654 299.517 329.281 297.911C329.141 297.341 329.091 296.911 329.031 296.591C328.997 296.436 328.98 296.279 328.981 296.121C329.186 296.686 329.353 297.264 329.481 297.851C331.073 303.888 334.637 309.221 339.607 313C344.577 316.78 350.668 318.79 356.911 318.711C358.543 318.703 360.172 318.562 361.781 318.291C362.369 318.159 362.963 318.059 363.561 317.991V317.991Z" fill="#263238"/>
<path d="M379.471 337.481C379.331 337.481 380.651 331.911 382.471 325.131C384.291 318.351 385.791 312.881 385.921 312.921C386.051 312.961 384.741 318.481 382.971 325.261C381.201 332.041 379.611 337.481 379.471 337.481Z" fill="#263238"/>
<path d="M393.421 325.691C393.301 325.761 389.281 319.191 384.421 311.011C379.561 302.831 375.761 296.141 375.891 296.071C376.021 296.001 380.031 302.561 384.891 310.741C389.751 318.921 393.591 325.611 393.421 325.691Z" fill="#263238"/>
<path d="M431.811 341.881C431.811 341.981 430.351 342.101 428.071 342.681C426.739 343.019 425.433 343.45 424.161 343.971C422.61 344.627 421.112 345.403 419.681 346.291C418.269 347.199 416.931 348.219 415.681 349.34C414.662 350.272 413.71 351.275 412.831 352.34C411.331 354.15 410.591 355.42 410.501 355.34C410.622 355.017 410.779 354.708 410.971 354.421C411.435 353.602 411.959 352.82 412.541 352.081C413.396 350.975 414.335 349.939 415.351 348.981C416.609 347.816 417.968 346.765 419.411 345.84C420.867 344.935 422.4 344.159 423.991 343.521C425.289 343.008 426.627 342.603 427.991 342.31C428.906 342.099 429.835 341.958 430.771 341.891C431.116 341.837 431.466 341.834 431.811 341.881V341.881Z" fill="#263238"/>
<path d="M436.711 335.861C436.711 335.971 435.101 335.771 432.531 335.991C431.032 336.126 429.547 336.387 428.091 336.771C424.522 337.718 421.187 339.389 418.291 341.681C417.114 342.618 416.017 343.651 415.011 344.771C413.301 346.691 412.501 348.091 412.411 348.041C412.546 347.687 412.724 347.351 412.941 347.041C413.155 346.655 413.396 346.284 413.661 345.931C413.994 345.446 414.351 344.979 414.731 344.531C415.714 343.357 416.805 342.279 417.991 341.311C419.458 340.135 421.039 339.11 422.711 338.251C424.394 337.427 426.156 336.777 427.971 336.311C429.459 335.937 430.979 335.706 432.511 335.621C433.094 335.591 433.678 335.591 434.261 335.621C434.706 335.622 435.15 335.649 435.591 335.701C435.97 335.706 436.346 335.76 436.711 335.861V335.861Z" fill="#263238"/>
<g opacity="0.3">
<path opacity="0.3" d="M330.051 298.25C327.701 302.71 329.661 308.15 331.811 312.72C333.481 316.26 335.341 319.85 338.381 322.32C339.875 323.542 341.605 324.441 343.463 324.961C345.32 325.482 347.266 325.613 349.177 325.347C351.087 325.08 352.923 324.421 354.567 323.412C356.211 322.402 357.629 321.064 358.731 319.48C352.357 319.386 346.16 317.365 340.955 313.683C335.751 310.001 331.782 304.83 329.571 298.85" fill="black"/>
</g>
<g opacity="0.3">
<path opacity="0.3" d="M375.961 296.071C374.161 300.361 375.521 306.231 377.401 310.481C379.281 314.731 381.281 319.481 379.771 323.891C379.382 324.673 379.18 325.536 379.181 326.411C379.281 327.271 380.181 328.101 380.991 327.701C381.41 327.406 381.7 326.962 381.801 326.461C383.221 322.181 384.645 317.904 386.071 313.631" fill="black"/>
</g>
<path d="M281.361 239.58C281.522 236.895 281.856 234.223 282.361 231.58C282.701 228.924 283.212 226.291 283.891 223.7C283.74 226.387 283.406 229.06 282.891 231.7C282.554 234.358 282.043 236.99 281.361 239.58V239.58Z" fill="#FAFAFA"/>
<path d="M270.831 237.371C270.701 237.451 268.981 235.051 266.601 232.291C264.221 229.531 262.121 227.461 262.221 227.351C264.014 228.662 265.622 230.209 267.001 231.951C268.508 233.583 269.795 235.405 270.831 237.371V237.371Z" fill="#FAFAFA"/>
<path d="M279.871 211.61C279.57 212.255 279.191 212.859 278.741 213.41C277.981 214.48 276.871 215.91 275.581 217.41C274.291 218.91 273.051 220.26 272.121 221.18C271.655 221.715 271.12 222.186 270.531 222.58C270.421 222.48 272.611 220.11 275.181 217.07C277.751 214.03 279.751 211.48 279.871 211.61Z" fill="#FAFAFA"/>
<path d="M276.341 199.021C276.191 199.081 275.621 197.811 274.521 196.541C273.421 195.271 272.241 194.541 272.321 194.391C273.361 194.69 274.273 195.327 274.911 196.201C275.68 196.961 276.182 197.951 276.341 199.021V199.021Z" fill="#FAFAFA"/>
<path d="M267.221 206.78C266.404 207.165 265.522 207.393 264.621 207.45C263.747 207.679 262.836 207.733 261.941 207.61C263.632 206.997 265.424 206.715 267.221 206.78V206.78Z" fill="#FAFAFA"/>
<path d="M290.231 217.891C290.254 216.334 290.144 214.778 289.901 213.241C289.487 211.739 288.942 210.277 288.271 208.871C289.405 210.036 290.15 211.524 290.401 213.131C290.829 214.698 290.77 216.358 290.231 217.891V217.891Z" fill="#FAFAFA"/>
<path d="M302.521 231.111C300.677 228.166 298.2 225.669 295.271 223.801C296.925 224.442 298.425 225.425 299.674 226.684C300.923 227.943 301.893 229.452 302.521 231.111Z" fill="#FAFAFA"/>
<path d="M282.791 254.051C279.814 255.166 276.516 255.054 273.621 253.741C273.671 253.591 275.621 254.221 278.191 254.291C280.761 254.361 282.751 253.901 282.791 254.051Z" fill="#FAFAFA"/>
<path d="M292.051 258.801C291.911 258.741 292.691 256.441 293.341 253.521C293.991 250.601 294.281 248.181 294.431 248.201C294.534 250.03 294.338 251.864 293.851 253.631C293.533 255.44 292.926 257.185 292.051 258.801Z" fill="#FAFAFA"/>
<path d="M312.281 259.57C310.699 258.234 309.237 256.761 307.911 255.17C306.448 253.698 305.11 252.105 303.911 250.41C305.487 251.754 306.946 253.229 308.271 254.82C309.733 256.293 311.074 257.882 312.281 259.57V259.57Z" fill="#FAFAFA"/>
<path d="M321.701 282.941C320.502 282.07 319.408 281.064 318.441 279.941C317.357 278.933 316.391 277.806 315.561 276.581C316.76 277.451 317.854 278.458 318.821 279.581C319.915 280.579 320.882 281.707 321.701 282.941V282.941Z" fill="#FAFAFA"/>
<path d="M304.191 285.171C303.041 286.394 301.688 287.409 300.191 288.171C298.783 289.108 297.218 289.785 295.571 290.171C295.571 290.031 297.571 289.171 299.931 287.761C302.291 286.351 304.091 285.051 304.191 285.171Z" fill="#FAFAFA"/>
<path d="M312.251 307.4C312.101 307.4 312.701 304.74 313.001 301.45C313.301 298.16 313.211 295.45 313.361 295.45C313.729 297.43 313.783 299.454 313.521 301.45C313.421 303.489 312.993 305.499 312.251 307.4V307.4Z" fill="#FAFAFA"/>
<path d="M342.561 289.33C340.909 288.319 339.444 287.03 338.231 285.52C336.893 284.124 335.814 282.503 335.041 280.73C335.171 280.64 336.541 282.811 338.621 285.181C340.701 287.55 342.661 289.2 342.561 289.33Z" fill="#FAFAFA"/>
<path d="M353.631 298.76C353.511 298.67 355.031 296.59 356.731 293.92C358.431 291.25 359.681 289.01 359.811 289.08C359.162 290.899 358.271 292.621 357.161 294.2C356.201 295.877 355.013 297.411 353.631 298.76Z" fill="#FAFAFA"/>
<path d="M352.011 275.68C348.597 275.113 345.247 274.209 342.011 272.98C343.735 273.186 345.436 273.554 347.091 274.08C348.781 274.446 350.429 274.982 352.011 275.68V275.68Z" fill="#FAFAFA"/>
<path d="M343.941 316.301C343.764 314.726 343.764 313.136 343.941 311.561C343.954 309.976 344.135 308.397 344.481 306.851C344.661 308.425 344.661 310.016 344.481 311.591C344.471 313.175 344.29 314.755 343.941 316.301V316.301Z" fill="#FAFAFA"/>
<path d="M350.921 330.21C351.445 328.595 351.866 326.949 352.181 325.28C352.32 323.587 352.346 321.887 352.261 320.19C352.777 321.855 352.925 323.611 352.693 325.338C352.462 327.065 351.857 328.721 350.921 330.19V330.21Z" fill="#FAFAFA"/>
<path d="M332.831 327.141C332.321 323.686 332.998 320.161 334.751 317.141C334.891 317.201 333.971 319.311 333.451 322.081C332.931 324.851 332.981 327.131 332.831 327.141Z" fill="#FAFAFA"/>
<path d="M316.331 334.191C314.701 333.058 313.132 331.84 311.631 330.541C310.025 329.377 308.48 328.132 307.001 326.811C308.799 327.706 310.478 328.821 312.001 330.131C313.598 331.31 315.051 332.673 316.331 334.191V334.191Z" fill="#FAFAFA"/>
<path d="M327.501 314.571C323.674 316.999 319.662 319.122 315.501 320.921C317.384 319.625 319.363 318.475 321.421 317.481C323.37 316.355 325.403 315.382 327.501 314.571V314.571Z" fill="#FAFAFA"/>
<path d="M362.211 358.601C361.999 358.67 361.782 358.723 361.561 358.761C361.131 358.841 360.501 359.001 359.681 359.111C357.365 359.465 355.023 359.615 352.681 359.561C346.631 359.473 340.669 358.103 335.187 355.541C329.706 352.98 324.83 349.285 320.881 344.701C318.588 342.062 316.623 339.154 315.031 336.041C313.946 333.954 313.049 331.776 312.351 329.531C312.081 328.741 311.951 328.111 311.831 327.691C311.764 327.476 311.721 327.255 311.701 327.031C311.797 327.233 311.874 327.444 311.931 327.661C312.081 328.071 312.241 328.661 312.541 329.471C314.459 334.952 317.412 340.014 321.241 344.381C325.2 348.859 330.031 352.483 335.439 355.03C340.846 357.576 346.717 358.992 352.691 359.191C355.028 359.277 357.368 359.184 359.691 358.911C360.521 358.831 361.151 358.701 361.581 358.661C361.788 358.617 362 358.597 362.211 358.601V358.601Z" fill="#263238"/>
<path d="M332.331 353.421C331.99 351.834 332.154 350.179 332.801 348.691C333.289 347.141 334.256 345.787 335.561 344.821C334.678 346.099 333.918 347.459 333.291 348.881C332.833 350.361 332.512 351.881 332.331 353.421V353.421Z" fill="#FAFAFA"/>
<path d="M324.101 349.98C323.151 350.716 322.28 351.547 321.501 352.46C320.851 353.467 320.302 354.536 319.861 355.65C319.895 354.383 320.32 353.157 321.08 352.141C321.839 351.126 322.895 350.371 324.101 349.98Z" fill="#FAFAFA"/>
<path d="M355.751 368.821C354.115 368.69 352.533 368.167 351.141 367.297C349.749 366.427 348.586 365.234 347.751 363.821C349.926 366.169 352.687 367.895 355.751 368.821V368.821Z" fill="#FAFAFA"/>
<path d="M360.671 341.121C360.461 342.591 359.84 343.971 358.879 345.104C357.918 346.236 356.657 347.074 355.241 347.521C356.41 346.714 357.495 345.793 358.481 344.771C359.335 343.633 360.069 342.409 360.671 341.121V341.121Z" fill="#FAFAFA"/>
<path d="M374.661 361.771C374.541 361.671 375.861 360.001 377.081 357.701C378.301 355.401 378.951 353.371 379.081 353.421C378.515 356.601 376.961 359.523 374.641 361.771H374.661Z" fill="#FAFAFA"/>
<path d="M393.151 364.48C393.211 364.63 391.391 365.35 389.561 366.86C387.731 368.37 386.631 369.99 386.501 369.86C387.076 368.481 388.021 367.287 389.231 366.41C390.333 365.416 391.691 364.748 393.151 364.48V364.48Z" fill="#FAFAFA"/>
<path d="M379.051 340.811C378.891 340.861 378.051 337.941 376.181 334.701C374.311 331.461 372.311 329.181 372.441 329.081C372.99 329.467 373.473 329.94 373.871 330.481C375.976 332.94 377.579 335.786 378.591 338.861C378.842 339.483 378.998 340.141 379.051 340.811Z" fill="#FAFAFA"/>
<path d="M381.811 311.041C378.699 312.115 375.48 312.856 372.211 313.251C375.325 312.178 378.542 311.438 381.811 311.041V311.041Z" fill="#FAFAFA"/>
<path d="M373.301 302.141C372.159 301.079 371.133 299.899 370.241 298.621C369.223 297.443 368.335 296.159 367.591 294.791C368.744 295.838 369.771 297.016 370.651 298.301C371.679 299.475 372.568 300.763 373.301 302.141V302.141Z" fill="#FAFAFA"/>
<path d="M394.421 296.801C391.181 296.72 387.993 295.964 385.061 294.581C386.644 294.851 388.211 295.215 389.751 295.671C391.329 295.952 392.889 296.33 394.421 296.801V296.801Z" fill="#FAFAFA"/>
<path d="M409.421 296.53C409.851 295.116 410.362 293.727 410.951 292.37C411.373 290.95 411.884 289.557 412.481 288.2C412.4 289.697 412.061 291.169 411.481 292.55C411.035 293.988 410.338 295.336 409.421 296.53Z" fill="#FAFAFA"/>
<path d="M406.001 316.851C402.9 316.158 400.098 314.498 398.001 312.111C398.101 311.991 399.681 313.371 401.871 314.661C404.061 315.951 406.051 316.701 406.001 316.851Z" fill="#FAFAFA"/>
<path d="M415.741 316.23C415.942 314.223 416.31 312.236 416.841 310.29C417.203 308.313 417.732 306.369 418.421 304.48C417.86 308.472 416.953 312.406 415.711 316.24L415.741 316.23Z" fill="#FAFAFA"/>
<path d="M407.611 338.951C405.115 336.126 402.885 333.076 400.951 329.841C402.262 331.197 403.446 332.67 404.491 334.241C405.674 335.711 406.718 337.288 407.611 338.951V338.951Z" fill="#FAFAFA"/>
<path d="M421.491 330.261C421.351 330.331 420.441 328.521 419.001 326.501C417.561 324.481 416.171 323.011 416.281 322.901C417.539 323.782 418.609 324.903 419.431 326.201C420.387 327.4 421.087 328.781 421.491 330.261V330.261Z" fill="#FAFAFA"/>
<path d="M434.511 328.31C433.371 326.971 432.303 325.573 431.311 324.12C430.175 322.782 429.107 321.387 428.111 319.94C430.771 322.285 432.946 325.129 434.511 328.31V328.31Z" fill="#FAFAFA"/>
<path d="M431.421 336.941C431.243 335.739 430.839 334.582 430.231 333.531C429.499 332.559 428.594 331.732 427.561 331.091C427.561 331.031 428.021 331.091 428.651 331.401C429.464 331.833 430.152 332.467 430.651 333.241C431.16 334.012 431.466 334.899 431.541 335.821C431.641 336.481 431.511 336.941 431.421 336.941Z" fill="#FAFAFA"/>
<path d="M421.301 348.771C421.221 348.771 421.251 348.501 421.171 348.151C421.077 347.701 420.834 347.296 420.481 347.001C420.112 346.727 419.66 346.59 419.201 346.611C418.841 346.611 418.611 346.701 418.571 346.611C418.531 346.521 418.721 346.341 419.151 346.221C419.434 346.147 419.73 346.139 420.016 346.198C420.302 346.258 420.571 346.382 420.801 346.562C421.032 346.742 421.217 346.973 421.344 347.236C421.47 347.499 421.534 347.788 421.531 348.081C421.521 348.561 421.361 348.791 421.301 348.771Z" fill="#FAFAFA"/>
<path d="M317.261 367.68C315.394 366.961 313.696 365.86 312.278 364.448C310.859 363.036 309.75 361.345 309.021 359.48C311.061 362.853 313.888 365.681 317.261 367.72V367.68Z" fill="#FAFAFA"/>
<path d="M253.611 119.481C252.001 104.271 249.091 89.9605 248.301 75.0505C248.333 74.6767 248.286 74.3004 248.163 73.9457C248.041 73.591 247.846 73.2657 247.591 72.9905C247.374 72.8632 247.132 72.7816 246.882 72.7505C246.632 72.7194 246.378 72.7396 246.135 72.8097C245.893 72.8799 245.668 72.9986 245.473 73.1586C245.278 73.3186 245.117 73.5166 245.001 73.7405C244.565 74.6765 244.392 75.7136 244.501 76.7405C244.518 84.6697 243.165 92.5422 240.501 100.011C238.791 104.861 236.501 109.511 235.221 114.481C233.941 119.451 236.351 121.141 238.591 125.771" fill="#FFBE9D"/>
<path d="M238.621 125.751C236.64 124.231 235.104 122.207 234.173 119.89C233.243 117.573 232.952 115.048 233.331 112.581C233.841 109.581 235.331 106.861 236.511 104.061C237.691 101.261 238.601 98.1505 237.881 95.2005C237.483 94.1056 237.215 92.9679 237.081 91.8105C237.081 90.6505 237.831 89.3505 238.991 89.3005C239.43 89.3359 239.854 89.4727 240.231 89.7C240.607 89.9273 240.926 90.239 241.161 90.6105C243.111 93.0205 244.671 100.061 243.691 105.321" fill="#FFBE9D"/>
<path d="M243.691 105.321C243.691 105.321 243.791 104.511 243.851 103.051C243.914 100.991 243.743 98.9313 243.341 96.9105C243.072 95.5187 242.67 94.1559 242.141 92.8406C241.863 92.125 241.486 91.4518 241.021 90.8406C240.813 90.5125 240.539 90.2306 240.217 90.0122C239.896 89.7938 239.533 89.6435 239.151 89.5705C238.758 89.5892 238.382 89.7363 238.08 89.9891C237.779 90.242 237.568 90.5867 237.481 90.9706C237.267 91.8231 237.323 92.7212 237.641 93.5405C237.977 94.4554 238.212 95.4044 238.341 96.3705C238.438 97.371 238.401 98.3799 238.231 99.3705C237.531 103.431 235.371 106.711 234.231 109.961C233.669 111.479 233.368 113.082 233.341 114.701C233.335 116.111 233.544 117.513 233.961 118.861C234.567 120.826 235.59 122.637 236.961 124.171C237.961 125.241 238.611 125.711 238.581 125.761C238.402 125.67 238.235 125.559 238.081 125.431C237.63 125.087 237.205 124.709 236.811 124.301C235.35 122.793 234.255 120.969 233.611 118.971C233.155 117.593 232.919 116.152 232.911 114.701C232.92 113.03 233.214 111.372 233.781 109.801C234.881 106.481 237.011 103.201 237.671 99.2905C237.842 98.3404 237.879 97.371 237.781 96.4105C237.661 95.4718 237.436 94.5494 237.111 93.6605C236.765 92.7421 236.716 91.7383 236.971 90.7905C237.12 90.3174 237.393 89.8927 237.761 89.5606C237.945 89.3888 238.163 89.2566 238.4 89.1724C238.638 89.0881 238.89 89.0534 239.141 89.0705C239.599 89.1311 240.039 89.2881 240.432 89.5312C240.825 89.7742 241.162 90.0978 241.421 90.4805C241.907 91.1425 242.298 91.8696 242.581 92.6406C243.11 93.9837 243.498 95.3777 243.741 96.8006C244.12 98.8508 244.237 100.941 244.091 103.021C244.056 103.585 243.983 104.146 243.871 104.701C243.841 104.915 243.78 105.124 243.691 105.321V105.321Z" fill="#EB996E"/>
<path d="M374.421 186.531C374.748 187.961 375.523 189.25 376.632 190.21C377.742 191.171 379.129 191.752 380.591 191.871C382.057 191.942 383.517 191.641 384.834 190.993C386.151 190.346 387.282 189.375 388.121 188.171C389.782 185.722 390.45 182.734 389.991 179.811C389.421 175.601 386.621 171.551 382.561 170.301C378.501 169.051 373.451 171.301 372.331 175.381L367.651 181.911L374.421 186.531Z" fill="#263238"/>
<path d="M368.891 173.701C369.345 170.082 369.068 166.409 368.075 162.899C367.082 159.39 365.395 156.116 363.112 153.271C360.83 150.426 357.999 148.069 354.789 146.339C351.578 144.609 348.052 143.542 344.421 143.201C329.911 141.821 317.001 152.631 314.831 167.051C312.921 179.691 311.281 192.451 311.341 197.051C311.521 211.051 319.691 216.471 323.011 218.051C324.203 218.48 325.436 218.785 326.691 218.961C326.703 218.963 326.715 218.968 326.725 218.975C326.735 218.981 326.743 218.99 326.75 219.001C326.756 219.011 326.761 219.022 326.763 219.034C326.765 219.046 326.764 219.059 326.761 219.071L323.661 235.071C322.251 245.581 328.121 254.961 338.611 256.491C349.101 258.021 357.371 249.951 358.981 239.431L368.891 173.701Z" fill="#FFBE9D"/>
<path d="M317.241 175.221C317.471 175.551 319.311 174.561 321.681 174.911C324.051 175.261 325.601 176.701 325.901 176.441C326.051 176.331 325.841 175.781 325.171 175.121C324.251 174.261 323.088 173.705 321.841 173.531C320.61 173.352 319.354 173.565 318.251 174.141C317.421 174.591 317.121 175.071 317.241 175.221Z" fill="#263238"/>
<path d="M338.281 179.78C338.511 180.11 340.361 179.12 342.721 179.47C345.081 179.82 346.651 181.26 346.951 181C347.091 180.89 346.891 180.34 346.211 179.67C345.293 178.815 344.134 178.264 342.891 178.09C341.66 177.911 340.404 178.124 339.301 178.7C338.491 179.15 338.171 179.63 338.281 179.78Z" fill="#263238"/>
<path d="M330.101 190.961C328.911 190.391 327.655 189.971 326.361 189.711C325.761 189.561 325.211 189.351 325.171 188.931C325.211 188.3 325.441 187.697 325.831 187.201L328.291 182.861C331.721 176.671 334.291 171.551 334.051 171.411C333.811 171.271 330.811 176.181 327.381 182.411L324.991 186.781C324.513 187.46 324.28 188.282 324.331 189.111C324.395 189.331 324.505 189.534 324.656 189.707C324.806 189.88 324.992 190.017 325.201 190.111C325.522 190.247 325.857 190.345 326.201 190.401C327.472 190.752 328.783 190.94 330.101 190.961V190.961Z" fill="#263238"/>
<path d="M326.781 219.06C326.781 219.06 335.781 221.14 348.231 215.94C348.231 215.94 342.871 227.49 325.951 223.38L326.781 219.06Z" fill="#EB996E"/>
<path d="M330.271 196.81C330.801 196.323 331.445 195.976 332.144 195.801C332.843 195.626 333.574 195.63 334.271 195.81C334.786 195.937 335.27 196.166 335.696 196.481C336.122 196.797 336.48 197.195 336.751 197.65C337.011 198.09 337.128 198.598 337.087 199.107C337.046 199.615 336.848 200.099 336.521 200.49C336.082 200.862 335.54 201.092 334.967 201.151C334.395 201.21 333.817 201.095 333.311 200.82C332.25 200.267 331.311 199.505 330.551 198.58C330.307 198.354 330.11 198.083 329.971 197.78C329.902 197.637 329.878 197.476 329.903 197.318C329.928 197.161 330.001 197.015 330.111 196.9" fill="#EB996E"/>
<path d="M336.821 193.61C336.441 193.53 336.061 196.1 333.601 197.61C331.141 199.12 328.441 198.43 328.371 198.79C328.311 198.95 328.911 199.38 330.061 199.58C331.562 199.818 333.098 199.521 334.401 198.74C335.652 197.988 336.563 196.78 336.941 195.37C337.191 194.3 337.001 193.62 336.821 193.61Z" fill="#263238"/>
<path d="M339.911 172.08C340.051 172.76 342.461 172.8 345.181 173.54C347.901 174.28 350.051 175.36 350.501 174.84C350.701 174.59 350.401 173.93 349.591 173.17C348.493 172.231 347.196 171.554 345.798 171.19C344.4 170.826 342.937 170.785 341.521 171.07C340.421 171.33 339.861 171.76 339.911 172.08Z" fill="#263238"/>
<path d="M319.631 167.931C319.961 168.531 321.681 168.211 323.631 168.471C325.581 168.731 327.201 169.351 327.631 168.851C327.841 168.601 327.631 168.021 327.001 167.411C326.117 166.657 325.028 166.183 323.874 166.052C322.72 165.92 321.552 166.135 320.521 166.671C319.791 167.121 319.481 167.641 319.631 167.931Z" fill="#263238"/>
<path d="M312.091 163.92C314.981 168.33 324.161 165.6 329.701 162.57C332.595 164.416 336.095 165.061 339.457 164.366C342.818 163.671 345.776 161.692 347.701 158.85C350.871 162.85 357.321 161.55 359.701 157C362.081 152.45 360.701 146.18 357.501 142.2C354.301 138.22 349.561 136.2 344.901 135.35C333.851 133.35 321.821 137.59 315.211 147.58C312.161 152.19 310.331 158.4 312.141 163.92" fill="#263238"/>
<path d="M342.631 136.92C342.631 137.12 340.021 136.62 335.921 137.3C330.595 138.186 325.714 140.813 322.041 144.77C318.584 148.913 316.298 153.906 315.421 159.23C315.117 161.45 315 163.691 315.071 165.93C314.858 165.352 314.733 164.746 314.701 164.13C314.526 162.467 314.553 160.788 314.781 159.13C315.506 153.6 317.804 148.394 321.401 144.13C325.203 140.013 330.326 137.356 335.881 136.62C337.539 136.397 339.217 136.371 340.881 136.54C341.48 136.577 342.071 136.705 342.631 136.92V136.92Z" fill="#455A64"/>
<path d="M327.691 157.481C327.526 156.974 327.452 156.443 327.471 155.911C327.419 154.46 327.57 153.009 327.921 151.601C328.456 149.238 329.469 147.01 330.897 145.054C332.325 143.098 334.139 141.455 336.226 140.226C338.313 138.997 340.63 138.208 343.033 137.908C345.436 137.608 347.876 137.803 350.201 138.481C351.605 138.865 352.95 139.437 354.201 140.181C354.683 140.431 355.114 140.771 355.471 141.181C353.727 140.355 351.913 139.686 350.051 139.181C345.522 138.027 340.721 138.71 336.693 141.082C332.666 143.453 329.739 147.32 328.551 151.841C327.571 155.181 327.881 157.481 327.691 157.481Z" fill="#455A64"/>
<path d="M354.201 152.68C353.117 156.595 352.493 160.622 352.341 164.68C352.191 168.762 353.46 172.769 355.931 176.02C359.791 180.67 366.231 182.09 372.171 183.22C375.349 175.293 376.306 166.651 374.941 158.22C374.261 154.13 372.941 149.96 370.061 146.98C367.92 144.868 365.139 143.526 362.153 143.164C359.167 142.802 356.145 143.441 353.561 144.98" fill="#263238"/>
<path d="M357.501 172.041C355.941 175.421 356.051 179.331 356.591 183.041C357.131 186.751 358.071 190.381 358.031 194.101C357.991 197.821 356.811 201.771 353.891 204.101C353.006 204.691 352.176 205.36 351.411 206.101C351.034 206.476 350.781 206.959 350.688 207.483C350.595 208.008 350.666 208.548 350.891 209.031C351.451 209.931 353.141 209.911 353.381 208.881L353.231 209.141C353.084 209.39 353.004 209.673 353.001 209.962C352.998 210.252 353.071 210.537 353.213 210.789C353.355 211.042 353.56 211.252 353.809 211.4C354.058 211.547 354.342 211.627 354.631 211.631C355.653 211.582 356.654 211.324 357.572 210.873C358.491 210.423 359.307 209.789 359.971 209.011C361.881 206.801 362.641 203.831 363.141 201.011C364.681 192.181 364.381 183.011 366.821 174.401" fill="#263238"/>
<path d="M323.591 230.031C324.28 233.039 325.608 235.863 327.485 238.313C329.361 240.762 331.743 242.779 334.469 244.227C337.194 245.674 340.199 246.518 343.279 246.702C346.359 246.886 349.443 246.404 352.321 245.291C357.501 243.291 361.681 239.391 365.711 235.581C366.432 239.918 366.234 244.358 365.128 248.614C364.023 252.87 362.035 256.845 359.294 260.283C356.553 263.721 353.12 266.544 349.217 268.57C345.315 270.595 341.03 271.778 336.641 272.041C330.011 272.441 322.891 270.421 318.721 265.251C315.811 261.651 314.641 256.881 314.721 252.251C314.923 247.613 315.806 243.031 317.341 238.651C318.521 234.871 320.391 230.651 324.211 229.601" fill="#5E48E8"/>
<path d="M371.031 183.481C375.031 185.631 377.171 190.131 377.941 194.571C378.711 199.011 378.321 203.571 378.511 208.061C378.701 212.551 379.561 217.271 382.411 220.761C385.411 224.481 390.161 226.241 394.411 228.511C403.731 233.511 411.411 242.041 414.211 252.261C417.011 262.481 414.471 274.261 406.821 281.611C399.821 288.271 389.721 290.611 380.081 290.611C373.211 290.611 365.661 289.131 361.371 283.761C357.081 278.391 357.371 270.861 358.871 264.241C360.371 257.621 363.121 251.191 363.231 244.401C362.204 248.604 360.415 252.583 357.951 256.141C357.241 257.141 356.031 258.241 354.951 257.661C353.871 257.081 354.201 255.211 354.761 253.961C363.041 235.531 360.161 198.381 365.071 178.031" fill="#263238"/>
<path d="M364.211 181.39C364.461 181.31 374.131 179.48 372.881 189.04C371.631 198.6 362.301 195.38 362.321 195.11C362.341 194.84 364.211 181.39 364.211 181.39Z" fill="#FFBE9D"/>
<path d="M365.711 191.87C365.711 191.87 365.861 192 366.131 192.17C366.505 192.39 366.949 192.459 367.371 192.36C368.431 192.12 369.491 190.62 369.761 188.91C369.887 188.092 369.833 187.256 369.601 186.46C369.551 186.15 369.425 185.856 369.235 185.605C369.045 185.354 368.797 185.153 368.511 185.02C368.331 184.957 368.136 184.955 367.955 185.014C367.774 185.074 367.618 185.192 367.511 185.35C367.351 185.6 367.381 185.8 367.331 185.81C367.281 185.82 367.151 185.62 367.271 185.24C367.357 185.01 367.519 184.815 367.731 184.69C367.88 184.601 368.046 184.543 368.218 184.521C368.39 184.499 368.565 184.512 368.731 184.56C369.114 184.69 369.457 184.915 369.728 185.214C370 185.513 370.19 185.877 370.281 186.27C370.577 187.152 370.656 188.092 370.511 189.01C370.201 190.93 368.981 192.6 367.511 192.82C367.245 192.863 366.972 192.845 366.714 192.767C366.456 192.689 366.219 192.553 366.021 192.37C365.701 192.1 365.681 191.88 365.711 191.87Z" fill="#EB996E"/>
<path d="M313.711 250.63C314.18 249.61 314.722 248.624 315.331 247.68C316.725 245.374 317.881 242.931 318.781 240.39C319.656 237.848 319.95 235.142 319.641 232.47C319.447 231.374 319.193 230.289 318.881 229.22C319.07 229.464 319.215 229.738 319.311 230.03C319.637 230.797 319.872 231.599 320.011 232.42C320.432 235.15 320.181 237.94 319.281 240.55C318.374 243.129 317.155 245.587 315.651 247.87C315.091 248.75 314.651 249.45 314.281 249.92C313.911 250.39 313.741 250.65 313.711 250.63Z" fill="#263238"/>
<path d="M318.581 239.601C318.441 239.601 318.171 238.781 317.311 238.211C316.451 237.641 315.591 237.641 315.571 237.491C315.551 237.341 315.781 237.321 316.171 237.311C316.688 237.315 317.191 237.479 317.611 237.781C318.034 238.076 318.361 238.49 318.551 238.971C318.681 239.341 318.651 239.581 318.581 239.601Z" fill="#FAFAFA"/>
<path d="M324.761 239.581C324.012 238.738 323.189 237.965 322.301 237.271C321.316 236.719 320.278 236.27 319.201 235.931C319.797 235.848 320.403 235.886 320.983 236.043C321.564 236.199 322.107 236.47 322.581 236.84C323.638 237.434 324.42 238.418 324.761 239.581V239.581Z" fill="#FAFAFA"/>
<path d="M328.641 259.871C328.664 258.492 328.859 257.121 329.221 255.791C329.414 254.417 329.78 253.072 330.311 251.791C330.288 253.173 330.093 254.547 329.731 255.881C329.537 257.251 329.171 258.592 328.641 259.871V259.871Z" fill="#FAFAFA"/>
<path d="M344.241 262.931C343.991 260.06 344.082 257.17 344.511 254.321C344.775 257.191 344.684 260.083 344.241 262.931Z" fill="#FAFAFA"/>
<path d="M25.7305 307.371L10.3105 374.521L42.9205 374.621L57.9805 315.571L25.7305 307.371Z" fill="#B78876"/>
<path d="M185.871 224.871C182.771 220.721 179.211 216.731 177.581 211.811C176.791 209.431 176.481 206.911 175.641 204.551C174.801 202.191 173.271 199.891 170.931 199.001C168.591 198.111 166.811 199.001 165.291 200.681L154.101 233.411L160.551 258.551C166.991 257.101 175.051 255.381 181.071 252.671C187.091 249.961 191.071 245.621 191.491 239.031C191.781 233.861 188.971 229.031 185.871 224.871Z" fill="#263238"/>
<path d="M84.0407 219.091C84.0407 219.091 45.1407 236.021 40.2807 243.661C35.4207 251.301 19.4207 305.771 19.4207 305.771L60.4207 317.771L59.7207 374.481H160.221L159.391 274.481L146.791 219.221C146.791 219.221 124.601 217.791 122.541 216.781C120.481 215.771 84.0407 219.091 84.0407 219.091Z" fill="#5E48E8"/>
<path d="M222.28 80.4806C222.6 78.1906 220.99 75.6706 222.15 73.6606C222.918 72.6247 224.014 71.8806 225.26 71.5506C225.864 71.2746 226.517 71.1216 227.18 71.1006C227.511 71.0952 227.836 71.1872 228.116 71.3649C228.395 71.5427 228.615 71.7985 228.75 72.1006C228.822 72.483 228.789 72.8778 228.653 73.2426C228.517 73.6073 228.285 73.9282 227.98 74.1706C227.371 74.6494 226.859 75.2399 226.47 75.9106C226.199 77.5566 226.326 79.2437 226.84 80.8306C228.173 84.3224 229.278 87.8965 230.15 91.5306" fill="#B78876"/>
<path d="M214.071 81.2605C214.211 77.7905 217.071 64.1205 217.171 60.6505C219.521 61.3705 220.881 63.8705 221.321 66.2905C221.761 68.7105 221.531 71.2005 221.951 73.6205C222.511 76.8705 224.201 79.8005 225.901 82.6205C227.601 85.4405 229.381 88.3105 230.151 91.5105C230.921 94.7105 233.821 103.031 231.561 105.431" fill="#B78876"/>
<path d="M213.421 104.66L199.511 170.74C199.021 173.74 146.791 219.29 146.791 219.29L157.101 260.48L225.101 193.95C230.01 188.702 232.683 181.747 232.551 174.56L231.391 112.56L213.421 104.66Z" fill="#B78876"/>
<path d="M211.041 81.6805L213.421 104.681L231.421 112.601C231.421 112.601 231.641 110.971 232.421 103.001C233.271 94.2205 223.831 90.4505 219.621 84.0005C217.821 81.2305 218.291 76.1305 216.901 69.8105C216.741 69.0805 215.741 64.6605 215.201 62.2905C214.916 60.9735 214.145 59.8126 213.041 59.0405C212.221 58.5005 211.301 58.2305 210.631 59.0405C209.961 59.8505 211.041 81.6805 211.041 81.6805Z" fill="#B78876"/>
<path d="M222.281 108.481C224.281 106.751 224.761 103.651 224.011 101.081C223.092 98.5499 221.643 96.2449 219.761 94.3206C217.88 92.401 216.299 90.2099 215.071 87.8206C214.311 86.1006 213.951 84.2006 213.071 82.5106C212.191 80.8206 210.701 79.2706 208.821 79.2006C210.331 88.7106 210.291 94.2006 213.381 104.621" fill="#B78876"/>
<path d="M210.691 90.0605C210.691 90.0605 210.621 89.8005 210.511 89.3005C210.401 88.8005 210.211 87.9705 210.031 87.1205C209.601 85.1205 209.031 82.5705 208.441 79.6405L208.381 79.3605H208.671C209.286 79.3381 209.9 79.4379 210.477 79.6541C211.053 79.8704 211.582 80.1989 212.031 80.6205C213.404 81.9271 214.381 83.5941 214.851 85.4305C215.25 86.8577 215.775 88.2466 216.421 89.5805C216.91 90.4567 217.501 91.2723 218.181 92.0105C218.429 92.2941 218.631 92.6146 218.781 92.9605C218.507 92.7068 218.253 92.4327 218.021 92.1405C217.276 91.4373 216.63 90.6368 216.101 89.7605C215.394 88.4223 214.818 87.0191 214.381 85.5705C213.916 83.826 212.982 82.2421 211.681 80.9905C210.87 80.2294 209.793 79.8165 208.681 79.8405L208.921 79.5405C210.131 85.5605 210.911 90.0705 210.691 90.0605Z" fill="#7C5142"/>
<path d="M218.78 84.2105C218.055 81.1168 217.5 77.9854 217.12 74.8305C216.565 71.7005 216.181 68.5424 215.97 65.3705C216.701 68.4665 217.256 71.6015 217.63 74.7605C218.186 77.8872 218.57 81.0419 218.78 84.2105V84.2105Z" fill="#7C5142"/>
<path d="M224.511 84.9904C224.511 84.9904 224.581 85.0905 224.641 85.3405H224.491C223.747 83.2009 223.139 81.0166 222.671 78.8005C222.241 76.8705 221.931 75.1105 221.741 73.8005C221.586 73.1152 221.526 72.4121 221.561 71.7104C221.711 71.7104 222.321 74.8204 223.181 78.7104C223.871 81.8204 224.511 84.4404 224.641 85.3204H224.491C224.481 85.1104 224.481 84.9904 224.511 84.9904Z" fill="#7C5142"/>
<path d="M228.061 97.6605C227.981 97.6605 227.621 97.1405 226.901 96.3705C224.998 94.3495 222.416 93.1029 219.651 92.8705C219.072 92.8756 218.494 92.8388 217.921 92.7605C218.474 92.5458 219.069 92.457 219.661 92.5005C221.102 92.5186 222.522 92.8531 223.819 93.4804C225.117 94.1076 226.261 95.0123 227.171 96.1305C227.58 96.566 227.885 97.0893 228.061 97.6605V97.6605Z" fill="#7C5142"/>
<path d="M215.051 106.481C214.556 105.62 214.157 104.708 213.861 103.761C213.039 101.517 212.351 99.226 211.801 96.9005C211.241 94.5944 210.82 92.2569 210.541 89.9005C210.377 88.9094 210.317 87.904 210.361 86.9005C210.611 87.856 210.792 88.8286 210.901 89.8105C211.201 91.6005 211.661 94.0805 212.301 96.8105C212.941 99.5405 213.661 101.931 214.211 103.671C214.555 104.587 214.836 105.525 215.051 106.481V106.481Z" fill="#7C5142"/>
<path d="M134.581 220.48C135.472 219.116 136.854 218.147 138.44 217.775C140.027 217.402 141.696 217.655 143.101 218.48C150.441 212.48 157.951 206.66 165.291 200.69C162.891 212.69 161.291 229.42 166.661 240.4C166.661 240.4 173.431 252.98 184.211 251.06L174.591 260.48L159.421 274.55" fill="#5E48E8"/>
<path d="M132.2 226.08C132.212 224.47 132.703 222.9 133.61 221.57C134.377 220.15 135.546 218.988 136.97 218.23C134.711 220.377 133.064 223.086 132.2 226.08Z" fill="#263238"/>
<path d="M140.131 233.481C139.714 232.814 139.429 232.074 139.291 231.301C138.859 229.446 138.807 227.523 139.139 225.648C139.471 223.773 140.179 221.985 141.221 220.391C141.618 219.709 142.14 219.108 142.761 218.621C142.831 218.681 142.251 219.361 141.541 220.621C140.617 222.215 139.978 223.957 139.651 225.771C139.338 227.587 139.338 229.444 139.651 231.261C139.901 232.561 140.211 233.401 140.131 233.481Z" fill="#263238"/>
<path d="M176.871 259.161C176.133 259.62 175.326 259.957 174.481 260.161C172.17 260.718 169.753 260.645 167.481 259.951C164.115 258.882 161.17 256.783 159.061 253.951C156.527 250.477 154.818 246.473 154.061 242.241C152.648 234.62 152.245 226.847 152.861 219.121C153.091 216.121 153.421 213.781 153.701 212.121C153.831 211.301 153.951 210.671 154.041 210.241C154.072 210.019 154.125 209.801 154.201 209.591C154.208 209.816 154.187 210.04 154.141 210.261L153.901 212.151C153.691 213.791 153.411 216.151 153.231 219.151C152.719 226.843 153.169 234.569 154.571 242.151C155.319 246.273 156.976 250.178 159.421 253.581C161.443 256.384 164.293 258.482 167.571 259.581C169.784 260.293 172.144 260.421 174.421 259.951C175.254 259.742 176.073 259.478 176.871 259.161V259.161Z" fill="#FAFAFA"/>
<path d="M60.6106 334.651C60.4706 334.651 60.3506 320.431 60.3506 302.901C60.3506 285.371 60.4706 271.151 60.6106 271.151C60.7506 271.151 60.8706 285.361 60.8706 302.901C60.8706 320.441 60.7606 334.651 60.6106 334.651Z" fill="#263238"/>
<path d="M59.8105 260.18C59.7005 260.18 59.7305 258.76 59.2405 256.55C58.9485 255.259 58.5298 254 57.9905 252.79C57.3184 251.319 56.4903 249.925 55.5205 248.63C54.5236 247.354 53.3939 246.188 52.1505 245.15C51.1267 244.314 50.025 243.577 48.8605 242.95C46.8605 241.9 45.4705 241.55 45.5005 241.45C45.8418 241.468 46.1787 241.535 46.5005 241.65C46.8795 241.745 47.2506 241.869 47.6105 242.02C48.101 242.19 48.5789 242.393 49.0405 242.63C50.2418 243.218 51.3752 243.936 52.4205 244.77C53.7042 245.819 54.868 247.006 55.8905 248.31C56.8885 249.638 57.7276 251.078 58.3905 252.6C58.9351 253.845 59.3409 255.147 59.6005 256.48C59.7031 256.989 59.7732 257.503 59.8105 258.02C59.8572 258.409 59.8773 258.8 59.8705 259.19C59.8886 259.522 59.8685 259.854 59.8105 260.18V260.18Z" fill="#263238"/>
<path d="M128.301 218.651C128.384 218.928 128.441 219.213 128.471 219.501C128.605 220.311 128.692 221.13 128.731 221.951C128.85 224.985 128.427 228.016 127.481 230.901C126.072 235.203 123.574 239.068 120.231 242.121C116.037 245.785 110.771 247.995 105.218 248.421C99.6649 248.846 94.1234 247.464 89.4207 244.481C85.6613 241.965 82.6161 238.52 80.5807 234.481C79.2172 231.769 78.347 228.837 78.0106 225.821C77.9294 225.003 77.8927 224.182 77.9007 223.361C77.8765 223.074 77.8765 222.787 77.9007 222.501C77.9476 222.782 77.971 223.066 77.9707 223.351C77.9963 224.167 78.063 224.981 78.1707 225.791C78.5803 228.763 79.4933 231.645 80.8707 234.311C82.911 238.269 85.93 241.639 89.6407 244.101C94.2583 247.004 99.6852 248.35 105.124 247.942C110.564 247.533 115.729 245.391 119.861 241.831C123.168 238.841 125.653 235.054 127.081 230.831C128.039 227.987 128.512 225.002 128.481 222.001C128.481 220.941 128.391 220.121 128.311 219.561C128.231 219.001 128.291 218.661 128.301 218.651Z" fill="#263238"/>
<path d="M59.7505 305.41C59.7505 305.55 51.4405 302.94 41.3005 299.59C31.1605 296.24 22.9705 293.411 23.0205 293.271C23.0705 293.131 31.3205 295.74 41.4705 299.09C51.6205 302.44 59.7905 305.27 59.7505 305.41Z" fill="#FAFAFA"/>
<path d="M158.421 291.531C158.421 291.681 136.371 291.891 109.171 292.001C81.9706 292.111 59.9106 292.091 59.9106 292.001C59.9106 291.911 81.9606 291.641 109.171 291.531C136.381 291.421 158.421 291.391 158.421 291.531Z" fill="#FAFAFA"/>
<path d="M158.921 300.24C158.921 300.38 136.751 300.5 109.421 300.5C82.0906 300.5 59.9106 300.38 59.9106 300.24C59.9106 300.1 82.0706 299.98 109.421 299.98C136.771 299.98 158.921 300.09 158.921 300.24Z" fill="#FAFAFA"/>
<path d="M145.341 310.821C145.273 311.099 145.179 311.37 145.061 311.631C144.841 312.191 144.541 312.951 144.171 313.911L143.511 315.551C143.251 316.151 142.941 316.781 142.621 317.471C141.961 318.831 141.281 320.411 140.331 322.071L138.891 324.691C138.391 325.601 137.791 326.501 137.211 327.461C136.071 329.391 134.671 331.331 133.211 333.401C129.963 337.799 126.386 341.944 122.511 345.801C118.58 349.603 114.364 353.1 109.901 356.261C107.801 357.661 105.831 359.031 103.901 360.131C102.901 360.691 102.021 361.271 101.101 361.761L98.4206 363.141C96.7506 364.051 95.1506 364.711 93.7806 365.341C93.0906 365.641 92.4506 365.941 91.8506 366.191L90.1906 366.821L87.9006 367.671C87.6364 367.784 87.3618 367.871 87.0806 367.931C87.3302 367.789 87.5911 367.669 87.8606 367.571L90.1206 366.631L91.7506 365.961C92.3506 365.701 92.9806 365.391 93.6606 365.071C95.0206 364.421 96.6006 363.741 98.2506 362.811L100.881 361.411C101.791 360.911 102.701 360.321 103.661 359.761C105.591 358.651 107.541 357.271 109.661 355.871C118.568 349.585 126.402 341.903 132.861 333.121C134.311 331.071 135.721 329.121 136.861 327.231C137.451 326.281 138.061 325.391 138.571 324.491L140.021 321.891C141.021 320.261 141.691 318.691 142.371 317.341C142.701 316.661 143.031 316.041 143.301 315.451C143.571 314.861 143.791 314.321 144.001 313.831C144.411 312.891 144.741 312.151 145.001 311.591C145.101 311.328 145.214 311.071 145.341 310.821Z" fill="#263238"/>
<g opacity="0.3">
<path opacity="0.3" d="M141.281 319.48C134.561 327.66 127.521 333.59 117.651 337.41C112.921 339.23 107.971 340.48 103.391 342.65C98.8106 344.82 94.4906 348.09 92.3906 352.72C90.8006 356.3 91.5706 361.72 95.3906 362.5C96.8747 362.682 98.3801 362.451 99.7406 361.83C119.291 354.74 132.141 336.83 141.221 319.48" fill="black"/>
</g>
<path d="M71.3506 141.561C67.1306 144.871 66.8506 151.061 67.0606 156.421C67.2706 161.781 67.3306 167.881 63.4206 171.581C60.2206 174.631 54.6206 175.761 53.7006 180.091C53.4677 181.111 53.5608 182.178 53.9667 183.143C54.3727 184.107 55.071 184.92 55.9632 185.467C56.8555 186.013 57.8969 186.266 58.9405 186.19C59.9841 186.113 60.9774 185.711 61.7806 185.041C60.4206 188.431 61.0406 192.771 63.9306 195.041C66.8206 197.311 71.8706 196.231 72.9306 192.751C72.7667 193.326 72.7215 193.929 72.7977 194.523C72.8739 195.117 73.0699 195.689 73.3738 196.204C73.6777 196.72 74.0832 197.169 74.5657 197.523C75.0481 197.877 75.5976 198.13 76.1806 198.265C76.7636 198.401 77.3681 198.417 77.9574 198.312C78.5467 198.207 79.1085 197.983 79.6087 197.654C80.109 197.326 80.5373 196.899 80.8677 196.4C81.198 195.901 81.4235 195.339 81.5306 194.751" fill="#263238"/>
<path d="M132.591 180.37C132.792 181.073 133.135 181.726 133.599 182.291C134.064 182.855 134.639 183.317 135.29 183.65C135.941 183.982 136.653 184.177 137.382 184.223C138.111 184.268 138.842 184.164 139.529 183.915C140.216 183.666 140.844 183.279 141.375 182.777C141.906 182.275 142.329 181.67 142.616 180.998C142.903 180.326 143.049 179.602 143.044 178.871C143.04 178.141 142.886 177.419 142.591 176.751C141.761 174.671 139.591 173.1 139.541 170.87C139.411 168.17 142.251 166.381 144.741 165.331C147.231 164.281 150.151 162.88 150.541 160.21C150.931 157.54 148.701 155.49 146.841 153.66C144.981 151.83 143.191 149.05 144.501 146.79C145.171 145.64 146.501 145.02 147.361 144.01C149.301 141.77 148.521 138.01 146.281 136.1C144.041 134.19 140.831 133.75 137.901 134.1C134.971 134.45 132.171 135.55 129.301 136.26C124.541 137.409 119.596 137.558 114.776 136.697C109.957 135.837 105.368 133.985 101.301 131.26" fill="#263238"/>
<path d="M74.2205 162.18L84.5105 221.82C84.9369 224.317 85.8531 226.704 87.2063 228.844C88.5594 230.984 90.3229 232.836 92.3949 234.292C94.4669 235.747 96.8066 236.778 99.279 237.326C101.751 237.873 104.308 237.926 106.801 237.48V237.48C111.524 236.635 115.759 234.051 118.672 230.238C121.586 226.425 122.966 221.66 122.541 216.88C122.071 211.59 121.671 207.21 121.671 207.21C121.671 207.21 136.611 203.37 135.321 188.21C134.691 180.87 132.181 165.86 129.741 152.3C128.475 145.282 124.614 138.997 118.926 134.697C113.237 130.396 106.138 128.394 99.0405 129.09L97.5805 129.23C93.8612 129.813 90.2963 131.135 87.0962 133.118C83.8962 135.101 81.1257 137.705 78.9484 140.777C76.771 143.848 75.2309 147.324 74.4189 151C73.6069 154.676 73.5394 158.478 74.2205 162.18V162.18Z" fill="#B78876"/>
<path d="M126.551 162.091C126.616 162.655 126.456 163.222 126.106 163.669C125.756 164.117 125.244 164.408 124.681 164.48C124.408 164.53 124.127 164.525 123.857 164.465C123.586 164.404 123.33 164.29 123.104 164.128C122.878 163.967 122.687 163.762 122.542 163.525C122.397 163.288 122.302 163.025 122.261 162.751C122.195 162.186 122.355 161.619 122.705 161.172C123.055 160.724 123.567 160.433 124.131 160.361C124.404 160.311 124.684 160.316 124.955 160.376C125.226 160.437 125.481 160.551 125.707 160.713C125.933 160.874 126.124 161.079 126.269 161.316C126.414 161.553 126.51 161.816 126.551 162.091V162.091Z" fill="#263238"/>
<path d="M127.21 160.02C126.97 160.32 125.21 159.27 122.88 159.5C120.55 159.73 118.95 161.07 118.67 160.81C118.54 160.69 118.76 160.16 119.45 159.54C120.392 158.741 121.56 158.255 122.79 158.15C124.002 158.03 125.22 158.296 126.27 158.91C127.04 159.39 127.33 159.88 127.21 160.02Z" fill="#263238"/>
<path d="M103.75 164.761C103.807 165.324 103.643 165.887 103.292 166.331C102.941 166.775 102.431 167.066 101.87 167.141C101.598 167.189 101.318 167.183 101.048 167.122C100.777 167.06 100.522 166.946 100.296 166.785C100.071 166.624 99.88 166.419 99.7347 166.183C99.5894 165.947 99.4928 165.684 99.4505 165.411C99.3906 164.847 99.5523 164.283 99.9013 163.837C100.25 163.391 100.759 163.098 101.32 163.021C101.595 162.972 101.876 162.979 102.147 163.04C102.419 163.102 102.675 163.217 102.902 163.379C103.128 163.541 103.32 163.747 103.465 163.984C103.611 164.221 103.708 164.485 103.75 164.761Z" fill="#263238"/>
<path d="M104.341 162.68C104.101 162.99 102.341 161.94 100.011 162.17C97.6806 162.4 96.0906 163.74 95.8006 163.48C95.6706 163.36 95.8906 162.83 96.5806 162.21C97.5244 161.414 98.6908 160.929 99.9206 160.82C101.132 160.695 102.352 160.961 103.401 161.58C104.171 162.06 104.421 162.55 104.341 162.68Z" fill="#263238"/>
<path d="M114.49 179.151C114.49 179.011 115.89 178.621 118.2 178.091C118.79 177.971 119.35 177.8 119.41 177.38C119.394 176.764 119.195 176.165 118.84 175.66L116.63 171.301C113.56 165.081 111.28 159.951 111.53 159.831C111.78 159.711 114.47 164.651 117.53 170.831L119.66 175.231C120.104 175.91 120.291 176.725 120.19 177.531C120.13 177.755 120.019 177.962 119.864 178.136C119.71 178.31 119.517 178.445 119.3 178.531C118.977 178.649 118.642 178.729 118.3 178.77C117.051 179.051 115.771 179.179 114.49 179.151Z" fill="#263238"/>
<path d="M104.051 153.481C103.881 154.141 101.531 154.061 98.8307 154.661C96.1307 155.261 93.9807 156.221 93.5707 155.661C93.3807 155.411 93.7007 154.771 94.5707 154.071C95.6813 153.193 96.9832 152.59 98.3707 152.311C99.7545 152.006 101.191 152.037 102.561 152.401C103.571 152.731 104.121 153.181 104.051 153.481Z" fill="#263238"/>
<path d="M125.7 153.351C125.34 153.921 123.7 153.531 121.7 153.691C119.7 153.851 118.17 154.401 117.7 153.881C117.51 153.631 117.7 153.071 118.38 152.501C119.276 151.792 120.37 151.38 121.51 151.321C122.647 151.228 123.783 151.494 124.76 152.081C125.57 152.561 125.85 153.081 125.7 153.351Z" fill="#263238"/>
<path d="M89.0605 143.941L88.9805 144.021C86.752 146.159 85.4339 149.075 85.3005 152.161C85.3005 152.271 85.3005 152.381 85.3005 152.471C85.1305 156.861 85.6605 161.251 85.4505 165.631C85.2405 170.011 84.1705 174.551 81.2605 177.841C80.0705 179.191 77.8305 180.261 76.6105 178.931C76.186 178.37 75.9294 177.701 75.8705 177.001C74.0505 166.641 70.2905 157.651 69.2505 146.721C69.1013 145.259 69.3039 143.783 69.8415 142.415C70.379 141.048 71.2359 139.829 72.3405 138.861C74.4605 136.991 77.0905 135.021 79.7505 135.981C82.4105 136.941 86.1605 141.371 88.3305 143.191" fill="#263238"/>
<path d="M80.0006 168.541C79.7306 168.461 69.2806 166.481 70.6206 176.811C71.9606 187.141 82.0606 183.671 82.0406 183.371C82.0206 183.071 80.0006 168.541 80.0006 168.541Z" fill="#B78876"/>
<path d="M78.4206 179.871C78.4206 179.871 78.2606 180.021 77.9706 180.191C77.772 180.312 77.5514 180.393 77.3215 180.429C77.0916 180.465 76.8568 180.455 76.6306 180.401C75.4906 180.141 74.3406 178.521 74.0506 176.671C73.9086 175.786 73.9667 174.88 74.2206 174.021C74.2776 173.685 74.4145 173.368 74.6199 173.096C74.8253 172.825 75.0931 172.607 75.4006 172.461C75.6002 172.382 75.8206 172.375 76.0247 172.441C76.2288 172.507 76.404 172.641 76.5206 172.821C76.7006 173.091 76.6606 173.311 76.7206 173.321C76.7806 173.331 76.9206 173.121 76.7806 172.701C76.6901 172.451 76.5173 172.239 76.2906 172.101C75.9856 171.933 75.6284 171.886 75.2906 171.971C74.8763 172.111 74.5046 172.354 74.2106 172.678C73.9166 173.001 73.7101 173.395 73.6106 173.821C73.2857 174.786 73.1999 175.815 73.3606 176.821C73.7006 178.891 75.0206 180.701 76.5706 180.941C76.8585 180.987 77.1534 180.967 77.4325 180.882C77.7115 180.798 77.9675 180.65 78.1806 180.451C78.4206 180.121 78.4206 179.881 78.4206 179.871Z" fill="#7C5142"/>
<path d="M79.5405 137.621C76.5405 133.721 83.0005 127.081 87.9605 124.971C92.9205 122.861 99.9105 124.691 105.171 125.881C108.481 126.641 111.831 127.811 115.171 127.341C117.41 126.893 119.57 126.115 121.581 125.031C123.589 123.929 125.8 123.248 128.081 123.031C129.223 122.944 130.367 123.171 131.389 123.687C132.411 124.204 133.273 124.99 133.881 125.961C134.941 127.961 133.991 130.961 131.771 131.511C132.453 131.041 133.24 130.744 134.063 130.645C134.886 130.546 135.72 130.649 136.495 130.944C137.269 131.239 137.961 131.717 138.51 132.338C139.058 132.959 139.448 133.704 139.646 134.509C139.843 135.314 139.842 136.155 139.643 136.96C139.443 137.764 139.052 138.508 138.501 139.128C137.951 139.748 137.259 140.225 136.483 140.518C135.708 140.811 134.873 140.911 134.051 140.811C135.421 139.551 137.861 141.181 137.861 143.031C137.861 144.881 136.311 146.401 134.691 147.311C130.551 149.631 125.451 149.511 120.831 148.441C116.211 147.371 111.831 145.441 107.231 144.241C102.631 143.041 94.9205 140.881 90.6205 142.891C87.4605 144.361 85.5605 148.531 83.6205 147.891C82.7025 147.51 81.8868 146.918 81.2389 146.165C80.5911 145.411 80.1292 144.515 79.8905 143.551C79.4438 141.611 79.3155 139.611 79.5105 137.631" fill="#263238"/>
<path d="M80.1306 170.31C80.2595 175.803 80.8888 181.272 82.0106 186.65C83.1318 192.047 85.6922 197.041 89.4206 201.1C94.4206 206.23 100.981 211.1 108.081 212.31C115.831 213.59 125.311 211.97 131.621 207.31C134.621 205.1 136.791 200.31 135.861 196.69C137.131 196.091 138.218 195.163 139.009 194.003C139.8 192.843 140.267 191.492 140.361 190.09C140.521 187.29 138.811 183.79 136.601 183.42C138.261 183.14 138.741 180.5 138.111 179.01C137.481 177.52 135.291 177.07 133.631 177.39C131.99 177.82 130.464 178.605 129.161 179.69C127.865 180.777 126.403 181.648 124.831 182.27C119.471 184.01 114.041 179.27 108.411 179.5C103.321 179.7 98.7906 183.93 93.7406 183.22C92.3387 182.953 91.0088 182.394 89.8372 181.579C88.6657 180.764 87.6787 179.712 86.9406 178.49C85.3806 176.1 86.0606 167.27 85.4506 164.49" fill="#263238"/>
<g opacity="0.6">
<path opacity="0.6" d="M120.98 194.121C120.559 194.022 120.145 193.895 119.74 193.741C118.761 193.461 117.73 193.41 116.728 193.592C115.726 193.774 114.779 194.184 113.96 194.791C113.32 195.251 112.96 195.621 112.96 195.571C112.96 195.521 113.16 195.081 113.77 194.571C114.592 193.847 115.595 193.363 116.672 193.169C117.749 192.975 118.859 193.079 119.88 193.471C120.62 193.721 121.01 194.071 120.98 194.121Z" fill="#455A64"/>
</g>
<path d="M110.031 182.63C110.411 182.57 110.661 185.1 113.031 186.63C115.401 188.16 118.031 187.68 118.091 188.03C118.141 188.18 117.541 188.58 116.401 188.72C114.923 188.894 113.432 188.54 112.191 187.72C111.001 186.926 110.169 185.699 109.871 184.3C109.641 183.28 109.861 182.63 110.031 182.63Z" fill="white"/>
<path d="M102.51 210.621C102.737 210.672 102.955 210.753 103.161 210.86C103.591 211.02 104.221 211.24 105.051 211.47C107.403 212.106 109.817 212.485 112.251 212.6C113.917 212.699 115.589 212.665 117.251 212.5C119.167 212.329 121.06 211.96 122.9 211.401C124.933 210.794 126.871 209.909 128.661 208.77C130.606 207.597 132.305 206.054 133.661 204.23C135.271 202.083 135.988 199.395 135.661 196.73V196.52L135.84 196.44C137.084 195.862 138.161 194.978 138.971 193.871C139.363 193.348 139.698 192.785 139.971 192.19C140.209 191.613 140.358 191.003 140.411 190.38C140.519 189.254 140.358 188.118 139.941 187.066C139.524 186.014 138.862 185.076 138.01 184.33L137.861 184.21L137.98 184.06C138.432 183.488 138.726 182.808 138.835 182.088C138.943 181.367 138.863 180.63 138.6 179.95C138.395 179.435 138.084 178.968 137.688 178.578C137.292 178.189 136.82 177.887 136.301 177.69C135.638 177.426 134.92 177.326 134.21 177.4C133.72 177.46 133.481 177.55 133.471 177.52C133.701 177.411 133.947 177.337 134.201 177.3C135.15 177.147 136.125 177.311 136.971 177.769C137.818 178.227 138.489 178.951 138.881 179.83C139.177 180.564 139.277 181.361 139.172 182.145C139.067 182.929 138.759 183.671 138.281 184.3V184.03C139.194 184.81 139.908 185.797 140.364 186.908C140.82 188.02 141.004 189.224 140.9 190.42C140.849 191.108 140.691 191.782 140.43 192.42C140.141 193.047 139.789 193.644 139.381 194.2C138.529 195.388 137.386 196.335 136.061 196.95L136.21 196.65C136.612 199.451 135.893 202.296 134.21 204.57C132.815 206.448 131.065 208.035 129.061 209.24C127.235 210.402 125.251 211.295 123.171 211.89C121.298 212.453 119.37 212.815 117.421 212.97C115.726 213.105 114.025 213.105 112.331 212.97C109.878 212.817 107.451 212.377 105.1 211.66C104.463 211.462 103.839 211.225 103.23 210.95C102.979 210.867 102.738 210.756 102.51 210.621Z" fill="#455A64"/>
<path d="M57.1804 184.23C56.989 184.178 56.8092 184.09 56.6504 183.97C56.1999 183.633 55.8533 183.176 55.6504 182.65C55.3125 181.806 55.2393 180.878 55.4404 179.99C55.7559 178.815 56.4611 177.782 57.4404 177.06C58.591 176.193 59.8742 175.518 61.2404 175.06C62.7715 174.579 64.2519 173.95 65.6604 173.18C67.1426 172.242 68.3041 170.875 68.9904 169.26C69.7433 167.523 70.1443 165.654 70.1704 163.76C70.2504 159.85 69.3504 156.14 69.2504 152.69C69.1504 149.24 69.7504 146.02 71.3204 143.86C72.4963 142.129 74.2817 140.904 76.3204 140.43C76.8733 140.32 77.4396 140.293 78.0004 140.35C78.1962 140.373 78.39 140.41 78.5804 140.46C77.8396 140.425 77.0972 140.482 76.3704 140.63C74.4053 141.15 72.7001 142.374 71.5804 144.07C70.1204 146.17 69.5104 149.29 69.6904 152.67C69.8704 156.05 70.6904 159.76 70.6904 163.78C70.6488 165.746 70.2171 167.683 69.4204 169.48C68.6853 171.184 67.4465 172.622 65.8704 173.6C64.4233 174.384 62.8984 175.014 61.3204 175.48C59.9931 175.9 58.7409 176.528 57.6104 177.34C56.6819 177.998 56.0019 178.949 55.6804 180.04C55.4625 180.872 55.5008 181.751 55.7904 182.56C56.054 183.257 56.5434 183.845 57.1804 184.23V184.23Z" fill="#455A64"/>
<path d="M132.15 131.341C132.292 131.254 132.443 131.184 132.6 131.131C132.791 131.046 132.988 130.979 133.191 130.931C133.462 130.85 133.74 130.794 134.021 130.761C134.954 130.659 135.898 130.771 136.781 131.088C137.665 131.405 138.465 131.919 139.12 132.591C139.776 133.47 140.251 134.471 140.517 135.535C140.783 136.599 140.835 137.706 140.671 138.791C140.474 140.136 140.01 141.428 139.306 142.591C138.602 143.754 137.672 144.763 136.57 145.561C134.035 147.407 131.005 148.451 127.87 148.561C124.473 148.694 121.073 148.33 117.781 147.481C112.55 146.197 107.587 144 103.12 140.991C101.211 139.678 99.2054 138.511 97.1205 137.501C95.2943 136.656 93.3283 136.154 91.3205 136.021C88.3958 135.818 85.4677 136.362 82.8105 137.601C80.9405 138.481 80.0505 139.241 80.0105 139.181C80.8318 138.474 81.743 137.878 82.7205 137.411C85.3934 136.089 88.3633 135.482 91.3405 135.651C93.4132 135.757 95.448 136.249 97.3405 137.101C99.4555 138.109 101.491 139.276 103.43 140.591C107.865 143.54 112.778 145.699 117.951 146.971C121.192 147.821 124.54 148.199 127.891 148.091C130.929 147.984 133.869 146.982 136.34 145.211C137.401 144.452 138.301 143.49 138.988 142.381C139.674 141.272 140.134 140.038 140.34 138.751C140.517 137.708 140.485 136.641 140.246 135.611C140.007 134.582 139.567 133.609 138.951 132.751V132.751C138.33 132.1 137.574 131.595 136.735 131.272C135.897 130.949 134.997 130.815 134.1 130.881C133.44 130.983 132.788 131.137 132.15 131.341V131.341Z" fill="#455A64"/>
<path d="M126.851 122.531C126.85 123.318 126.69 124.097 126.381 124.821C125.513 126.81 124.007 128.454 122.101 129.491C120.813 130.24 119.4 130.748 117.931 130.991C116.246 131.236 114.535 131.236 112.851 130.991C109.281 130.541 105.591 129.141 101.711 127.931C97.8306 126.721 93.9206 126.001 90.4806 126.741C87.4324 127.406 84.6716 129.016 82.5906 131.341C81.173 132.891 80.0874 134.715 79.4006 136.701C78.9406 138.121 78.8506 138.951 78.7906 138.941C78.7661 138.741 78.7661 138.54 78.7906 138.341C78.8706 137.765 78.9943 137.197 79.1606 136.641C79.7818 134.587 80.8431 132.693 82.2706 131.091C84.3721 128.663 87.1972 126.973 90.3306 126.271C93.8906 125.481 97.9106 126.211 101.811 127.431C105.711 128.651 109.371 130.051 112.861 130.511C114.502 130.75 116.169 130.75 117.811 130.511C119.236 130.295 120.612 129.824 121.871 129.121C123.734 128.143 125.232 126.589 126.141 124.691C126.434 123.991 126.672 123.268 126.851 122.531V122.531Z" fill="#455A64"/>
<path d="M202.541 59.2402C202.451 59.3502 196.831 54.7802 189.981 49.0302C183.131 43.2802 177.661 38.4802 177.761 38.4102C177.861 38.3402 183.471 42.8702 190.321 48.6302C197.171 54.3902 202.641 59.1302 202.541 59.2402Z" fill="#263238"/>
<path d="M231.061 52.3902C230.921 52.3902 230.351 43.5102 229.801 32.5402C229.251 21.5702 228.911 12.6702 229.051 12.6602C229.191 12.6502 229.761 21.5402 230.321 32.5202C230.881 43.5002 231.201 52.3902 231.061 52.3902Z" fill="#263238"/>
<path d="M212.901 46.0402C212.761 46.0402 211.011 41.0402 208.981 34.7102C206.951 28.3802 205.421 23.2702 205.561 23.2302C205.701 23.1902 207.451 28.2302 209.481 34.5502C211.511 40.8702 213.031 46.0002 212.901 46.0402Z" fill="#263238"/>
<path d="M196.711 68.6201C194.078 67.6938 191.503 66.6084 189.001 65.3701C186.426 64.2844 183.921 63.0387 181.501 61.6401C184.134 62.5665 186.709 63.6518 189.211 64.8901C191.785 65.9782 194.29 67.2239 196.711 68.6201Z" fill="#263238"/>
<path d="M170.421 57.1302C170.421 57.2702 169.571 57.2902 168.561 57.1302C167.551 56.9702 166.751 56.7902 166.771 56.6502C166.791 56.5102 167.621 56.4902 168.621 56.6502C169.621 56.8102 170.421 56.9902 170.421 57.1302Z" fill="#263238"/>
<path d="M206.211 16.7701C206.061 16.7701 205.951 15.9601 205.951 14.9501C205.951 13.9401 206.061 13.1201 206.211 13.1201C206.361 13.1201 206.471 13.9401 206.471 14.9501C206.471 15.9601 206.351 16.7701 206.211 16.7701Z" fill="#263238"/>
<path d="M266.421 30.8902C266.531 30.9902 261.911 36.2802 256.121 42.7102C250.331 49.1402 245.551 54.2802 245.421 54.1802C245.291 54.0802 249.931 48.8002 255.721 42.3602C261.511 35.9202 266.321 30.8002 266.421 30.8902Z" fill="#263238"/>
<path d="M273.771 23.6202C273.871 23.7202 273.341 24.4202 272.581 25.1802C271.821 25.9402 271.131 26.4602 271.031 26.3602C270.931 26.2602 271.461 25.5602 272.221 24.8102C272.981 24.0602 273.671 23.4802 273.771 23.6202Z" fill="#263238"/>
<path d="M291.591 49.2202C291.162 49.5291 290.707 49.8001 290.231 50.0302C289.341 50.5202 288.041 51.2102 286.421 52.0302C283.171 53.6702 278.621 55.8102 273.501 57.9402C268.381 60.0702 263.651 61.7702 260.191 62.9402C258.471 63.5102 257.071 63.9402 256.091 64.2302C255.595 64.4104 255.082 64.541 254.561 64.6202C255.034 64.3862 255.525 64.1922 256.031 64.0402L260.031 62.5902C263.451 61.3602 268.141 59.5902 273.261 57.4902C278.381 55.3902 282.931 53.2802 286.261 51.7302L290.141 49.8902C290.607 49.6314 291.092 49.4075 291.591 49.2202V49.2202Z" fill="#263238"/>
<path d="M276.971 73.8402C276.117 74.2208 275.225 74.5123 274.311 74.7102C272.651 75.1702 270.311 75.7102 267.731 76.1602C265.151 76.6102 262.731 76.8602 261.041 76.9802C260.116 77.098 259.18 77.1148 258.251 77.0302C259.159 76.8209 260.082 76.6805 261.011 76.6102C262.711 76.4002 265.061 76.0802 267.641 75.6102C270.221 75.1402 272.551 74.6902 274.231 74.3302C275.127 74.0829 276.045 73.9188 276.971 73.8402V73.8402Z" fill="#263238"/>
<path d="M290.261 71.3801C288.357 71.7268 286.405 71.7268 284.501 71.3801C286.405 71.0334 288.357 71.0334 290.261 71.3801Z" fill="#263238"/>
</svg>
