<svg width="79" height="78" viewBox="0 0 79 78" fill="none" xmlns="http://www.w3.org/2000/svg">
<rect x="0.5" width="78" height="78" rx="39" fill="#EAFAF6"/>
<path d="M46 24.375H21.625V45.5H46V24.375Z" stroke="#31D0AA" stroke-width="3.25" stroke-linecap="round" stroke-linejoin="round"/>
<path d="M46 32.5H52.5L57.375 37.375V45.5H46V32.5Z" stroke="#31D0AA" stroke-width="3.25" stroke-linecap="round" stroke-linejoin="round"/>
<path d="M28.9375 53.625C31.1812 53.625 33 51.8062 33 49.5625C33 47.3188 31.1812 45.5 28.9375 45.5C26.6938 45.5 24.875 47.3188 24.875 49.5625C24.875 51.8062 26.6938 53.625 28.9375 53.625Z" stroke="#31D0AA" stroke-width="3.25" stroke-linecap="round" stroke-linejoin="round"/>
<path d="M50.0625 53.625C52.3062 53.625 54.125 51.8062 54.125 49.5625C54.125 47.3188 52.3062 45.5 50.0625 45.5C47.8188 45.5 46 47.3188 46 49.5625C46 51.8062 47.8188 53.625 50.0625 53.625Z" stroke="#31D0AA" stroke-width="3.25" stroke-linecap="round" stroke-linejoin="round"/>
</svg>
